{
copyright = "~";
date = "2015-08-06 14:36:33 +0000";
designer = "Manushi Parikh, Satya Rajpurohit";
designerURL = "~";
familyName = "Hind";
fontMaster = (
{
ascender = 707;
capHeight = 674;
descender = -200;
id = "7C6C6D54-BD7C-484C-BA4C-283093F5BAFD";
weight = Light;
weightValue = 0;
xHeight = 507;
},
{
ascender = 707;
capHeight = 674;
descender = -187;
id = "9624E7F4-80FA-4A11-8396-8F8611ED4CD7";
weight = Bold;
xHeight = 507;
}
);
glyphs = (
{
color = 3;
glyphname = A;
lastChange = "2015-08-06 15:39:19 +0000";
layers = (
{
layerId = "7C6C6D54-BD7C-484C-BA4C-283093F5BAFD";
name = Light;
paths = (
{
closed = 1;
nodes = (
"105 0 LINE",
"204 284 LINE SMOOTH",
"308 583 OFFCURVE",
"321 622 OFFCURVE",
"321 622 CURVE",
"321 622 OFFCURVE",
"333 583 OFFCURVE",
"435 285 CURVE SMOOTH",
"532 0 LINE",
"599 0 LINE",
"366 674 LINE",
"276 674 LINE",
"38 0 LINE"
);
},
{
closed = 1;
nodes = (
"496 187 LINE",
"496 242 LINE",
"135 242 LINE",
"135 187 LINE"
);
}
);
width = 637;
},
{
layerId = "9624E7F4-80FA-4A11-8396-8F8611ED4CD7";
name = Bold;
paths = (
{
closed = 1;
nodes = (
"184 0 LINE",
"269 286 LINE SMOOTH",
"335 507 OFFCURVE",
"343 562 OFFCURVE",
"343 562 CURVE",
"343 562 OFFCURVE",
"351 507 OFFCURVE",
"417 286 CURVE SMOOTH",
"502 0 LINE",
"667 0 LINE",
"442 674 LINE",
"248 674 LINE",
"23 0 LINE"
);
},
{
closed = 1;
nodes = (
"514 138 LINE",
"514 262 LINE",
"199 262 LINE",
"199 138 LINE"
);
}
);
width = 690;
}
);
unicode = 0041;
},
{
color = 3;
glyphname = Aogonek;
lastChange = "2015-08-06 15:39:19 +0000";
layers = (
{
layerId = "7C6C6D54-BD7C-484C-BA4C-283093F5BAFD";
name = Light;
paths = (
{
closed = 1;
nodes = (
"105 0 LINE",
"204 284 LINE SMOOTH",
"308 583 OFFCURVE",
"321 622 OFFCURVE",
"321 622 CURVE",
"321 622 OFFCURVE",
"333 583 OFFCURVE",
"435 285 CURVE SMOOTH",
"532 0 LINE",
"599 0 LINE",
"366 674 LINE",
"276 674 LINE",
"38 0 LINE"
);
},
{
closed = 1;
nodes = (
"575 -237 OFFCURVE",
"602 -232 OFFCURVE",
"622 -219 CURVE",
"622 -169 LINE",
"607 -180 OFFCURVE",
"580 -189 OFFCURVE",
"558 -189 CURVE SMOOTH",
"516 -189 OFFCURVE",
"488 -167 OFFCURVE",
"488 -124 CURVE SMOOTH",
"488 -70 OFFCURVE",
"537 -28 OFFCURVE",
"599 0 CURVE",
"573 31 LINE",
"501 7 OFFCURVE",
"432 -54 OFFCURVE",
"432 -129 CURVE SMOOTH",
"432 -190 OFFCURVE",
"475 -237 OFFCURVE",
"551 -237 CURVE SMOOTH"
);
},
{
closed = 1;
nodes = (
"496 187 LINE",
"496 242 LINE",
"135 242 LINE",
"135 187 LINE"
);
}
);
width = 637;
},
{
layerId = "9624E7F4-80FA-4A11-8396-8F8611ED4CD7";
name = Bold;
paths = (
{
closed = 1;
nodes = (
"179 0 LINE",
"264 286 LINE SMOOTH",
"330 507 OFFCURVE",
"338 562 OFFCURVE",
"338 562 CURVE",
"338 562 OFFCURVE",
"346 507 OFFCURVE",
"412 286 CURVE SMOOTH",
"497 0 LINE",
"662 0 LINE",
"437 674 LINE",
"243 674 LINE",
"18 0 LINE"
);
},
{
closed = 1;
nodes = (
"611 -260 OFFCURVE",
"645 -250 OFFCURVE",
"674 -235 CURVE",
"674 -134 LINE",
"651 -150 OFFCURVE",
"623 -164 OFFCURVE",
"587 -164 CURVE SMOOTH",
"560 -164 OFFCURVE",
"544 -152 OFFCURVE",
"544 -130 CURVE SMOOTH",
"544 -86 OFFCURVE",
"604 -36 OFFCURVE",
"662 0 CURVE",
"596 64 LINE",
"538 39 OFFCURVE",
"428 -31 OFFCURVE",
"428 -143 CURVE SMOOTH",
"428 -206 OFFCURVE",
"466 -260 OFFCURVE",
"565 -260 CURVE SMOOTH"
);
},
{
closed = 1;
nodes = (
"509 138 LINE",
"509 262 LINE",
"194 262 LINE",
"194 138 LINE"
);
}
);
width = 680;
}
);
unicode = 0104;
},
{
color = 3;
glyphname = AE;
lastChange = "2015-08-06 15:39:19 +0000";
layers = (
{
layerId = "7C6C6D54-BD7C-484C-BA4C-283093F5BAFD";
name = Light;
paths = (
{
closed = 1;
nodes = (
"94 0 LINE",
"263 284 LINE SMOOTH",
"421 550 OFFCURVE",
"487 674 OFFCURVE",
"487 674 CURVE",
"425 674 LINE",
"27 0 LINE"
);
},
{
closed = 1;
nodes = (
"483 187 LINE",
"483 242 LINE",
"185 242 LINE",
"185 187 LINE"
);
},
{
closed = 1;
nodes = (
"818 0 LINE",
"818 57 LINE",
"461 57 LINE",
"461 0 LINE"
);
},
{
closed = 1;
nodes = (
"515 0 LINE",
"515 674 LINE",
"453 674 LINE",
"453 0 LINE"
);
},
{
closed = 1;
nodes = (
"777 308 LINE",
"777 365 LINE",
"461 365 LINE",
"461 308 LINE"
);
},
{
closed = 1;
nodes = (
"812 617 LINE",
"812 674 LINE",
"461 674 LINE",
"461 617 LINE"
);
}
);
width = 863;
},
{
layerId = "9624E7F4-80FA-4A11-8396-8F8611ED4CD7";
name = Bold;
paths = (
{
closed = 1;
nodes = (
"169 0 LINE",
"313 286 LINE",
"402 462 OFFCURVE",
"471 609 OFFCURVE",
"487 674 CURVE",
"333 674 LINE",
"8 0 LINE"
);
},
{
closed = 1;
nodes = (
"529 138 LINE",
"529 262 LINE",
"214 262 LINE",
"214 138 LINE"
);
},
{
closed = 1;
nodes = (
"880 0 LINE",
"880 123 LINE",
"519 123 LINE",
"519 0 LINE"
);
},
{
closed = 1;
nodes = (
"616 0 LINE",
"616 674 LINE",
"467 674 LINE",
"467 0 LINE"
);
},
{
closed = 1;
nodes = (
"848 276 LINE",
"848 398 LINE",
"519 398 LINE",
"519 276 LINE"
);
},
{
closed = 1;
nodes = (
"876 551 LINE",
"876 674 LINE",
"519 674 LINE",
"519 551 LINE"
);
}
);
width = 940;
}
);
unicode = 00C6;
},
{
color = 3;
glyphname = B;
lastChange = "2015-08-06 15:39:19 +0000";
layers = (
{
layerId = "7C6C6D54-BD7C-484C-BA4C-283093F5BAFD";
name = Light;
paths = (
{
closed = 1;
nodes = (
"142 0 LINE",
"142 674 LINE",
"80 674 LINE",
"80 0 LINE"
);
},
{
closed = 1;
nodes = (
"314 0 LINE SMOOTH",
"449 0 OFFCURVE",
"517 75 OFFCURVE",
"517 179 CURVE SMOOTH",
"517 283 OFFCURVE",
"446 335 OFFCURVE",
"377 343 CURVE",
"446 357 OFFCURVE",
"497 418 OFFCURVE",
"497 499 CURVE SMOOTH",
"497 610 OFFCURVE",
"401 674 OFFCURVE",
"268 674 CURVE SMOOTH",
"80 674 LINE",
"80 619 LINE",
"275 619 LINE SMOOTH",
"385 619 OFFCURVE",
"432 563 OFFCURVE",
"432 501 CURVE SMOOTH",
"432 430 OFFCURVE",
"387 368 OFFCURVE",
"263 368 CURVE SMOOTH",
"80 368 LINE",
"80 313 LINE",
"295 313 LINE SMOOTH",
"393 313 OFFCURVE",
"452 266 OFFCURVE",
"452 181 CURVE SMOOTH",
"452 98 OFFCURVE",
"400 55 OFFCURVE",
"314 55 CURVE",
"80 55 LINE",
"80 0 LINE"
);
}
);
width = 562;
},
{
layerId = "9624E7F4-80FA-4A11-8396-8F8611ED4CD7";
name = Bold;
paths = (
{
closed = 1;
nodes = (
"219 0 LINE",
"219 674 LINE",
"65 674 LINE",
"65 0 LINE"
);
},
{
closed = 1;
nodes = (
"356 0 LINE",
"491 0 OFFCURVE",
"570 79 OFFCURVE",
"570 183 CURVE SMOOTH",
"570 277 OFFCURVE",
"514 323 OFFCURVE",
"453 341 CURVE",
"512 360 OFFCURVE",
"554 417 OFFCURVE",
"554 488 CURVE SMOOTH",
"554 589 OFFCURVE",
"483 674 OFFCURVE",
"327 674 CURVE",
"65 674 LINE",
"65 551 LINE",
"301 551 LINE",
"368 551 OFFCURVE",
"397 525 OFFCURVE",
"397 480 CURVE SMOOTH",
"397 435 OFFCURVE",
"359 400 OFFCURVE",
"276 400 CURVE",
"65 400 LINE",
"65 279 LINE",
"301 279 LINE",
"387 279 OFFCURVE",
"414 243 OFFCURVE",
"414 201 CURVE SMOOTH",
"414 151 OFFCURVE",
"378 123 OFFCURVE",
"300 123 CURVE",
"65 123 LINE",
"65 0 LINE"
);
}
);
width = 605;
}
);
unicode = 0042;
},
{
color = 3;
glyphname = C;
lastChange = "2015-08-06 15:39:19 +0000";
layers = (
{
layerId = "7C6C6D54-BD7C-484C-BA4C-283093F5BAFD";
name = Light;
paths = (
{
closed = 1;
nodes = (
"455 -8 OFFCURVE",
"519 7 OFFCURVE",
"559 35 CURVE",
"559 103 LINE",
"521 73 OFFCURVE",
"460 51 OFFCURVE",
"394 51 CURVE SMOOTH",
"226 51 OFFCURVE",
"114 164 OFFCURVE",
"114 341 CURVE SMOOTH",
"114 512 OFFCURVE",
"233 624 OFFCURVE",
"385 624 CURVE SMOOTH",
"473 624 OFFCURVE",
"507 608 OFFCURVE",
"557 582 CURVE",
"557 647 LINE",
"510 671 OFFCURVE",
"459 683 OFFCURVE",
"387 683 CURVE SMOOTH",
"200 683 OFFCURVE",
"50 547 OFFCURVE",
"50 341 CURVE SMOOTH",
"50 120 OFFCURVE",
"190 -8 OFFCURVE",
"391 -8 CURVE SMOOTH"
);
}
);
width = 599;
},
{
layerId = "9624E7F4-80FA-4A11-8396-8F8611ED4CD7";
name = Bold;
paths = (
{
closed = 1;
nodes = (
"435 -8 OFFCURVE",
"508 -4 OFFCURVE",
"563 30 CURVE",
"563 181 LINE",
"518 149 OFFCURVE",
"455 133 OFFCURVE",
"402 133 CURVE SMOOTH",
"288 133 OFFCURVE",
"205 208 OFFCURVE",
"205 335 CURVE SMOOTH",
"205 466 OFFCURVE",
"292 543 OFFCURVE",
"396 543 CURVE SMOOTH",
"456 543 OFFCURVE",
"503 534 OFFCURVE",
"563 497 CURVE",
"563 645 LINE",
"508 679 OFFCURVE",
"436 683 OFFCURVE",
"388 683 CURVE SMOOTH",
"180 683 OFFCURVE",
"40 540 OFFCURVE",
"40 335 CURVE SMOOTH",
"40 129 OFFCURVE",
"193 -8 OFFCURVE",
"387 -8 CURVE SMOOTH"
);
}
);
width = 613;
}
);
unicode = 0043;
},
{
color = 3;
glyphname = D;
lastChange = "2015-08-06 15:39:19 +0000";
layers = (
{
layerId = "7C6C6D54-BD7C-484C-BA4C-283093F5BAFD";
name = Light;
paths = (
{
closed = 1;
nodes = (
"277 0 LINE",
"503 0 OFFCURVE",
"610 166 OFFCURVE",
"610 341 CURVE SMOOTH",
"610 541 OFFCURVE",
"468 674 OFFCURVE",
"272 674 CURVE",
"80 674 LINE",
"80 617 LINE",
"272 617 LINE",
"436 617 OFFCURVE",
"545 491 OFFCURVE",
"545 341 CURVE SMOOTH",
"545 198 OFFCURVE",
"467 57 OFFCURVE",
"277 57 CURVE",
"80 57 LINE",
"80 0 LINE"
);
},
{
closed = 1;
nodes = (
"142 0 LINE",
"142 674 LINE",
"80 674 LINE",
"80 0 LINE"
);
}
);
width = 655;
},
{
layerId = "9624E7F4-80FA-4A11-8396-8F8611ED4CD7";
name = Bold;
paths = (
{
closed = 1;
nodes = (
"295 0 LINE",
"502 0 OFFCURVE",
"643 130 OFFCURVE",
"643 348 CURVE SMOOTH",
"643 530 OFFCURVE",
"503 674 OFFCURVE",
"297 674 CURVE SMOOTH",
"65 674 LINE",
"65 547 LINE",
"292 547 LINE",
"419 547 OFFCURVE",
"487 464 OFFCURVE",
"487 348 CURVE SMOOTH",
"487 207 OFFCURVE",
"418 126 OFFCURVE",
"293 126 CURVE SMOOTH",
"65 126 LINE",
"65 0 LINE"
);
},
{
closed = 1;
nodes = (
"223 0 LINE",
"223 674 LINE",
"65 674 LINE",
"65 0 LINE"
);
}
);
width = 683;
}
);
unicode = 0044;
},
{
color = 3;
glyphname = Eth;
lastChange = "2015-08-06 15:39:19 +0000";
layers = (
{
layerId = "7C6C6D54-BD7C-484C-BA4C-283093F5BAFD";
name = Light;
paths = (
{
closed = 1;
nodes = (
"347 0 LINE",
"573 0 OFFCURVE",
"680 166 OFFCURVE",
"680 341 CURVE SMOOTH",
"680 541 OFFCURVE",
"538 674 OFFCURVE",
"342 674 CURVE SMOOTH",
"150 674 LINE",
"150 617 LINE",
"342 617 LINE SMOOTH",
"506 617 OFFCURVE",
"615 491 OFFCURVE",
"615 341 CURVE SMOOTH",
"615 198 OFFCURVE",
"537 57 OFFCURVE",
"347 57 CURVE SMOOTH",
"150 57 LINE",
"150 0 LINE"
);
},
{
closed = 1;
nodes = (
"212 0 LINE",
"212 674 LINE",
"150 674 LINE",
"150 0 LINE"
);
},
{
closed = 1;
nodes = (
"396 313 LINE",
"396 366 LINE",
"60 366 LINE",
"60 313 LINE"
);
}
);
width = 725;
},
{
layerId = "9624E7F4-80FA-4A11-8396-8F8611ED4CD7";
name = Bold;
paths = (
{
closed = 1;
nodes = (
"361 0 LINE",
"568 0 OFFCURVE",
"709 130 OFFCURVE",
"709 348 CURVE SMOOTH",
"709 530 OFFCURVE",
"569 674 OFFCURVE",
"363 674 CURVE SMOOTH",
"131 674 LINE",
"131 547 LINE",
"358 547 LINE SMOOTH",
"485 547 OFFCURVE",
"553 464 OFFCURVE",
"553 348 CURVE SMOOTH",
"553 207 OFFCURVE",
"484 126 OFFCURVE",
"359 126 CURVE SMOOTH",
"131 126 LINE",
"131 0 LINE"
);
},
{
closed = 1;
nodes = (
"289 0 LINE",
"289 674 LINE",
"131 674 LINE",
"131 0 LINE"
);
},
{
closed = 1;
nodes = (
"427 269 LINE",
"427 393 LINE",
"65 393 LINE",
"65 269 LINE"
);
}
);
width = 749;
}
);
unicode = 00D0;
},
{
color = 3;
glyphname = E;
lastChange = "2015-08-06 15:39:19 +0000";
layers = (
{
layerId = "7C6C6D54-BD7C-484C-BA4C-283093F5BAFD";
name = Light;
paths = (
{
closed = 1;
nodes = (
"142 0 LINE",
"142 674 LINE",
"80 674 LINE",
"80 0 LINE"
);
},
{
closed = 1;
nodes = (
"445 0 LINE",
"445 57 LINE",
"88 57 LINE",
"88 0 LINE"
);
},
{
closed = 1;
nodes = (
"404 308 LINE",
"404 365 LINE",
"88 365 LINE",
"88 308 LINE"
);
},
{
closed = 1;
nodes = (
"439 617 LINE",
"439 674 LINE",
"88 674 LINE",
"88 617 LINE"
);
}
);
width = 490;
},
{
layerId = "9624E7F4-80FA-4A11-8396-8F8611ED4CD7";
name = Bold;
paths = (
{
closed = 1;
nodes = (
"220 0 LINE",
"220 674 LINE",
"65 674 LINE",
"65 0 LINE"
);
},
{
closed = 1;
nodes = (
"484 0 LINE",
"484 123 LINE",
"123 123 LINE",
"123 0 LINE"
);
},
{
closed = 1;
nodes = (
"452 276 LINE",
"452 398 LINE",
"123 398 LINE",
"123 276 LINE"
);
},
{
closed = 1;
nodes = (
"480 551 LINE",
"480 674 LINE",
"123 674 LINE",
"123 551 LINE"
);
}
);
width = 544;
}
);
unicode = 0045;
},
{
color = 3;
glyphname = F;
lastChange = "2015-08-06 15:39:19 +0000";
layers = (
{
layerId = "7C6C6D54-BD7C-484C-BA4C-283093F5BAFD";
name = Light;
paths = (
{
closed = 1;
nodes = (
"142 0 LINE",
"142 674 LINE",
"80 674 LINE",
"80 0 LINE"
);
},
{
closed = 1;
nodes = (
"404 303 LINE",
"404 360 LINE",
"88 360 LINE",
"88 303 LINE"
);
},
{
closed = 1;
nodes = (
"439 617 LINE",
"439 674 LINE",
"88 674 LINE",
"88 617 LINE"
);
}
);
width = 484;
},
{
layerId = "9624E7F4-80FA-4A11-8396-8F8611ED4CD7";
name = Bold;
paths = (
{
closed = 1;
nodes = (
"220 0 LINE",
"220 674 LINE",
"65 674 LINE",
"65 0 LINE"
);
},
{
closed = 1;
nodes = (
"443 254 LINE",
"443 377 LINE",
"123 377 LINE",
"123 254 LINE"
);
},
{
closed = 1;
nodes = (
"476 551 LINE",
"476 674 LINE",
"123 674 LINE",
"123 551 LINE"
);
}
);
width = 506;
}
);
unicode = 0046;
},
{
color = 3;
glyphname = G;
lastChange = "2015-08-06 15:39:19 +0000";
layers = (
{
layerId = "7C6C6D54-BD7C-484C-BA4C-283093F5BAFD";
name = Light;
paths = (
{
closed = 1;
nodes = (
"466 -8 OFFCURVE",
"542 14 OFFCURVE",
"591 50 CURVE",
"561 104 LINE",
"533 84 OFFCURVE",
"478 54 OFFCURVE",
"392 54 CURVE SMOOTH",
"219 54 OFFCURVE",
"114 160 OFFCURVE",
"114 338 CURVE SMOOTH",
"114 512 OFFCURVE",
"225 624 OFFCURVE",
"381 624 CURVE SMOOTH",
"445 624 OFFCURVE",
"516 607 OFFCURVE",
"569 570 CURVE",
"569 639 LINE",
"513 673 OFFCURVE",
"439 686 OFFCURVE",
"373 686 CURVE SMOOTH",
"187 686 OFFCURVE",
"50 541 OFFCURVE",
"50 338 CURVE SMOOTH",
"50 121 OFFCURVE",
"189 -8 OFFCURVE",
"391 -8 CURVE SMOOTH"
);
},
{
closed = 1;
nodes = (
"591 50 LINE",
"591 371 LINE",
"529 371 LINE",
"529 35 LINE"
);
},
{
closed = 1;
nodes = (
"591 316 LINE",
"591 371 LINE",
"370 371 LINE",
"370 316 LINE"
);
}
);
width = 661;
},
{
layerId = "9624E7F4-80FA-4A11-8396-8F8611ED4CD7";
name = Bold;
paths = (
{
closed = 1;
nodes = (
"522 -8 OFFCURVE",
"602 30 OFFCURVE",
"646 62 CURVE",
"646 235 LINE",
"603 193 OFFCURVE",
"520 131 OFFCURVE",
"411 131 CURVE SMOOTH",
"283 131 OFFCURVE",
"206 212 OFFCURVE",
"206 338 CURVE SMOOTH",
"206 463 OFFCURVE",
"286 545 OFFCURVE",
"413 545 CURVE SMOOTH",
"463 545 OFFCURVE",
"530 536 OFFCURVE",
"610 490 CURVE",
"610 644 LINE",
"545 677 OFFCURVE",
"475 686 OFFCURVE",
"413 686 CURVE SMOOTH",
"201 686 OFFCURVE",
"40 553 OFFCURVE",
"40 338 CURVE SMOOTH",
"40 122 OFFCURVE",
"191 -8 OFFCURVE",
"404 -8 CURVE SMOOTH"
);
},
{
closed = 1;
nodes = (
"646 77 LINE",
"646 402 LINE",
"496 402 LINE",
"496 37 LINE"
);
},
{
closed = 1;
nodes = (
"646 271 LINE",
"646 402 LINE",
"387 402 LINE",
"387 271 LINE"
);
}
);
width = 706;
}
);
unicode = 0047;
},
{
color = 3;
glyphname = Gcommaaccent;
lastChange = "2015-08-06 15:39:19 +0000";
layers = (
{
layerId = "7C6C6D54-BD7C-484C-BA4C-283093F5BAFD";
name = Light;
paths = (
{
closed = 1;
nodes = (
"466 -8 OFFCURVE",
"542 14 OFFCURVE",
"591 50 CURVE",
"561 104 LINE",
"533 84 OFFCURVE",
"478 54 OFFCURVE",
"392 54 CURVE SMOOTH",
"219 54 OFFCURVE",
"114 160 OFFCURVE",
"114 338 CURVE SMOOTH",
"114 512 OFFCURVE",
"225 624 OFFCURVE",
"381 624 CURVE SMOOTH",
"445 624 OFFCURVE",
"516 607 OFFCURVE",
"569 570 CURVE",
"569 639 LINE",
"513 673 OFFCURVE",
"439 686 OFFCURVE",
"373 686 CURVE SMOOTH",
"187 686 OFFCURVE",
"50 541 OFFCURVE",
"50 338 CURVE SMOOTH",
"50 121 OFFCURVE",
"189 -8 OFFCURVE",
"391 -8 CURVE SMOOTH"
);
},
{
closed = 1;
nodes = (
"303 -238 LINE",
"413 -51 LINE",
"337 -51 LINE",
"249 -238 LINE"
);
},
{
closed = 1;
nodes = (
"591 50 LINE",
"591 371 LINE",
"529 371 LINE",
"529 35 LINE"
);
},
{
closed = 1;
nodes = (
"591 316 LINE",
"591 371 LINE",
"370 371 LINE",
"370 316 LINE"
);
}
);
width = 661;
},
{
layerId = "9624E7F4-80FA-4A11-8396-8F8611ED4CD7";
name = Bold;
paths = (
{
closed = 1;
nodes = (
"522 -8 OFFCURVE",
"602 30 OFFCURVE",
"646 62 CURVE",
"646 235 LINE",
"603 193 OFFCURVE",
"520 131 OFFCURVE",
"411 131 CURVE SMOOTH",
"283 131 OFFCURVE",
"206 212 OFFCURVE",
"206 338 CURVE SMOOTH",
"206 463 OFFCURVE",
"286 545 OFFCURVE",
"413 545 CURVE SMOOTH",
"463 545 OFFCURVE",
"530 536 OFFCURVE",
"610 490 CURVE",
"610 644 LINE",
"545 677 OFFCURVE",
"475 686 OFFCURVE",
"413 686 CURVE SMOOTH",
"201 686 OFFCURVE",
"40 553 OFFCURVE",
"40 338 CURVE SMOOTH",
"40 122 OFFCURVE",
"191 -8 OFFCURVE",
"404 -8 CURVE SMOOTH"
);
},
{
closed = 1;
nodes = (
"335 -262 LINE",
"451 -51 LINE",
"300 -51 LINE",
"229 -262 LINE"
);
},
{
closed = 1;
nodes = (
"646 77 LINE",
"646 402 LINE",
"496 402 LINE",
"496 37 LINE"
);
},
{
closed = 1;
nodes = (
"646 271 LINE",
"646 402 LINE",
"387 402 LINE",
"387 271 LINE"
);
}
);
width = 706;
}
);
unicode = 0122;
},
{
color = 3;
glyphname = H;
lastChange = "2015-08-06 15:39:19 +0000";
layers = (
{
layerId = "7C6C6D54-BD7C-484C-BA4C-283093F5BAFD";
name = Light;
paths = (
{
closed = 1;
nodes = (
"552 0 LINE",
"552 674 LINE",
"490 674 LINE",
"490 0 LINE"
);
},
{
closed = 1;
nodes = (
"142 0 LINE",
"142 674 LINE",
"80 674 LINE",
"80 0 LINE"
);
},
{
closed = 1;
nodes = (
"509 315 LINE",
"509 372 LINE",
"128 372 LINE",
"128 315 LINE"
);
}
);
width = 632;
},
{
layerId = "9624E7F4-80FA-4A11-8396-8F8611ED4CD7";
name = Bold;
paths = (
{
closed = 1;
nodes = (
"621 0 LINE",
"621 674 LINE",
"466 674 LINE",
"466 0 LINE"
);
},
{
closed = 1;
nodes = (
"219 0 LINE",
"219 674 LINE",
"65 674 LINE",
"65 0 LINE"
);
},
{
closed = 1;
nodes = (
"527 269 LINE",
"527 400 LINE",
"134 400 LINE",
"134 269 LINE"
);
}
);
width = 686;
}
);
unicode = 0048;
},
{
color = 3;
glyphname = I;
lastChange = "2015-08-06 15:39:19 +0000";
layers = (
{
layerId = "7C6C6D54-BD7C-484C-BA4C-283093F5BAFD";
name = Light;
paths = (
{
closed = 1;
nodes = (
"147 0 LINE",
"147 674 LINE",
"85 674 LINE",
"85 0 LINE"
);
}
);
width = 232;
},
{
layerId = "9624E7F4-80FA-4A11-8396-8F8611ED4CD7";
name = Bold;
paths = (
{
closed = 1;
nodes = (
"229 0 LINE",
"229 674 LINE",
"75 674 LINE",
"75 0 LINE"
);
}
);
width = 304;
}
);
unicode = 0049;
},
{
color = 3;
glyphname = J;
lastChange = "2015-08-06 15:39:19 +0000";
layers = (
{
layerId = "7C6C6D54-BD7C-484C-BA4C-283093F5BAFD";
name = Light;
paths = (
{
closed = 1;
nodes = (
"199 0 OFFCURVE",
"269 34 OFFCURVE",
"269 165 CURVE",
"269 674 LINE",
"207 674 LINE",
"207 155 LINE SMOOTH",
"207 89 OFFCURVE",
"176 59 OFFCURVE",
"116 59 CURVE SMOOTH",
"85 59 OFFCURVE",
"54 70 OFFCURVE",
"30 86 CURVE",
"30 23 LINE",
"55 8 OFFCURVE",
"94 0 OFFCURVE",
"122 0 CURVE SMOOTH"
);
}
);
width = 349;
},
{
layerId = "9624E7F4-80FA-4A11-8396-8F8611ED4CD7";
name = Bold;
paths = (
{
closed = 1;
nodes = (
"260 -1 OFFCURVE",
"332 74 OFFCURVE",
"332 204 CURVE SMOOTH",
"332 673 LINE",
"178 673 LINE",
"178 208 LINE SMOOTH",
"178 155 OFFCURVE",
"152 132 OFFCURVE",
"107 132 CURVE SMOOTH",
"78 132 OFFCURVE",
"51 142 OFFCURVE",
"30 155 CURVE",
"30 19 LINE",
"55 6 OFFCURVE",
"100 -1 OFFCURVE",
"137 -1 CURVE SMOOTH"
);
}
);
width = 392;
}
);
unicode = 004A;
},
{
color = 3;
glyphname = K;
lastChange = "2015-08-06 15:39:19 +0000";
layers = (
{
layerId = "7C6C6D54-BD7C-484C-BA4C-283093F5BAFD";
name = Light;
paths = (
{
closed = 1;
nodes = (
"519 0 LINE",
"239 332 LINE",
"160 332 LINE",
"437 0 LINE"
);
},
{
closed = 1;
nodes = (
"142 0 LINE",
"142 674 LINE",
"80 674 LINE",
"80 0 LINE"
);
},
{
closed = 1;
nodes = (
"239 332 LINE",
"505 674 LINE",
"427 674 LINE",
"160 332 LINE"
);
}
);
width = 549;
},
{
layerId = "9624E7F4-80FA-4A11-8396-8F8611ED4CD7";
name = Bold;
paths = (
{
closed = 1;
nodes = (
"645 0 LINE",
"406 337 LINE",
"226 335 LINE",
"452 0 LINE"
);
},
{
closed = 1;
nodes = (
"219 0 LINE",
"219 674 LINE",
"65 674 LINE",
"65 0 LINE"
);
},
{
closed = 1;
nodes = (
"406 337 LINE",
"627 674 LINE",
"444 674 LINE",
"226 335 LINE"
);
}
);
width = 662;
}
);
unicode = 004B;
},
{
color = 3;
glyphname = Kcommaaccent;
lastChange = "2015-08-06 15:39:19 +0000";
layers = (
{
layerId = "7C6C6D54-BD7C-484C-BA4C-283093F5BAFD";
name = Light;
paths = (
{
closed = 1;
nodes = (
"519 0 LINE",
"239 332 LINE",
"160 332 LINE",
"437 0 LINE"
);
},
{
closed = 1;
nodes = (
"213 -238 LINE",
"323 -51 LINE",
"247 -51 LINE",
"159 -238 LINE"
);
},
{
closed = 1;
nodes = (
"142 0 LINE",
"142 674 LINE",
"80 674 LINE",
"80 0 LINE"
);
},
{
closed = 1;
nodes = (
"239 332 LINE",
"505 674 LINE",
"427 674 LINE",
"160 332 LINE"
);
}
);
width = 549;
},
{
layerId = "9624E7F4-80FA-4A11-8396-8F8611ED4CD7";
name = Bold;
paths = (
{
closed = 1;
nodes = (
"645 0 LINE",
"406 337 LINE",
"226 335 LINE",
"452 0 LINE"
);
},
{
closed = 1;
nodes = (
"295 -262 LINE",
"411 -51 LINE",
"260 -51 LINE",
"189 -262 LINE"
);
},
{
closed = 1;
nodes = (
"219 0 LINE",
"219 674 LINE",
"65 674 LINE",
"65 0 LINE"
);
},
{
closed = 1;
nodes = (
"406 337 LINE",
"627 674 LINE",
"444 674 LINE",
"226 335 LINE"
);
}
);
width = 662;
}
);
unicode = 0136;
},
{
color = 3;
glyphname = L;
lastChange = "2015-08-06 15:39:19 +0000";
layers = (
{
layerId = "7C6C6D54-BD7C-484C-BA4C-283093F5BAFD";
name = Light;
paths = (
{
closed = 1;
nodes = (
"142 0 LINE",
"142 674 LINE",
"80 674 LINE",
"80 0 LINE"
);
},
{
closed = 1;
nodes = (
"439 0 LINE",
"439 57 LINE",
"88 57 LINE",
"88 0 LINE"
);
}
);
width = 474;
},
{
layerId = "9624E7F4-80FA-4A11-8396-8F8611ED4CD7";
name = Bold;
paths = (
{
closed = 1;
nodes = (
"219 0 LINE",
"219 674 LINE",
"65 674 LINE",
"65 0 LINE"
);
},
{
closed = 1;
nodes = (
"468 0 LINE",
"468 135 LINE",
"123 135 LINE",
"123 0 LINE"
);
}
);
width = 488;
}
);
unicode = 004C;
},
{
color = 3;
glyphname = Lcaron;
lastChange = "2015-08-06 15:39:19 +0000";
layers = (
{
layerId = "7C6C6D54-BD7C-484C-BA4C-283093F5BAFD";
name = Light;
paths = (
{
closed = 1;
nodes = (
"142 0 LINE",
"142 674 LINE",
"80 674 LINE",
"80 0 LINE"
);
},
{
closed = 1;
nodes = (
"439 0 LINE",
"439 57 LINE",
"88 57 LINE",
"88 0 LINE"
);
},
{
closed = 1;
nodes = (
"294 515 LINE",
"404 702 LINE",
"328 702 LINE",
"240 515 LINE"
);
}
);
width = 474;
},
{
layerId = "9624E7F4-80FA-4A11-8396-8F8611ED4CD7";
name = Bold;
paths = (
{
closed = 1;
nodes = (
"219 0 LINE",
"219 674 LINE",
"65 674 LINE",
"65 0 LINE"
);
},
{
closed = 1;
nodes = (
"468 0 LINE",
"468 135 LINE",
"123 135 LINE",
"123 0 LINE"
);
},
{
closed = 1;
nodes = (
"385 488 LINE",
"501 699 LINE",
"350 699 LINE",
"279 488 LINE"
);
}
);
width = 488;
}
);
unicode = 013D;
},
{
color = 3;
glyphname = Lcommaaccent;
lastChange = "2015-08-06 15:39:19 +0000";
layers = (
{
layerId = "7C6C6D54-BD7C-484C-BA4C-283093F5BAFD";
name = Light;
paths = (
{
closed = 1;
nodes = (
"142 0 LINE",
"142 674 LINE",
"80 674 LINE",
"80 0 LINE"
);
},
{
closed = 1;
nodes = (
"193 -238 LINE",
"303 -51 LINE",
"227 -51 LINE",
"139 -238 LINE"
);
},
{
closed = 1;
nodes = (
"439 0 LINE",
"439 57 LINE",
"88 57 LINE",
"88 0 LINE"
);
}
);
width = 474;
},
{
layerId = "9624E7F4-80FA-4A11-8396-8F8611ED4CD7";
name = Bold;
paths = (
{
closed = 1;
nodes = (
"219 0 LINE",
"219 674 LINE",
"65 674 LINE",
"65 0 LINE"
);
},
{
closed = 1;
nodes = (
"245 -262 LINE",
"361 -51 LINE",
"210 -51 LINE",
"139 -262 LINE"
);
},
{
closed = 1;
nodes = (
"468 0 LINE",
"468 135 LINE",
"123 135 LINE",
"123 0 LINE"
);
}
);
width = 488;
}
);
unicode = 013B;
},
{
color = 3;
glyphname = Lslash;
lastChange = "2015-08-06 15:39:19 +0000";
layers = (
{
layerId = "7C6C6D54-BD7C-484C-BA4C-283093F5BAFD";
name = Light;
paths = (
{
closed = 1;
nodes = (
"297 410 LINE",
"297 476 LINE",
"25 274 LINE",
"25 208 LINE"
);
},
{
closed = 1;
nodes = (
"448 0 LINE",
"448 57 LINE",
"97 57 LINE",
"97 0 LINE"
);
},
{
closed = 1;
nodes = (
"151 0 LINE",
"151 674 LINE",
"89 674 LINE",
"89 0 LINE"
);
}
);
width = 483;
},
{
layerId = "9624E7F4-80FA-4A11-8396-8F8611ED4CD7";
name = Bold;
paths = (
{
closed = 1;
nodes = (
"443 383 LINE",
"443 504 LINE",
"45 281 LINE",
"45 160 LINE"
);
},
{
closed = 1;
nodes = (
"528 0 LINE",
"528 135 LINE",
"183 135 LINE",
"183 0 LINE"
);
},
{
closed = 1;
nodes = (
"279 0 LINE",
"279 674 LINE",
"125 674 LINE",
"125 0 LINE"
);
}
);
width = 563;
}
);
unicode = 0141;
},
{
color = 3;
glyphname = M;
lastChange = "2015-08-06 15:39:19 +0000";
layers = (
{
layerId = "7C6C6D54-BD7C-484C-BA4C-283093F5BAFD";
name = Light;
paths = (
{
closed = 1;
nodes = (
"137 0 LINE",
"156 267 LINE SMOOTH",
"168 435 OFFCURVE",
"177 586 OFFCURVE",
"177 586 CURVE",
"177 586 OFFCURVE",
"230 435 OFFCURVE",
"289 267 CURVE SMOOTH",
"377 17 LINE",
"450 17 LINE",
"543 267 LINE SMOOTH",
"602 426 OFFCURVE",
"662 593 OFFCURVE",
"662 593 CURVE",
"662 593 OFFCURVE",
"675 427 OFFCURVE",
"689 267 CURVE SMOOTH",
"712 0 LINE",
"774 0 LINE",
"717 674 LINE",
"632 674 LINE",
"540 427 LINE SMOOTH",
"483 274 OFFCURVE",
"414 84 OFFCURVE",
"414 84 CURVE",
"414 84 OFFCURVE",
"347 280 OFFCURVE",
"295 427 CURVE SMOOTH",
"207 674 LINE",
"122 674 LINE",
"75 0 LINE"
);
}
);
width = 848;
},
{
layerId = "9624E7F4-80FA-4A11-8396-8F8611ED4CD7";
name = Bold;
paths = (
{
closed = 1;
nodes = (
"204 0 LINE",
"225 261 LINE SMOOTH",
"230 331 OFFCURVE",
"234 400 OFFCURVE",
"234 458 CURVE SMOOTH",
"234 458 OFFCURVE",
"248 400 OFFCURVE",
"299 261 CURVE SMOOTH",
"393 7 LINE",
"484 7 LINE",
"579 261 LINE SMOOTH",
"625 383 OFFCURVE",
"651 458 OFFCURVE",
"651 458 CURVE",
"651 458 OFFCURVE",
"653 382 OFFCURVE",
"664 261 CURVE SMOOTH",
"689 0 LINE",
"843 0 LINE",
"773 674 LINE",
"604 674 LINE",
"509 430 LINE SMOOTH",
"455 292 OFFCURVE",
"439 226 OFFCURVE",
"439 226 CURVE",
"439 226 OFFCURVE",
"424 293 OFFCURVE",
"371 430 CURVE SMOOTH",
"277 674 LINE",
"108 674 LINE",
"50 0 LINE"
);
}
);
width = 893;
}
);
unicode = 004D;
},
{
color = 3;
glyphname = N;
lastChange = "2015-08-06 15:39:19 +0000";
layers = (
{
layerId = "7C6C6D54-BD7C-484C-BA4C-283093F5BAFD";
name = Light;
paths = (
{
closed = 1;
nodes = (
"142 0 LINE",
"142 285 LINE SMOOTH",
"142 493 OFFCURVE",
"140 601 OFFCURVE",
"140 601 CURVE",
"140 601 OFFCURVE",
"205 492 OFFCURVE",
"331 283 CURVE SMOOTH",
"502 0 LINE",
"587 0 LINE",
"587 674 LINE",
"525 674 LINE",
"525 388 LINE SMOOTH",
"525 177 OFFCURVE",
"527 73 OFFCURVE",
"527 73 CURVE",
"527 73 OFFCURVE",
"465 177 OFFCURVE",
"337 389 CURVE SMOOTH",
"165 674 LINE",
"80 674 LINE",
"80 0 LINE"
);
}
);
width = 667;
},
{
layerId = "9624E7F4-80FA-4A11-8396-8F8611ED4CD7";
name = Bold;
paths = (
{
closed = 1;
nodes = (
"219 0 LINE",
"219 279 LINE SMOOTH",
"219 398 OFFCURVE",
"204 488 OFFCURVE",
"204 488 CURVE",
"204 488 OFFCURVE",
"231 401 OFFCURVE",
"302 279 CURVE SMOOTH",
"463 0 LINE",
"632 0 LINE",
"632 674 LINE",
"478 674 LINE",
"478 395 LINE SMOOTH",
"478 264 OFFCURVE",
"488 190 OFFCURVE",
"488 190 CURVE",
"488 190 OFFCURVE",
"466 262 OFFCURVE",
"391 395 CURVE SMOOTH",
"234 674 LINE",
"65 674 LINE",
"65 0 LINE"
);
}
);
width = 697;
}
);
unicode = 004E;
},
{
color = 3;
glyphname = Ncommaaccent;
lastChange = "2015-08-06 15:39:19 +0000";
layers = (
{
layerId = "7C6C6D54-BD7C-484C-BA4C-283093F5BAFD";
name = Light;
paths = (
{
closed = 1;
nodes = (
"142 0 LINE",
"142 285 LINE SMOOTH",
"142 493 OFFCURVE",
"140 601 OFFCURVE",
"140 601 CURVE",
"140 601 OFFCURVE",
"205 492 OFFCURVE",
"331 283 CURVE SMOOTH",
"502 0 LINE",
"587 0 LINE",
"587 674 LINE",
"525 674 LINE",
"525 388 LINE SMOOTH",
"525 177 OFFCURVE",
"527 73 OFFCURVE",
"527 73 CURVE",
"527 73 OFFCURVE",
"465 177 OFFCURVE",
"337 389 CURVE SMOOTH",
"165 674 LINE",
"80 674 LINE",
"80 0 LINE"
);
},
{
closed = 1;
nodes = (
"274 -238 LINE",
"384 -51 LINE",
"308 -51 LINE",
"220 -238 LINE"
);
}
);
width = 667;
},
{
layerId = "9624E7F4-80FA-4A11-8396-8F8611ED4CD7";
name = Bold;
paths = (
{
closed = 1;
nodes = (
"219 0 LINE",
"219 279 LINE SMOOTH",
"219 398 OFFCURVE",
"204 488 OFFCURVE",
"204 488 CURVE",
"204 488 OFFCURVE",
"231 401 OFFCURVE",
"302 279 CURVE SMOOTH",
"463 0 LINE",
"632 0 LINE",
"632 674 LINE",
"478 674 LINE",
"478 395 LINE SMOOTH",
"478 264 OFFCURVE",
"488 190 OFFCURVE",
"488 190 CURVE",
"488 190 OFFCURVE",
"466 262 OFFCURVE",
"391 395 CURVE SMOOTH",
"234 674 LINE",
"65 674 LINE",
"65 0 LINE"
);
},
{
closed = 1;
nodes = (
"315 -262 LINE",
"431 -51 LINE",
"280 -51 LINE",
"209 -262 LINE"
);
}
);
width = 697;
}
);
unicode = 0145;
},
{
color = 3;
glyphname = O;
lastChange = "2015-08-06 15:39:19 +0000";
layers = (
{
layerId = "7C6C6D54-BD7C-484C-BA4C-283093F5BAFD";
name = Light;
paths = (
{
closed = 1;
nodes = (
"529 -8 OFFCURVE",
"641 128 OFFCURVE",
"641 340 CURVE SMOOTH",
"641 552 OFFCURVE",
"533 688 OFFCURVE",
"345 688 CURVE SMOOTH",
"164 688 OFFCURVE",
"50 552 OFFCURVE",
"50 340 CURVE SMOOTH",
"50 128 OFFCURVE",
"169 -8 OFFCURVE",
"347 -8 CURVE SMOOTH"
);
},
{
closed = 1;
nodes = (
"207 52 OFFCURVE",
"114 161 OFFCURVE",
"114 340 CURVE SMOOTH",
"114 519 OFFCURVE",
"200 628 OFFCURVE",
"345 628 CURVE SMOOTH",
"495 628 OFFCURVE",
"577 519 OFFCURVE",
"577 340 CURVE SMOOTH",
"577 161 OFFCURVE",
"495 52 OFFCURVE",
"347 52 CURVE SMOOTH"
);
}
);
width = 691;
},
{
layerId = "9624E7F4-80FA-4A11-8396-8F8611ED4CD7";
name = Bold;
paths = (
{
closed = 1;
nodes = (
"568 -7 OFFCURVE",
"696 133 OFFCURVE",
"696 339 CURVE SMOOTH",
"696 546 OFFCURVE",
"569 685 OFFCURVE",
"368 685 CURVE SMOOTH",
"168 685 OFFCURVE",
"40 545 OFFCURVE",
"40 339 CURVE",
"40 132 OFFCURVE",
"167 -7 OFFCURVE",
"368 -7 CURVE SMOOTH"
);
},
{
closed = 1;
nodes = (
"268 133 OFFCURVE",
"205 213 OFFCURVE",
"205 339 CURVE",
"205 465 OFFCURVE",
"268 545 OFFCURVE",
"368 545 CURVE SMOOTH",
"468 545 OFFCURVE",
"531 465 OFFCURVE",
"531 339 CURVE SMOOTH",
"531 213 OFFCURVE",
"468 133 OFFCURVE",
"368 133 CURVE SMOOTH"
);
}
);
width = 736;
}
);
unicode = 004F;
},
{
color = 3;
glyphname = Oslash;
lastChange = "2015-08-06 15:39:19 +0000";
layers = (
{
layerId = "7C6C6D54-BD7C-484C-BA4C-283093F5BAFD";
name = Light;
paths = (
{
closed = 1;
nodes = (
"521 -8 OFFCURVE",
"633 128 OFFCURVE",
"633 340 CURVE SMOOTH",
"633 552 OFFCURVE",
"525 688 OFFCURVE",
"337 688 CURVE SMOOTH",
"156 688 OFFCURVE",
"42 552 OFFCURVE",
"42 340 CURVE SMOOTH",
"42 128 OFFCURVE",
"161 -8 OFFCURVE",
"339 -8 CURVE SMOOTH"
);
},
{
closed = 1;
nodes = (
"199 52 OFFCURVE",
"106 161 OFFCURVE",
"106 340 CURVE SMOOTH",
"106 519 OFFCURVE",
"192 628 OFFCURVE",
"337 628 CURVE SMOOTH",
"487 628 OFFCURVE",
"569 519 OFFCURVE",
"569 340 CURVE SMOOTH",
"569 161 OFFCURVE",
"487 52 OFFCURVE",
"339 52 CURVE SMOOTH"
);
},
{
closed = 1;
nodes = (
"112 -9 LINE",
"634 688 LINE",
"562 688 LINE",
"41 -9 LINE"
);
}
);
width = 664;
},
{
layerId = "9624E7F4-80FA-4A11-8396-8F8611ED4CD7";
name = Bold;
paths = (
{
closed = 1;
nodes = (
"566 -7 OFFCURVE",
"694 133 OFFCURVE",
"694 339 CURVE SMOOTH",
"694 546 OFFCURVE",
"567 685 OFFCURVE",
"366 685 CURVE SMOOTH",
"166 685 OFFCURVE",
"38 545 OFFCURVE",
"38 339 CURVE SMOOTH",
"38 132 OFFCURVE",
"165 -7 OFFCURVE",
"366 -7 CURVE SMOOTH"
);
},
{
closed = 1;
nodes = (
"262 125 OFFCURVE",
"196 202 OFFCURVE",
"196 339 CURVE SMOOTH",
"196 470 OFFCURVE",
"262 553 OFFCURVE",
"366 553 CURVE SMOOTH",
"470 553 OFFCURVE",
"536 475 OFFCURVE",
"536 339 CURVE SMOOTH",
"536 208 OFFCURVE",
"470 125 OFFCURVE",
"366 125 CURVE SMOOTH"
);
},
{
closed = 1;
nodes = (
"185 -7 LINE",
"695 684 LINE",
"550 684 LINE",
"39 -7 LINE"
);
}
);
width = 714;
}
);
unicode = 00D8;
},
{
color = 3;
glyphname = OE;
lastChange = "2015-08-06 15:39:19 +0000";
layers = (
{
layerId = "7C6C6D54-BD7C-484C-BA4C-283093F5BAFD";
name = Light;
paths = (
{
closed = 1;
nodes = (
"524 -8 OFFCURVE",
"631 128 OFFCURVE",
"631 340 CURVE SMOOTH",
"631 552 OFFCURVE",
"528 688 OFFCURVE",
"340 688 CURVE SMOOTH",
"159 688 OFFCURVE",
"50 552 OFFCURVE",
"50 340 CURVE SMOOTH",
"50 128 OFFCURVE",
"164 -8 OFFCURVE",
"342 -8 CURVE SMOOTH"
);
},
{
closed = 1;
nodes = (
"202 52 OFFCURVE",
"114 161 OFFCURVE",
"114 340 CURVE SMOOTH",
"114 519 OFFCURVE",
"195 628 OFFCURVE",
"340 628 CURVE SMOOTH",
"490 628 OFFCURVE",
"569 519 OFFCURVE",
"569 340 CURVE SMOOTH",
"569 161 OFFCURVE",
"490 52 OFFCURVE",
"342 52 CURVE SMOOTH"
);
},
{
closed = 1;
nodes = (
"934 0 LINE",
"934 57 LINE",
"577 57 LINE",
"577 0 LINE"
);
},
{
closed = 1;
nodes = (
"631 0 LINE",
"631 674 LINE",
"569 674 LINE",
"569 0 LINE"
);
},
{
closed = 1;
nodes = (
"893 308 LINE",
"893 365 LINE",
"577 365 LINE",
"577 308 LINE"
);
},
{
closed = 1;
nodes = (
"928 617 LINE",
"928 674 LINE",
"577 674 LINE",
"577 617 LINE"
);
}
);
width = 979;
},
{
layerId = "9624E7F4-80FA-4A11-8396-8F8611ED4CD7";
name = Bold;
paths = (
{
closed = 1;
nodes = (
"533 -7 OFFCURVE",
"656 143 OFFCURVE",
"656 339 CURVE SMOOTH",
"656 536 OFFCURVE",
"534 685 OFFCURVE",
"363 685 CURVE SMOOTH",
"163 685 OFFCURVE",
"40 545 OFFCURVE",
"40 339 CURVE",
"40 132 OFFCURVE",
"162 -7 OFFCURVE",
"363 -7 CURVE SMOOTH"
);
},
{
closed = 1;
nodes = (
"263 133 OFFCURVE",
"205 213 OFFCURVE",
"205 339 CURVE",
"205 465 OFFCURVE",
"263 545 OFFCURVE",
"363 545 CURVE SMOOTH",
"463 545 OFFCURVE",
"521 465 OFFCURVE",
"521 339 CURVE SMOOTH",
"521 213 OFFCURVE",
"463 133 OFFCURVE",
"363 133 CURVE SMOOTH"
);
},
{
closed = 1;
nodes = (
"940 0 LINE",
"940 123 LINE",
"579 123 LINE",
"579 0 LINE"
);
},
{
closed = 1;
nodes = (
"666 0 LINE",
"666 674 LINE",
"521 674 LINE",
"521 0 LINE"
);
},
{
closed = 1;
nodes = (
"908 276 LINE",
"908 398 LINE",
"579 398 LINE",
"579 276 LINE"
);
},
{
closed = 1;
nodes = (
"936 551 LINE",
"936 674 LINE",
"579 674 LINE",
"579 551 LINE"
);
}
);
width = 1000;
}
);
unicode = 0152;
},
{
color = 3;
glyphname = P;
lastChange = "2015-08-06 15:39:19 +0000";
layers = (
{
layerId = "7C6C6D54-BD7C-484C-BA4C-283093F5BAFD";
name = Light;
paths = (
{
closed = 1;
nodes = (
"253 256 LINE",
"407 256 OFFCURVE",
"495 351 OFFCURVE",
"495 458 CURVE",
"495 584 OFFCURVE",
"403 674 OFFCURVE",
"242 674 CURVE SMOOTH",
"80 674 LINE",
"80 619 LINE",
"249 619 LINE SMOOTH",
"366 619 OFFCURVE",
"432 555 OFFCURVE",
"432 458 CURVE SMOOTH",
"432 377 OFFCURVE",
"369 311 OFFCURVE",
"260 311 CURVE SMOOTH",
"80 311 LINE",
"80 256 LINE"
);
},
{
closed = 1;
nodes = (
"142 0 LINE",
"142 674 LINE",
"80 674 LINE",
"80 0 LINE"
);
}
);
width = 540;
},
{
layerId = "9624E7F4-80FA-4A11-8396-8F8611ED4CD7";
name = Bold;
paths = (
{
closed = 1;
nodes = (
"297 218 LINE SMOOTH",
"430 218 OFFCURVE",
"548 295 OFFCURVE",
"548 451 CURVE SMOOTH",
"548 578 OFFCURVE",
"449 674 OFFCURVE",
"297 674 CURVE SMOOTH",
"65 674 LINE",
"65 551 LINE",
"279 551 LINE SMOOTH",
"359 551 OFFCURVE",
"392 511 OFFCURVE",
"392 451 CURVE SMOOTH",
"392 384 OFFCURVE",
"359 340 OFFCURVE",
"270 340 CURVE SMOOTH",
"65 340 LINE",
"65 218 LINE"
);
},
{
closed = 1;
nodes = (
"219 0 LINE",
"219 674 LINE",
"65 674 LINE",
"65 0 LINE"
);
}
);
width = 563;
}
);
unicode = 0050;
},
{
color = 3;
glyphname = Thorn;
lastChange = "2015-08-06 15:39:19 +0000";
layers = (
{
layerId = "7C6C6D54-BD7C-484C-BA4C-283093F5BAFD";
name = Light;
paths = (
{
closed = 1;
nodes = (
"243 128 LINE",
"407 128 OFFCURVE",
"485 223 OFFCURVE",
"485 330 CURVE SMOOTH",
"485 456 OFFCURVE",
"403 546 OFFCURVE",
"232 546 CURVE SMOOTH",
"80 546 LINE",
"80 491 LINE",
"239 491 LINE SMOOTH",
"366 491 OFFCURVE",
"422 427 OFFCURVE",
"422 330 CURVE SMOOTH",
"422 249 OFFCURVE",
"369 183 OFFCURVE",
"250 183 CURVE SMOOTH",
"80 183 LINE",
"80 128 LINE"
);
},
{
closed = 1;
nodes = (
"142 0 LINE",
"142 674 LINE",
"80 674 LINE",
"80 0 LINE"
);
}
);
width = 529;
},
{
layerId = "9624E7F4-80FA-4A11-8396-8F8611ED4CD7";
name = Bold;
paths = (
{
closed = 1;
nodes = (
"297 110 LINE",
"430 110 OFFCURVE",
"548 186 OFFCURVE",
"548 342 CURVE SMOOTH",
"548 469 OFFCURVE",
"449 564 OFFCURVE",
"297 564 CURVE SMOOTH",
"65 564 LINE",
"65 441 LINE",
"285 441 LINE SMOOTH",
"369 441 OFFCURVE",
"392 383 OFFCURVE",
"392 336 CURVE SMOOTH",
"392 279 OFFCURVE",
"360 232 OFFCURVE",
"285 232 CURVE SMOOTH",
"65 232 LINE",
"65 110 LINE"
);
},
{
closed = 1;
nodes = (
"219 0 LINE",
"219 674 LINE",
"65 674 LINE",
"65 0 LINE"
);
}
);
width = 563;
}
);
unicode = 00DE;
},
{
color = 3;
glyphname = Q;
lastChange = "2015-08-06 15:39:19 +0000";
layers = (
{
layerId = "7C6C6D54-BD7C-484C-BA4C-283093F5BAFD";
name = Light;
paths = (
{
closed = 1;
nodes = (
"529 -8 OFFCURVE",
"641 128 OFFCURVE",
"641 340 CURVE SMOOTH",
"641 552 OFFCURVE",
"533 688 OFFCURVE",
"345 688 CURVE SMOOTH",
"164 688 OFFCURVE",
"50 552 OFFCURVE",
"50 340 CURVE SMOOTH",
"50 128 OFFCURVE",
"169 -8 OFFCURVE",
"347 -8 CURVE SMOOTH"
);
},
{
closed = 1;
nodes = (
"668 -111 LINE",
"443 34 LINE",
"386 6 LINE",
"603 -139 LINE"
);
},
{
closed = 1;
nodes = (
"207 52 OFFCURVE",
"114 161 OFFCURVE",
"114 340 CURVE SMOOTH",
"114 519 OFFCURVE",
"200 628 OFFCURVE",
"345 628 CURVE SMOOTH",
"495 628 OFFCURVE",
"577 519 OFFCURVE",
"577 340 CURVE SMOOTH",
"577 161 OFFCURVE",
"495 52 OFFCURVE",
"347 52 CURVE SMOOTH"
);
}
);
width = 701;
},
{
layerId = "9624E7F4-80FA-4A11-8396-8F8611ED4CD7";
name = Bold;
paths = (
{
closed = 1;
nodes = (
"568 -7 OFFCURVE",
"696 133 OFFCURVE",
"696 339 CURVE SMOOTH",
"696 546 OFFCURVE",
"569 685 OFFCURVE",
"368 685 CURVE SMOOTH",
"168 685 OFFCURVE",
"40 545 OFFCURVE",
"40 339 CURVE SMOOTH",
"40 132 OFFCURVE",
"167 -7 OFFCURVE",
"368 -7 CURVE SMOOTH"
);
},
{
closed = 1;
nodes = (
"738 -84 LINE",
"445 80 LINE",
"287 49 LINE",
"563 -151 LINE"
);
},
{
closed = 1;
nodes = (
"268 133 OFFCURVE",
"205 213 OFFCURVE",
"205 339 CURVE SMOOTH",
"205 465 OFFCURVE",
"268 545 OFFCURVE",
"368 545 CURVE SMOOTH",
"468 545 OFFCURVE",
"531 465 OFFCURVE",
"531 339 CURVE SMOOTH",
"531 213 OFFCURVE",
"468 133 OFFCURVE",
"368 133 CURVE SMOOTH"
);
}
);
width = 741;
}
);
unicode = 0051;
},
{
color = 3;
glyphname = R;
lastChange = "2015-08-06 15:39:19 +0000";
layers = (
{
layerId = "7C6C6D54-BD7C-484C-BA4C-283093F5BAFD";
name = Light;
paths = (
{
closed = 1;
nodes = (
"244 274 LINE SMOOTH",
"391 274 OFFCURVE",
"463 357 OFFCURVE",
"467 469 CURVE",
"467 596 OFFCURVE",
"393 674 OFFCURVE",
"232 674 CURVE SMOOTH",
"80 674 LINE",
"80 619 LINE",
"239 619 LINE SMOOTH",
"353 619 OFFCURVE",
"405 568 OFFCURVE",
"405 472 CURVE SMOOTH",
"405 395 OFFCURVE",
"354 329 OFFCURVE",
"251 329 CURVE SMOOTH",
"80 329 LINE",
"80 274 LINE"
);
},
{
closed = 1;
nodes = (
"142 0 LINE",
"142 674 LINE",
"80 674 LINE",
"80 0 LINE"
);
},
{
closed = 1;
nodes = (
"506 0 LINE",
"314 306 LINE",
"244 306 LINE",
"432 0 LINE"
);
}
);
width = 531;
},
{
layerId = "9624E7F4-80FA-4A11-8396-8F8611ED4CD7";
name = Bold;
paths = (
{
closed = 1;
nodes = (
"298 234 LINE SMOOTH",
"430 234 OFFCURVE",
"548 301 OFFCURVE",
"548 458 CURVE SMOOTH",
"548 585 OFFCURVE",
"450 674 OFFCURVE",
"298 674 CURVE SMOOTH",
"65 674 LINE",
"65 549 LINE",
"295 549 LINE SMOOTH",
"354 549 OFFCURVE",
"392 515 OFFCURVE",
"392 457 CURVE SMOOTH",
"392 393 OFFCURVE",
"362 359 OFFCURVE",
"292 359 CURVE",
"65 359 LINE",
"65 234 LINE"
);
},
{
closed = 1;
nodes = (
"219 0 LINE",
"219 674 LINE",
"65 674 LINE",
"65 0 LINE"
);
},
{
closed = 1;
nodes = (
"596 0 LINE",
"381 326 LINE",
"208 326 LINE",
"412 0 LINE"
);
}
);
width = 614;
}
);
unicode = 0052;
},
{
color = 3;
glyphname = Rcommaaccent;
lastChange = "2015-08-06 15:39:19 +0000";
layers = (
{
layerId = "7C6C6D54-BD7C-484C-BA4C-283093F5BAFD";
name = Light;
paths = (
{
closed = 1;
nodes = (
"244 274 LINE SMOOTH",
"391 274 OFFCURVE",
"463 357 OFFCURVE",
"467 469 CURVE",
"467 596 OFFCURVE",
"393 674 OFFCURVE",
"232 674 CURVE SMOOTH",
"80 674 LINE",
"80 619 LINE",
"239 619 LINE SMOOTH",
"353 619 OFFCURVE",
"405 568 OFFCURVE",
"405 472 CURVE SMOOTH",
"405 395 OFFCURVE",
"354 329 OFFCURVE",
"251 329 CURVE SMOOTH",
"80 329 LINE",
"80 274 LINE"
);
},
{
closed = 1;
nodes = (
"209 -238 LINE",
"319 -51 LINE",
"243 -51 LINE",
"155 -238 LINE"
);
},
{
closed = 1;
nodes = (
"142 0 LINE",
"142 674 LINE",
"80 674 LINE",
"80 0 LINE"
);
},
{
closed = 1;
nodes = (
"506 0 LINE",
"314 306 LINE",
"244 306 LINE",
"432 0 LINE"
);
}
);
width = 531;
},
{
layerId = "9624E7F4-80FA-4A11-8396-8F8611ED4CD7";
name = Bold;
paths = (
{
closed = 1;
nodes = (
"298 234 LINE SMOOTH",
"430 234 OFFCURVE",
"548 301 OFFCURVE",
"548 458 CURVE SMOOTH",
"548 585 OFFCURVE",
"450 674 OFFCURVE",
"298 674 CURVE SMOOTH",
"65 674 LINE",
"65 549 LINE",
"295 549 LINE SMOOTH",
"354 549 OFFCURVE",
"392 515 OFFCURVE",
"392 457 CURVE SMOOTH",
"392 393 OFFCURVE",
"362 359 OFFCURVE",
"292 359 CURVE",
"65 359 LINE",
"65 234 LINE"
);
},
{
closed = 1;
nodes = (
"271 -262 LINE",
"387 -51 LINE",
"236 -51 LINE",
"165 -262 LINE"
);
},
{
closed = 1;
nodes = (
"219 0 LINE",
"219 674 LINE",
"65 674 LINE",
"65 0 LINE"
);
},
{
closed = 1;
nodes = (
"596 0 LINE",
"381 326 LINE",
"208 326 LINE",
"412 0 LINE"
);
}
);
width = 614;
}
);
unicode = 0156;
},
{
color = 3;
glyphname = S;
lastChange = "2015-08-06 15:39:19 +0000";
layers = (
{
layerId = "7C6C6D54-BD7C-484C-BA4C-283093F5BAFD";
name = Light;
paths = (
{
closed = 1;
nodes = (
"368 -7 OFFCURVE",
"462 52 OFFCURVE",
"462 174 CURVE SMOOTH",
"462 288 OFFCURVE",
"369 328 OFFCURVE",
"283 365 CURVE SMOOTH",
"207 398 OFFCURVE",
"137 428 OFFCURVE",
"137 504 CURVE SMOOTH",
"137 573 OFFCURVE",
"194 619 OFFCURVE",
"284 619 CURVE SMOOTH",
"334 619 OFFCURVE",
"392 602 OFFCURVE",
"423 581 CURVE",
"423 650 LINE",
"384 671 OFFCURVE",
"330 680 OFFCURVE",
"283 680 CURVE SMOOTH",
"173 680 OFFCURVE",
"73 619 OFFCURVE",
"73 500 CURVE SMOOTH",
"73 374 OFFCURVE",
"188 339 OFFCURVE",
"282 297 CURVE SMOOTH",
"345 269 OFFCURVE",
"399 238 OFFCURVE",
"399 173 CURVE SMOOTH",
"399 94 OFFCURVE",
"342 53 OFFCURVE",
"249 53 CURVE SMOOTH",
"182 53 OFFCURVE",
"114 76 OFFCURVE",
"75 106 CURVE",
"75 37 LINE",
"123 8 OFFCURVE",
"189 -7 OFFCURVE",
"252 -7 CURVE SMOOTH"
);
}
);
width = 527;
},
{
layerId = "9624E7F4-80FA-4A11-8396-8F8611ED4CD7";
name = Bold;
paths = (
{
closed = 1;
nodes = (
"387 -8 OFFCURVE",
"484 75 OFFCURVE",
"484 196 CURVE",
"484 319 OFFCURVE",
"390 367 OFFCURVE",
"306 404 CURVE SMOOTH",
"249 429 OFFCURVE",
"206 453 OFFCURVE",
"206 490 CURVE",
"206 522 OFFCURVE",
"232 547 OFFCURVE",
"286 547 CURVE",
"343 547 OFFCURVE",
"404 529 OFFCURVE",
"454 500 CURVE",
"454 644 LINE",
"400 669 OFFCURVE",
"336 678 OFFCURVE",
"280 678 CURVE",
"127 678 OFFCURVE",
"39 598 OFFCURVE",
"39 484 CURVE",
"39 376 OFFCURVE",
"112 326 OFFCURVE",
"183 293 CURVE SMOOTH",
"260 257 OFFCURVE",
"320 239 OFFCURVE",
"320 190 CURVE",
"320 150 OFFCURVE",
"285 123 OFFCURVE",
"239 123 CURVE",
"176 123 OFFCURVE",
"111 141 OFFCURVE",
"45 189 CURVE",
"45 34 LINE",
"95 6 OFFCURVE",
"169 -8 OFFCURVE",
"239 -8 CURVE"
);
}
);
width = 514;
}
);
unicode = 0053;
},
{
color = 3;
glyphname = Scommaaccent;
lastChange = "2015-08-06 15:39:19 +0000";
layers = (
{
layerId = "7C6C6D54-BD7C-484C-BA4C-283093F5BAFD";
name = Light;
paths = (
{
closed = 1;
nodes = (
"368 -7 OFFCURVE",
"462 52 OFFCURVE",
"462 174 CURVE SMOOTH",
"462 288 OFFCURVE",
"369 328 OFFCURVE",
"283 365 CURVE SMOOTH",
"207 398 OFFCURVE",
"137 428 OFFCURVE",
"137 504 CURVE SMOOTH",
"137 573 OFFCURVE",
"194 619 OFFCURVE",
"284 619 CURVE SMOOTH",
"334 619 OFFCURVE",
"392 602 OFFCURVE",
"423 581 CURVE",
"423 650 LINE",
"384 671 OFFCURVE",
"330 680 OFFCURVE",
"283 680 CURVE SMOOTH",
"173 680 OFFCURVE",
"73 619 OFFCURVE",
"73 500 CURVE SMOOTH",
"73 374 OFFCURVE",
"188 339 OFFCURVE",
"282 297 CURVE SMOOTH",
"345 269 OFFCURVE",
"399 238 OFFCURVE",
"399 173 CURVE SMOOTH",
"399 94 OFFCURVE",
"342 53 OFFCURVE",
"249 53 CURVE SMOOTH",
"182 53 OFFCURVE",
"114 76 OFFCURVE",
"75 106 CURVE",
"75 37 LINE",
"123 8 OFFCURVE",
"189 -7 OFFCURVE",
"252 -7 CURVE SMOOTH"
);
},
{
closed = 1;
nodes = (
"194 -238 LINE",
"304 -51 LINE",
"228 -51 LINE",
"140 -238 LINE"
);
}
);
width = 527;
},
{
layerId = "9624E7F4-80FA-4A11-8396-8F8611ED4CD7";
name = Bold;
paths = (
{
closed = 1;
nodes = (
"387 -8 OFFCURVE",
"484 75 OFFCURVE",
"484 196 CURVE",
"484 319 OFFCURVE",
"390 367 OFFCURVE",
"306 404 CURVE SMOOTH",
"249 429 OFFCURVE",
"206 453 OFFCURVE",
"206 490 CURVE",
"206 522 OFFCURVE",
"232 547 OFFCURVE",
"286 547 CURVE",
"343 547 OFFCURVE",
"404 529 OFFCURVE",
"454 500 CURVE",
"454 644 LINE",
"400 669 OFFCURVE",
"336 678 OFFCURVE",
"280 678 CURVE",
"127 678 OFFCURVE",
"39 598 OFFCURVE",
"39 484 CURVE",
"39 376 OFFCURVE",
"112 326 OFFCURVE",
"183 293 CURVE SMOOTH",
"260 257 OFFCURVE",
"320 239 OFFCURVE",
"320 190 CURVE",
"320 150 OFFCURVE",
"285 123 OFFCURVE",
"239 123 CURVE",
"176 123 OFFCURVE",
"111 141 OFFCURVE",
"45 189 CURVE",
"45 34 LINE",
"95 6 OFFCURVE",
"169 -8 OFFCURVE",
"239 -8 CURVE"
);
},
{
closed = 1;
nodes = (
"225 -262 LINE",
"341 -51 LINE",
"190 -51 LINE",
"119 -262 LINE"
);
}
);
width = 514;
}
);
unicode = 0218;
},
{
color = 3;
glyphname = T;
lastChange = "2015-08-06 15:39:19 +0000";
layers = (
{
layerId = "7C6C6D54-BD7C-484C-BA4C-283093F5BAFD";
name = Light;
paths = (
{
closed = 1;
nodes = (
"263 0 LINE",
"263 674 LINE",
"201 674 LINE",
"201 0 LINE"
);
},
{
closed = 1;
nodes = (
"450 617 LINE",
"450 674 LINE",
"15 674 LINE",
"15 617 LINE"
);
}
);
width = 465;
},
{
layerId = "9624E7F4-80FA-4A11-8396-8F8611ED4CD7";
name = Bold;
paths = (
{
closed = 1;
nodes = (
"350 0 LINE",
"350 653 LINE",
"195 653 LINE",
"195 0 LINE"
);
},
{
closed = 1;
nodes = (
"514 550 LINE",
"514 674 LINE",
"30 674 LINE",
"30 550 LINE"
);
}
);
width = 544;
}
);
unicode = 0054;
},
{
color = 3;
glyphname = Tcedilla;
lastChange = "2015-08-20 17:01:16 +0000";
layers = (
{
background = {
paths = (
{
closed = 1;
nodes = (
"154 -238 LINE",
"264 -51 LINE",
"188 -51 LINE",
"100 -238 LINE"
);
}
);
};
components = (
{
name = cedilla;
transform = "{1, 0, 0, 1, 10, 0}";
}
);
layerId = "7C6C6D54-BD7C-484C-BA4C-283093F5BAFD";
name = Light;
paths = (
{
closed = 1;
nodes = (
"263 0 LINE",
"263 674 LINE",
"201 674 LINE",
"201 0 LINE"
);
},
{
closed = 1;
nodes = (
"450 617 LINE",
"450 674 LINE",
"15 674 LINE",
"15 617 LINE"
);
}
);
width = 465;
},
{
background = {
paths = (
{
closed = 1;
nodes = (
"228 -262 LINE",
"344 -51 LINE",
"193 -51 LINE",
"122 -262 LINE"
);
}
);
};
components = (
{
name = cedilla;
transform = "{1, 0, 0, 1, 10, 0}";
}
);
layerId = "9624E7F4-80FA-4A11-8396-8F8611ED4CD7";
name = Bold;
paths = (
{
closed = 1;
nodes = (
"350 0 LINE",
"350 653 LINE",
"195 653 LINE",
"195 0 LINE"
);
},
{
closed = 1;
nodes = (
"514 550 LINE",
"514 674 LINE",
"30 674 LINE",
"30 550 LINE"
);
}
);
width = 544;
}
);
unicode = 0162;
},
{
color = 3;
glyphname = Tcommaaccent;
lastChange = "2015-08-06 15:39:19 +0000";
layers = (
{
layerId = "7C6C6D54-BD7C-484C-BA4C-283093F5BAFD";
name = Light;
paths = (
{
closed = 1;
nodes = (
"263 0 LINE",
"263 674 LINE",
"201 674 LINE",
"201 0 LINE"
);
},
{
closed = 1;
nodes = (
"157 -238 LINE",
"267 -51 LINE",
"191 -51 LINE",
"103 -238 LINE"
);
},
{
closed = 1;
nodes = (
"450 617 LINE",
"450 674 LINE",
"15 674 LINE",
"15 617 LINE"
);
}
);
width = 465;
},
{
layerId = "9624E7F4-80FA-4A11-8396-8F8611ED4CD7";
name = Bold;
paths = (
{
closed = 1;
nodes = (
"350 0 LINE",
"350 653 LINE",
"195 653 LINE",
"195 0 LINE"
);
},
{
closed = 1;
nodes = (
"231 -262 LINE",
"347 -51 LINE",
"196 -51 LINE",
"125 -262 LINE"
);
},
{
closed = 1;
nodes = (
"514 550 LINE",
"514 674 LINE",
"30 674 LINE",
"30 550 LINE"
);
}
);
width = 544;
}
);
unicode = 021A;
},
{
color = 3;
glyphname = U;
lastChange = "2015-08-06 15:39:19 +0000";
layers = (
{
layerId = "7C6C6D54-BD7C-484C-BA4C-283093F5BAFD";
name = Light;
paths = (
{
closed = 1;
nodes = (
"468 -8 OFFCURVE",
"559 79 OFFCURVE",
"559 255 CURVE SMOOTH",
"559 674 LINE",
"497 674 LINE",
"497 253 LINE",
"497 106 OFFCURVE",
"424 52 OFFCURVE",
"318 52 CURVE SMOOTH",
"217 52 OFFCURVE",
"142 107 OFFCURVE",
"142 248 CURVE SMOOTH",
"142 674 LINE",
"80 674 LINE",
"80 247 LINE SMOOTH",
"80 78 OFFCURVE",
"169 -8 OFFCURVE",
"318 -8 CURVE SMOOTH"
);
}
);
width = 639;
},
{
layerId = "9624E7F4-80FA-4A11-8396-8F8611ED4CD7";
name = Bold;
paths = (
{
closed = 1;
nodes = (
"497 -10 OFFCURVE",
"608 81 OFFCURVE",
"608 261 CURVE",
"608 674 LINE",
"454 674 LINE",
"454 260 LINE",
"454 158 OFFCURVE",
"400 130 OFFCURVE",
"334 130 CURVE SMOOTH",
"271 130 OFFCURVE",
"214 158 OFFCURVE",
"214 255 CURVE",
"214 674 LINE",
"60 674 LINE",
"60 254 LINE",
"60 81 OFFCURVE",
"174 -10 OFFCURVE",
"334 -10 CURVE SMOOTH"
);
}
);
width = 668;
}
);
unicode = 0055;
},
{
color = 3;
glyphname = V;
lastChange = "2015-08-06 15:39:19 +0000";
layers = (
{
layerId = "7C6C6D54-BD7C-484C-BA4C-283093F5BAFD";
name = Light;
paths = (
{
closed = 1;
nodes = (
"354 0 LINE",
"591 674 LINE",
"524 674 LINE",
"432 407 LINE SMOOTH",
"357 187 OFFCURVE",
"312 55 OFFCURVE",
"312 55 CURVE",
"312 55 OFFCURVE",
"269 187 OFFCURVE",
"196 407 CURVE SMOOTH",
"107 674 LINE",
"40 674 LINE",
"269 0 LINE"
);
}
);
width = 631;
},
{
layerId = "9624E7F4-80FA-4A11-8396-8F8611ED4CD7";
name = Bold;
paths = (
{
closed = 1;
nodes = (
"413 0 LINE",
"640 674 LINE",
"476 674 LINE",
"395 405 LINE SMOOTH",
"346 243 OFFCURVE",
"330 139 OFFCURVE",
"330 139 CURVE",
"330 139 OFFCURVE",
"315 243 OFFCURVE",
"266 405 CURVE SMOOTH",
"185 674 LINE",
"19 674 LINE",
"243 0 LINE"
);
}
);
width = 659;
}
);
unicode = 0056;
},
{
color = 3;
glyphname = W;
lastChange = "2015-08-06 15:39:19 +0000";
layers = (
{
layerId = "7C6C6D54-BD7C-484C-BA4C-283093F5BAFD";
name = Light;
paths = (
{
closed = 1;
nodes = (
"300 0 LINE",
"363 213 LINE SMOOTH",
"432 445 OFFCURVE",
"470 583 OFFCURVE",
"470 583 CURVE",
"470 583 OFFCURVE",
"511 445 OFFCURVE",
"584 213 CURVE SMOOTH",
"651 0 LINE",
"736 0 LINE",
"889 674 LINE",
"827 674 LINE",
"771 422 LINE SMOOTH",
"747 315 OFFCURVE",
"692 59 OFFCURVE",
"692 59 CURVE",
"692 59 OFFCURVE",
"610 326 OFFCURVE",
"580 423 CURVE SMOOTH",
"505 664 LINE",
"432 664 LINE",
"362 424 LINE SMOOTH",
"326 302 OFFCURVE",
"259 63 OFFCURVE",
"259 63 CURVE",
"259 63 OFFCURVE",
"190 339 OFFCURVE",
"168 424 CURVE SMOOTH",
"105 674 LINE",
"40 674 LINE",
"215 0 LINE"
);
}
);
width = 929;
},
{
layerId = "9624E7F4-80FA-4A11-8396-8F8611ED4CD7";
name = Bold;
paths = (
{
closed = 1;
nodes = (
"372 0 LINE",
"434 213 LINE SMOOTH",
"485 385 OFFCURVE",
"488 426 OFFCURVE",
"488 426 CURVE",
"488 426 OFFCURVE",
"493 386 OFFCURVE",
"541 213 CURVE SMOOTH",
"600 0 LINE",
"772 0 LINE",
"952 674 LINE",
"795 674 LINE",
"733 427 LINE SMOOTH",
"690 257 OFFCURVE",
"677 168 OFFCURVE",
"677 168 CURVE",
"677 168 OFFCURVE",
"658 257 OFFCURVE",
"611 426 CURVE SMOOTH",
"545 664 LINE",
"431 664 LINE",
"364 426 LINE SMOOTH",
"313 246 OFFCURVE",
"296 168 OFFCURVE",
"296 168 CURVE",
"296 168 OFFCURVE",
"287 246 OFFCURVE",
"243 426 CURVE SMOOTH",
"181 674 LINE",
"19 674 LINE",
"200 0 LINE"
);
}
);
width = 971;
}
);
unicode = 0057;
},
{
color = 3;
glyphname = X;
lastChange = "2015-08-06 15:39:19 +0000";
layers = (
{
layerId = "7C6C6D54-BD7C-484C-BA4C-283093F5BAFD";
name = Light;
paths = (
{
closed = 1;
nodes = (
"114 0 LINE",
"295 287 LINE",
"486 0 LINE",
"558 0 LINE",
"329 340 LINE",
"533 674 LINE",
"461 674 LINE",
"294 396 LINE",
"127 674 LINE",
"55 674 LINE",
"260 340 LINE",
"42 0 LINE"
);
}
);
width = 600;
},
{
layerId = "9624E7F4-80FA-4A11-8396-8F8611ED4CD7";
name = Bold;
paths = (
{
closed = 1;
nodes = (
"213 0 LINE",
"331 210 LINE",
"453 0 LINE",
"636 0 LINE",
"419 341 LINE",
"623 674 LINE",
"435 674 LINE",
"328 477 LINE",
"216 674 LINE",
"37 674 LINE",
"240 342 LINE",
"27 0 LINE"
);
}
);
width = 663;
}
);
unicode = 0058;
},
{
color = 3;
glyphname = Y;
lastChange = "2015-08-06 15:39:19 +0000";
layers = (
{
layerId = "7C6C6D54-BD7C-484C-BA4C-283093F5BAFD";
name = Light;
paths = (
{
closed = 1;
nodes = (
"320 252 LINE",
"550 674 LINE",
"479 674 LINE",
"426 575 LINE SMOOTH",
"297 334 OFFCURVE",
"289 315 OFFCURVE",
"289 315 CURVE",
"289 315 OFFCURVE",
"282 334 OFFCURVE",
"154 575 CURVE SMOOTH",
"101 674 LINE",
"30 674 LINE",
"258 252 LINE"
);
},
{
closed = 1;
nodes = (
"320 0 LINE",
"320 272 LINE",
"258 272 LINE",
"258 0 LINE"
);
}
);
width = 580;
},
{
layerId = "9624E7F4-80FA-4A11-8396-8F8611ED4CD7";
name = Bold;
paths = (
{
closed = 1;
nodes = (
"379 215 LINE",
"630 674 LINE",
"451 674 LINE",
"407 576 LINE SMOOTH",
"329 405 OFFCURVE",
"319 360 OFFCURVE",
"319 360 CURVE",
"319 360 OFFCURVE",
"305 405 OFFCURVE",
"234 576 CURVE SMOOTH",
"193 674 LINE",
"13 674 LINE",
"260 215 LINE"
);
},
{
closed = 1;
nodes = (
"397 0 LINE",
"397 252 LINE",
"243 252 LINE",
"243 0 LINE"
);
}
);
width = 643;
}
);
unicode = 0059;
},
{
color = 3;
glyphname = Z;
lastChange = "2015-08-06 15:39:19 +0000";
layers = (
{
layerId = "7C6C6D54-BD7C-484C-BA4C-283093F5BAFD";
name = Light;
paths = (
{
closed = 1;
nodes = (
"505 0 LINE",
"505 55 LINE",
"120 55 LINE",
"490 619 LINE",
"490 674 LINE",
"54 674 LINE",
"54 619 LINE",
"420 619 LINE",
"50 55 LINE",
"50 0 LINE"
);
}
);
width = 555;
},
{
layerId = "9624E7F4-80FA-4A11-8396-8F8611ED4CD7";
name = Bold;
paths = (
{
closed = 1;
nodes = (
"561 0 LINE",
"561 124 LINE",
"245 124 LINE",
"549 565 LINE",
"549 674 LINE",
"66 674 LINE",
"66 550 LINE",
"362 550 LINE",
"60 113 LINE",
"60 0 LINE"
);
}
);
width = 621;
}
);
unicode = 005A;
},
{
color = 3;
glyphname = a;
lastChange = "2015-08-06 15:39:19 +0000";
layers = (
{
layerId = "7C6C6D54-BD7C-484C-BA4C-283093F5BAFD";
name = Light;
paths = (
{
closed = 1;
nodes = (
"295 -5 OFFCURVE",
"338 33 OFFCURVE",
"355 59 CURVE",
"355 0 LINE",
"416 0 LINE",
"416 320 LINE SMOOTH",
"416 442 OFFCURVE",
"364 515 OFFCURVE",
"230 515 CURVE SMOOTH",
"180 515 OFFCURVE",
"122 501 OFFCURVE",
"87 480 CURVE",
"87 414 LINE",
"125 440 OFFCURVE",
"182 457 OFFCURVE",
"229 457 CURVE SMOOTH",
"324 457 OFFCURVE",
"355 406 OFFCURVE",
"355 320 CURVE SMOOTH",
"355 168 LINE",
"355 102 OFFCURVE",
"305 51 OFFCURVE",
"223 51 CURVE SMOOTH",
"150 51 OFFCURVE",
"115 92 OFFCURVE",
"115 145 CURVE SMOOTH",
"115 195 OFFCURVE",
"155 241 OFFCURVE",
"256 241 CURVE SMOOTH",
"367 241 LINE",
"367 297 LINE",
"256 297 LINE SMOOTH",
"134 297 OFFCURVE",
"50 242 OFFCURVE",
"50 143 CURVE SMOOTH",
"50 57 OFFCURVE",
"115 -5 OFFCURVE",
"209 -5 CURVE SMOOTH"
);
}
);
width = 486;
},
{
layerId = "9624E7F4-80FA-4A11-8396-8F8611ED4CD7";
name = Bold;
paths = (
{
closed = 1;
nodes = (
"266 -3 OFFCURVE",
"302 30 OFFCURVE",
"318 62 CURVE",
"318 0 LINE",
"461 0 LINE",
"461 325 LINE SMOOTH",
"461 456 OFFCURVE",
"390 516 OFFCURVE",
"247 516 CURVE SMOOTH",
"168 516 OFFCURVE",
"104 499 OFFCURVE",
"74 482 CURVE",
"74 351 LINE",
"112 376 OFFCURVE",
"167 397 OFFCURVE",
"226 397 CURVE SMOOTH",
"291 397 OFFCURVE",
"311 371 OFFCURVE",
"311 333 CURVE SMOOTH",
"311 171 LINE",
"311 128 OFFCURVE",
"288 100 OFFCURVE",
"246 100 CURVE SMOOTH",
"206 100 OFFCURVE",
"187 118 OFFCURVE",
"187 151 CURVE SMOOTH",
"187 184 OFFCURVE",
"214 208 OFFCURVE",
"264 208 CURVE SMOOTH",
"328 208 LINE",
"328 298 LINE",
"247 298 LINE SMOOTH",
"103 298 OFFCURVE",
"35 238 OFFCURVE",
"35 144 CURVE SMOOTH",
"35 63 OFFCURVE",
"90 -3 OFFCURVE",
"192 -3 CURVE SMOOTH"
);
}
);
width = 516;
}
);
unicode = 0061;
},
{
color = 3;
glyphname = aogonek;
lastChange = "2015-08-06 15:39:19 +0000";
layers = (
{
layerId = "7C6C6D54-BD7C-484C-BA4C-283093F5BAFD";
name = Light;
paths = (
{
closed = 1;
nodes = (
"269 -5 OFFCURVE",
"322 23 OFFCURVE",
"355 63 CURVE",
"355 0 LINE",
"416 0 LINE",
"416 320 LINE SMOOTH",
"416 442 OFFCURVE",
"364 515 OFFCURVE",
"230 515 CURVE SMOOTH",
"180 515 OFFCURVE",
"122 500 OFFCURVE",
"87 478 CURVE",
"87 415 LINE",
"125 441 OFFCURVE",
"182 457 OFFCURVE",
"229 457 CURVE SMOOTH",
"324 457 OFFCURVE",
"355 406 OFFCURVE",
"355 320 CURVE SMOOTH",
"355 160 LINE",
"355 105 OFFCURVE",
"300 54 OFFCURVE",
"223 54 CURVE SMOOTH",
"150 54 OFFCURVE",
"114 91 OFFCURVE",
"114 144 CURVE SMOOTH",
"114 208 OFFCURVE",
"169 239 OFFCURVE",
"273 239 CURVE SMOOTH",
"368 239 LINE",
"368 298 LINE",
"259 298 LINE SMOOTH",
"135 298 OFFCURVE",
"50 242 OFFCURVE",
"50 142 CURVE SMOOTH",
"50 50 OFFCURVE",
"117 -5 OFFCURVE",
"209 -5 CURVE SMOOTH"
);
},
{
closed = 1;
nodes = (
"392 -237 OFFCURVE",
"419 -232 OFFCURVE",
"439 -219 CURVE",
"439 -169 LINE",
"424 -180 OFFCURVE",
"397 -189 OFFCURVE",
"375 -189 CURVE SMOOTH",
"333 -189 OFFCURVE",
"305 -167 OFFCURVE",
"305 -124 CURVE SMOOTH",
"305 -70 OFFCURVE",
"354 -28 OFFCURVE",
"416 0 CURVE",
"390 31 LINE",
"318 7 OFFCURVE",
"249 -54 OFFCURVE",
"249 -129 CURVE SMOOTH",
"249 -190 OFFCURVE",
"292 -237 OFFCURVE",
"368 -237 CURVE SMOOTH"
);
}
);
width = 486;
},
{
layerId = "9624E7F4-80FA-4A11-8396-8F8611ED4CD7";
name = Bold;
paths = (
{
closed = 1;
nodes = (
"266 -3 OFFCURVE",
"302 30 OFFCURVE",
"318 62 CURVE",
"318 0 LINE",
"461 0 LINE",
"461 325 LINE SMOOTH",
"461 456 OFFCURVE",
"390 516 OFFCURVE",
"247 516 CURVE SMOOTH",
"168 516 OFFCURVE",
"104 499 OFFCURVE",
"74 482 CURVE",
"74 351 LINE",
"112 376 OFFCURVE",
"167 397 OFFCURVE",
"226 397 CURVE SMOOTH",
"291 397 OFFCURVE",
"311 371 OFFCURVE",
"311 333 CURVE SMOOTH",
"311 171 LINE",
"311 128 OFFCURVE",
"288 100 OFFCURVE",
"246 100 CURVE SMOOTH",
"206 100 OFFCURVE",
"187 118 OFFCURVE",
"187 151 CURVE SMOOTH",
"187 184 OFFCURVE",
"214 208 OFFCURVE",
"264 208 CURVE SMOOTH",
"328 208 LINE",
"328 298 LINE",
"247 298 LINE SMOOTH",
"103 298 OFFCURVE",
"35 238 OFFCURVE",
"35 144 CURVE SMOOTH",
"35 63 OFFCURVE",
"90 -3 OFFCURVE",
"192 -3 CURVE SMOOTH"
);
},
{
closed = 1;
nodes = (
"410 -260 OFFCURVE",
"444 -250 OFFCURVE",
"473 -235 CURVE",
"473 -134 LINE",
"450 -150 OFFCURVE",
"422 -164 OFFCURVE",
"386 -164 CURVE SMOOTH",
"359 -164 OFFCURVE",
"343 -152 OFFCURVE",
"343 -130 CURVE SMOOTH",
"343 -86 OFFCURVE",
"403 -36 OFFCURVE",
"461 0 CURVE",
"412 64 LINE",
"354 39 OFFCURVE",
"227 -31 OFFCURVE",
"227 -143 CURVE SMOOTH",
"227 -206 OFFCURVE",
"265 -260 OFFCURVE",
"364 -260 CURVE SMOOTH"
);
}
);
width = 511;
}
);
unicode = 0105;
},
{
color = 3;
glyphname = ae;
lastChange = "2015-08-06 15:39:19 +0000";
layers = (
{
layerId = "7C6C6D54-BD7C-484C-BA4C-283093F5BAFD";
name = Light;
paths = (
{
closed = 1;
nodes = (
"305 -5 OFFCURVE",
"371 38 OFFCURVE",
"397 102 CURVE",
"437 39 OFFCURVE",
"515 -5 OFFCURVE",
"608 -5 CURVE SMOOTH",
"651 -5 OFFCURVE",
"707 6 OFFCURVE",
"745 25 CURVE",
"745 87 LINE",
"709 63 OFFCURVE",
"652 53 OFFCURVE",
"611 53 CURVE SMOOTH",
"511 53 OFFCURVE",
"432 111 OFFCURVE",
"422 226 CURVE",
"778 226 LINE",
"781 241 OFFCURVE",
"782 265 OFFCURVE",
"782 275 CURVE SMOOTH",
"782 426 OFFCURVE",
"714 513 OFFCURVE",
"583 513 CURVE SMOOTH",
"507 513 OFFCURVE",
"444 481 OFFCURVE",
"404 420 CURVE",
"380 481 OFFCURVE",
"326 515 OFFCURVE",
"235 515 CURVE SMOOTH",
"185 515 OFFCURVE",
"127 500 OFFCURVE",
"92 478 CURVE",
"92 415 LINE",
"130 441 OFFCURVE",
"187 457 OFFCURVE",
"234 457 CURVE SMOOTH",
"329 457 OFFCURVE",
"360 406 OFFCURVE",
"360 320 CURVE SMOOTH",
"360 298 LINE",
"264 298 LINE SMOOTH",
"140 298 OFFCURVE",
"55 242 OFFCURVE",
"55 142 CURVE SMOOTH",
"55 50 OFFCURVE",
"122 -5 OFFCURVE",
"214 -5 CURVE SMOOTH"
);
},
{
closed = 1;
nodes = (
"155 54 OFFCURVE",
"119 91 OFFCURVE",
"119 144 CURVE SMOOTH",
"119 208 OFFCURVE",
"174 239 OFFCURVE",
"278 239 CURVE SMOOTH",
"360 239 LINE",
"360 178 LINE",
"360 101 OFFCURVE",
"299 54 OFFCURVE",
"228 54 CURVE SMOOTH"
);
},
{
closed = 1;
nodes = (
"433 403 OFFCURVE",
"503 456 OFFCURVE",
"581 456 CURVE SMOOTH",
"658 456 OFFCURVE",
"719 407 OFFCURVE",
"719 305 CURVE",
"719 282 LINE",
"422 282 LINE"
);
}
);
width = 822;
},
{
layerId = "9624E7F4-80FA-4A11-8396-8F8611ED4CD7";
name = Bold;
paths = (
{
closed = 1;
nodes = (
"323 -4 OFFCURVE",
"374 46 OFFCURVE",
"392 88 CURVE",
"432 21 OFFCURVE",
"518 -5 OFFCURVE",
"585 -5 CURVE SMOOTH",
"637 -5 OFFCURVE",
"701 6 OFFCURVE",
"737 29 CURVE",
"737 151 LINE",
"705 127 OFFCURVE",
"663 108 OFFCURVE",
"603 108 CURVE SMOOTH",
"535 108 OFFCURVE",
"482 139 OFFCURVE",
"461 196 CURVE",
"760 196 LINE",
"763 217 OFFCURVE",
"768 253 OFFCURVE",
"768 275 CURVE SMOOTH",
"768 437 OFFCURVE",
"679 512 OFFCURVE",
"548 512 CURVE SMOOTH",
"482 512 OFFCURVE",
"422 486 OFFCURVE",
"391 442 CURVE",
"370 486 OFFCURVE",
"315 516 OFFCURVE",
"242 516 CURVE SMOOTH",
"163 516 OFFCURVE",
"109 499 OFFCURVE",
"79 482 CURVE",
"79 351 LINE",
"117 376 OFFCURVE",
"172 397 OFFCURVE",
"231 397 CURVE SMOOTH",
"296 397 OFFCURVE",
"316 371 OFFCURVE",
"316 333 CURVE SMOOTH",
"316 298 LINE",
"252 298 LINE SMOOTH",
"108 298 OFFCURVE",
"40 238 OFFCURVE",
"40 144 CURVE SMOOTH",
"40 56 OFFCURVE",
"102 -4 OFFCURVE",
"218 -4 CURVE SMOOTH"
);
},
{
closed = 1;
nodes = (
"211 100 OFFCURVE",
"192 118 OFFCURVE",
"192 151 CURVE SMOOTH",
"192 184 OFFCURVE",
"219 208 OFFCURVE",
"269 208 CURVE SMOOTH",
"316 208 LINE",
"316 171 LINE",
"316 128 OFFCURVE",
"293 100 OFFCURVE",
"251 100 CURVE SMOOTH"
);
},
{
closed = 1;
nodes = (
"469 369 OFFCURVE",
"511 401 OFFCURVE",
"554 401 CURVE SMOOTH",
"610 401 OFFCURVE",
"628 361 OFFCURVE",
"632 311 CURVE",
"632 300 LINE",
"456 300 LINE"
);
}
);
width = 808;
}
);
unicode = 00E6;
},
{
color = 3;
glyphname = b;
lastChange = "2015-08-06 15:39:19 +0000";
layers = (
{
layerId = "7C6C6D54-BD7C-484C-BA4C-283093F5BAFD";
name = Light;
paths = (
{
closed = 1;
nodes = (
"141 0 LINE",
"141 707 LINE",
"80 707 LINE",
"80 0 LINE"
);
},
{
closed = 1;
nodes = (
"440 -8 OFFCURVE",
"514 113 OFFCURVE",
"514 248 CURVE SMOOTH",
"514 405 OFFCURVE",
"424 515 OFFCURVE",
"296 515 CURVE SMOOTH",
"165 515 OFFCURVE",
"95 397 OFFCURVE",
"95 256 CURVE SMOOTH",
"95 141 OFFCURVE",
"139 -8 OFFCURVE",
"298 -8 CURVE SMOOTH"
);
},
{
closed = 1;
nodes = (
"227 50 OFFCURVE",
"141 94 OFFCURVE",
"141 256 CURVE SMOOTH",
"141 414 OFFCURVE",
"236 457 OFFCURVE",
"294 457 CURVE SMOOTH",
"380 457 OFFCURVE",
"450 388 OFFCURVE",
"450 247 CURVE SMOOTH",
"450 130 OFFCURVE",
"386 50 OFFCURVE",
"300 50 CURVE SMOOTH"
);
}
);
width = 559;
},
{
layerId = "9624E7F4-80FA-4A11-8396-8F8611ED4CD7";
name = Bold;
paths = (
{
closed = 1;
nodes = (
"206 0 LINE",
"206 707 LINE",
"60 707 LINE",
"60 0 LINE"
);
},
{
closed = 1;
nodes = (
"496 -6 OFFCURVE",
"576 119 OFFCURVE",
"576 255 CURVE SMOOTH",
"576 420 OFFCURVE",
"480 513 OFFCURVE",
"357 513 CURVE SMOOTH",
"253 513 OFFCURVE",
"165 434 OFFCURVE",
"165 258 CURVE SMOOTH",
"165 66 OFFCURVE",
"257 -6 OFFCURVE",
"358 -6 CURVE SMOOTH"
);
},
{
closed = 1;
nodes = (
"252 116 OFFCURVE",
"206 171 OFFCURVE",
"206 259 CURVE SMOOTH",
"206 349 OFFCURVE",
"263 392 OFFCURVE",
"319 392 CURVE SMOOTH",
"377 392 OFFCURVE",
"428 344 OFFCURVE",
"428 252 CURVE SMOOTH",
"428 168 OFFCURVE",
"378 116 OFFCURVE",
"318 116 CURVE SMOOTH"
);
}
);
width = 611;
}
);
unicode = 0062;
},
{
color = 3;
glyphname = c;
lastChange = "2015-08-06 15:39:19 +0000";
layers = (
{
layerId = "7C6C6D54-BD7C-484C-BA4C-283093F5BAFD";
name = Light;
paths = (
{
closed = 1;
nodes = (
"343 -12 OFFCURVE",
"392 0 OFFCURVE",
"417 17 CURVE",
"417 79 LINE",
"394 62 OFFCURVE",
"352 47 OFFCURVE",
"313 47 CURVE SMOOTH",
"175 47 OFFCURVE",
"109 145 OFFCURVE",
"109 251 CURVE SMOOTH",
"109 358 OFFCURVE",
"183 457 OFFCURVE",
"312 457 CURVE SMOOTH",
"340 457 OFFCURVE",
"387 447 OFFCURVE",
"417 427 CURVE",
"417 489 LINE",
"381 509 OFFCURVE",
"335 516 OFFCURVE",
"306 516 CURVE SMOOTH",
"137 516 OFFCURVE",
"45 384 OFFCURVE",
"45 252 CURVE SMOOTH",
"45 116 OFFCURVE",
"134 -12 OFFCURVE",
"306 -12 CURVE SMOOTH"
);
}
);
width = 472;
},
{
layerId = "9624E7F4-80FA-4A11-8396-8F8611ED4CD7";
name = Bold;
paths = (
{
closed = 1;
nodes = (
"349 -8 OFFCURVE",
"400 3 OFFCURVE",
"439 24 CURVE",
"439 146 LINE",
"401 123 OFFCURVE",
"358 111 OFFCURVE",
"318 111 CURVE SMOOTH",
"239 111 OFFCURVE",
"188 163 OFFCURVE",
"183 252 CURVE",
"184 347 OFFCURVE",
"243 394 OFFCURVE",
"321 394 CURVE SMOOTH",
"361 394 OFFCURVE",
"404 383 OFFCURVE",
"439 361 CURVE",
"439 486 LINE",
"393 510 OFFCURVE",
"346 515 OFFCURVE",
"306 515 CURVE SMOOTH",
"134 515 OFFCURVE",
"37 398 OFFCURVE",
"35 252 CURVE",
"35 98 OFFCURVE",
"146 -8 OFFCURVE",
"297 -8 CURVE SMOOTH"
);
}
);
width = 469;
}
);
unicode = 0063;
},
{
color = 3;
glyphname = d;
lastChange = "2015-08-06 15:39:19 +0000";
layers = (
{
layerId = "7C6C6D54-BD7C-484C-BA4C-283093F5BAFD";
name = Light;
paths = (
{
closed = 1;
nodes = (
"420 -8 OFFCURVE",
"464 141 OFFCURVE",
"464 256 CURVE SMOOTH",
"464 397 OFFCURVE",
"394 515 OFFCURVE",
"263 515 CURVE SMOOTH",
"135 515 OFFCURVE",
"45 405 OFFCURVE",
"45 248 CURVE SMOOTH",
"45 113 OFFCURVE",
"119 -8 OFFCURVE",
"261 -8 CURVE SMOOTH"
);
},
{
closed = 1;
nodes = (
"173 50 OFFCURVE",
"109 130 OFFCURVE",
"109 247 CURVE SMOOTH",
"109 388 OFFCURVE",
"179 457 OFFCURVE",
"265 457 CURVE SMOOTH",
"323 457 OFFCURVE",
"418 414 OFFCURVE",
"418 256 CURVE SMOOTH",
"418 94 OFFCURVE",
"332 50 OFFCURVE",
"259 50 CURVE SMOOTH"
);
},
{
closed = 1;
nodes = (
"479 0 LINE",
"479 707 LINE",
"418 707 LINE",
"418 0 LINE"
);
}
);
width = 555;
},
{
layerId = "9624E7F4-80FA-4A11-8396-8F8611ED4CD7";
name = Bold;
paths = (
{
closed = 1;
nodes = (
"354 -6 OFFCURVE",
"446 66 OFFCURVE",
"446 258 CURVE SMOOTH",
"446 434 OFFCURVE",
"358 513 OFFCURVE",
"254 513 CURVE SMOOTH",
"131 513 OFFCURVE",
"35 420 OFFCURVE",
"35 255 CURVE SMOOTH",
"35 119 OFFCURVE",
"115 -6 OFFCURVE",
"253 -6 CURVE SMOOTH"
);
},
{
closed = 1;
nodes = (
"233 116 OFFCURVE",
"183 168 OFFCURVE",
"183 252 CURVE SMOOTH",
"183 344 OFFCURVE",
"234 392 OFFCURVE",
"292 392 CURVE SMOOTH",
"348 392 OFFCURVE",
"405 349 OFFCURVE",
"405 259 CURVE SMOOTH",
"405 171 OFFCURVE",
"359 116 OFFCURVE",
"293 116 CURVE SMOOTH"
);
},
{
closed = 1;
nodes = (
"551 0 LINE",
"551 707 LINE",
"405 707 LINE",
"405 0 LINE"
);
}
);
width = 611;
}
);
unicode = 0064;
},
{
color = 3;
glyphname = eth;
lastChange = "2015-08-06 15:39:19 +0000";
layers = (
{
layerId = "7C6C6D54-BD7C-484C-BA4C-283093F5BAFD";
name = Light;
paths = (
{
closed = 1;
nodes = (
"372 -9 OFFCURVE",
"461 76 OFFCURVE",
"461 264 CURVE SMOOTH",
"461 472 OFFCURVE",
"336 613 OFFCURVE",
"240 674 CURVE",
"132 674 LINE",
"235 626 OFFCURVE",
"404 488 OFFCURVE",
"404 265 CURVE SMOOTH",
"404 112 OFFCURVE",
"329 49 OFFCURVE",
"247 49 CURVE SMOOTH",
"165 49 OFFCURVE",
"103 105 OFFCURVE",
"103 202 CURVE SMOOTH",
"103 299 OFFCURVE",
"166 350 OFFCURVE",
"240 350 CURVE SMOOTH",
"323 350 OFFCURVE",
"389 298 OFFCURVE",
"420 234 CURVE",
"420 304 LINE",
"384 372 OFFCURVE",
"316 410 OFFCURVE",
"243 410 CURVE SMOOTH",
"141 410 OFFCURVE",
"39 339 OFFCURVE",
"39 202 CURVE SMOOTH",
"39 90 OFFCURVE",
"121 -9 OFFCURVE",
"247 -9 CURVE SMOOTH"
);
},
{
closed = 1;
nodes = (
"444 616 LINE",
"444 672 LINE",
"162 526 LINE",
"162 470 LINE"
);
}
);
width = 506;
},
{
layerId = "9624E7F4-80FA-4A11-8396-8F8611ED4CD7";
name = Bold;
paths = (
{
closed = 1;
nodes = (
"431 -10 OFFCURVE",
"510 116 OFFCURVE",
"510 289 CURVE SMOOTH",
"510 418 OFFCURVE",
"441 586 OFFCURVE",
"312 674 CURVE",
"128 674 LINE",
"282 574 OFFCURVE",
"366 451 OFFCURVE",
"366 289 CURVE SMOOTH",
"366 147 OFFCURVE",
"318 120 OFFCURVE",
"267 120 CURVE SMOOTH",
"215 120 OFFCURVE",
"184 151 OFFCURVE",
"184 194 CURVE SMOOTH",
"184 247 OFFCURVE",
"213 279 OFFCURVE",
"266 279 CURVE SMOOTH",
"333 279 OFFCURVE",
"372 232 OFFCURVE",
"406 176 CURVE",
"412 275 LINE",
"387 344 OFFCURVE",
"323 402 OFFCURVE",
"226 402 CURVE SMOOTH",
"114 402 OFFCURVE",
"35 323 OFFCURVE",
"35 204 CURVE SMOOTH",
"35 91 OFFCURVE",
"116 -10 OFFCURVE",
"268 -10 CURVE SMOOTH"
);
},
{
closed = 1;
nodes = (
"482 601 LINE",
"482 682 LINE",
"157 523 LINE",
"157 442 LINE"
);
}
);
width = 557;
}
);
unicode = 00F0;
},
{
color = 3;
glyphname = dcaron;
lastChange = "2015-08-06 15:39:19 +0000";
layers = (
{
layerId = "7C6C6D54-BD7C-484C-BA4C-283093F5BAFD";
name = Light;
paths = (
{
closed = 1;
nodes = (
"420 -8 OFFCURVE",
"464 141 OFFCURVE",
"464 256 CURVE SMOOTH",
"464 397 OFFCURVE",
"394 515 OFFCURVE",
"263 515 CURVE SMOOTH",
"135 515 OFFCURVE",
"45 405 OFFCURVE",
"45 248 CURVE SMOOTH",
"45 113 OFFCURVE",
"119 -8 OFFCURVE",
"261 -8 CURVE SMOOTH"
);
},
{
closed = 1;
nodes = (
"173 50 OFFCURVE",
"109 130 OFFCURVE",
"109 247 CURVE SMOOTH",
"109 388 OFFCURVE",
"179 457 OFFCURVE",
"265 457 CURVE SMOOTH",
"323 457 OFFCURVE",
"418 414 OFFCURVE",
"418 256 CURVE SMOOTH",
"418 94 OFFCURVE",
"332 50 OFFCURVE",
"259 50 CURVE SMOOTH"
);
},
{
closed = 1;
nodes = (
"479 0 LINE",
"479 707 LINE",
"418 707 LINE",
"418 0 LINE"
);
},
{
closed = 1;
nodes = (
"593 520 LINE",
"703 707 LINE",
"627 707 LINE",
"539 520 LINE"
);
}
);
width = 637;
},
{
layerId = "9624E7F4-80FA-4A11-8396-8F8611ED4CD7";
name = Bold;
paths = (
{
closed = 1;
nodes = (
"354 -6 OFFCURVE",
"446 66 OFFCURVE",
"446 258 CURVE SMOOTH",
"446 434 OFFCURVE",
"358 513 OFFCURVE",
"254 513 CURVE SMOOTH",
"131 513 OFFCURVE",
"35 420 OFFCURVE",
"35 255 CURVE SMOOTH",
"35 119 OFFCURVE",
"115 -6 OFFCURVE",
"253 -6 CURVE SMOOTH"
);
},
{
closed = 1;
nodes = (
"233 116 OFFCURVE",
"183 168 OFFCURVE",
"183 252 CURVE SMOOTH",
"183 344 OFFCURVE",
"234 392 OFFCURVE",
"292 392 CURVE SMOOTH",
"348 392 OFFCURVE",
"405 349 OFFCURVE",
"405 259 CURVE SMOOTH",
"405 171 OFFCURVE",
"359 116 OFFCURVE",
"293 116 CURVE SMOOTH"
);
},
{
closed = 1;
nodes = (
"551 0 LINE",
"551 707 LINE",
"405 707 LINE",
"405 0 LINE"
);
},
{
closed = 1;
nodes = (
"705 497 LINE",
"821 708 LINE",
"670 708 LINE",
"599 497 LINE"
);
}
);
width = 745;
}
);
unicode = 010F;
},
{
color = 3;
glyphname = dcroat;
lastChange = "2015-08-06 15:39:19 +0000";
layers = (
{
layerId = "7C6C6D54-BD7C-484C-BA4C-283093F5BAFD";
name = Light;
paths = (
{
closed = 1;
nodes = (
"420 -8 OFFCURVE",
"464 141 OFFCURVE",
"464 256 CURVE SMOOTH",
"464 397 OFFCURVE",
"394 515 OFFCURVE",
"263 515 CURVE SMOOTH",
"135 515 OFFCURVE",
"45 405 OFFCURVE",
"45 248 CURVE SMOOTH",
"45 113 OFFCURVE",
"119 -8 OFFCURVE",
"261 -8 CURVE SMOOTH"
);
},
{
closed = 1;
nodes = (
"173 50 OFFCURVE",
"109 130 OFFCURVE",
"109 247 CURVE SMOOTH",
"109 388 OFFCURVE",
"179 457 OFFCURVE",
"265 457 CURVE SMOOTH",
"323 457 OFFCURVE",
"418 414 OFFCURVE",
"418 256 CURVE SMOOTH",
"418 94 OFFCURVE",
"332 50 OFFCURVE",
"259 50 CURVE SMOOTH"
);
},
{
closed = 1;
nodes = (
"479 0 LINE",
"479 707 LINE",
"418 707 LINE",
"418 0 LINE"
);
},
{
closed = 1;
nodes = (
"554 593 LINE",
"554 641 LINE",
"213 641 LINE",
"213 593 LINE"
);
}
);
width = 555;
},
{
layerId = "9624E7F4-80FA-4A11-8396-8F8611ED4CD7";
name = Bold;
paths = (
{
closed = 1;
nodes = (
"354 -6 OFFCURVE",
"446 66 OFFCURVE",
"446 258 CURVE SMOOTH",
"446 434 OFFCURVE",
"358 513 OFFCURVE",
"254 513 CURVE SMOOTH",
"131 513 OFFCURVE",
"35 420 OFFCURVE",
"35 255 CURVE SMOOTH",
"35 119 OFFCURVE",
"115 -6 OFFCURVE",
"253 -6 CURVE SMOOTH"
);
},
{
closed = 1;
nodes = (
"233 116 OFFCURVE",
"183 168 OFFCURVE",
"183 252 CURVE SMOOTH",
"183 344 OFFCURVE",
"234 392 OFFCURVE",
"292 392 CURVE SMOOTH",
"348 392 OFFCURVE",
"405 349 OFFCURVE",
"405 259 CURVE SMOOTH",
"405 171 OFFCURVE",
"359 116 OFFCURVE",
"293 116 CURVE SMOOTH"
);
},
{
closed = 1;
nodes = (
"551 0 LINE",
"551 707 LINE",
"405 707 LINE",
"405 0 LINE"
);
},
{
closed = 1;
nodes = (
"608 564 LINE",
"608 646 LINE",
"254 646 LINE",
"254 564 LINE"
);
}
);
width = 611;
}
);
unicode = 0111;
},
{
color = 3;
glyphname = e;
lastChange = "2015-08-06 15:39:19 +0000";
layers = (
{
layerId = "7C6C6D54-BD7C-484C-BA4C-283093F5BAFD";
name = Light;
paths = (
{
closed = 1;
nodes = (
"342 -5 OFFCURVE",
"401 6 OFFCURVE",
"439 25 CURVE",
"439 87 LINE",
"403 63 OFFCURVE",
"343 53 OFFCURVE",
"302 53 CURVE SMOOTH",
"184 53 OFFCURVE",
"108 121 OFFCURVE",
"108 251 CURVE SMOOTH",
"108 387 OFFCURVE",
"177 456 OFFCURVE",
"266 456 CURVE SMOOTH",
"352 456 OFFCURVE",
"408 398 OFFCURVE",
"408 305 CURVE SMOOTH",
"408 282 LINE",
"85 282 LINE",
"85 226 LINE",
"467 226 LINE",
"470 241 OFFCURVE",
"471 270 OFFCURVE",
"471 280 CURVE SMOOTH",
"471 431 OFFCURVE",
"389 513 OFFCURVE",
"268 513 CURVE SMOOTH",
"138 513 OFFCURVE",
"45 416 OFFCURVE",
"45 251 CURVE SMOOTH",
"45 96 OFFCURVE",
"150 -5 OFFCURVE",
"299 -5 CURVE SMOOTH"
);
}
);
width = 519;
},
{
layerId = "9624E7F4-80FA-4A11-8396-8F8611ED4CD7";
name = Bold;
paths = (
{
closed = 1;
nodes = (
"350 -5 OFFCURVE",
"421 5 OFFCURVE",
"458 29 CURVE",
"458 151 LINE",
"426 127 OFFCURVE",
"384 108 OFFCURVE",
"324 108 CURVE SMOOTH",
"236 108 OFFCURVE",
"173 160 OFFCURVE",
"173 254 CURVE",
"173 356 OFFCURVE",
"224 401 OFFCURVE",
"275 401 CURVE SMOOTH",
"331 401 OFFCURVE",
"349 361 OFFCURVE",
"353 312 CURVE",
"353 300 LINE",
"127 300 LINE",
"127 196 LINE",
"481 196 LINE",
"484 217 OFFCURVE",
"489 253 OFFCURVE",
"489 275 CURVE SMOOTH",
"489 437 OFFCURVE",
"400 512 OFFCURVE",
"269 512 CURVE SMOOTH",
"143 512 OFFCURVE",
"35 422 OFFCURVE",
"35 254 CURVE SMOOTH",
"35 107 OFFCURVE",
"127 -5 OFFCURVE",
"299 -5 CURVE SMOOTH"
);
}
);
width = 533;
}
);
unicode = 0065;
},
{
color = 3;
glyphname = f;
lastChange = "2015-08-06 15:39:19 +0000";
layers = (
{
layerId = "7C6C6D54-BD7C-484C-BA4C-283093F5BAFD";
name = Light;
paths = (
{
closed = 1;
nodes = (
"184 0 LINE",
"184 560 LINE SMOOTH",
"184 627 OFFCURVE",
"221 654 OFFCURVE",
"257 654 CURVE SMOOTH",
"273 654 OFFCURVE",
"288 651 OFFCURVE",
"301 646 CURVE",
"301 706 LINE",
"290 709 OFFCURVE",
"269 712 OFFCURVE",
"260 712 CURVE SMOOTH",
"171 712 OFFCURVE",
"123 651 OFFCURVE",
"123 561 CURVE SMOOTH",
"123 0 LINE"
);
},
{
closed = 1;
nodes = (
"300 455 LINE",
"300 507 LINE",
"30 507 LINE",
"30 455 LINE"
);
}
);
width = 325;
},
{
layerId = "9624E7F4-80FA-4A11-8396-8F8611ED4CD7";
name = Bold;
paths = (
{
closed = 1;
nodes = (
"241 0 LINE",
"241 526 LINE SMOOTH",
"241 587 OFFCURVE",
"268 603 OFFCURVE",
"314 603 CURVE SMOOTH",
"330 603 OFFCURVE",
"346 600 OFFCURVE",
"366 592 CURVE",
"366 710 LINE",
"340 719 OFFCURVE",
"316 720 OFFCURVE",
"290 720 CURVE SMOOTH",
"169 720 OFFCURVE",
"96 650 OFFCURVE",
"96 526 CURVE SMOOTH",
"96 0 LINE"
);
},
{
closed = 1;
nodes = (
"336 400 LINE",
"336 507 LINE",
"30 507 LINE",
"30 400 LINE"
);
}
);
width = 346;
}
);
unicode = 0066;
},
{
color = 3;
glyphname = g;
lastChange = "2015-08-06 15:39:19 +0000";
layers = (
{
layerId = "7C6C6D54-BD7C-484C-BA4C-283093F5BAFD";
name = Light;
paths = (
{
closed = 1;
nodes = (
"370 -191 OFFCURVE",
"469 -122 OFFCURVE",
"469 39 CURVE SMOOTH",
"469 507 LINE",
"408 507 LINE",
"408 39 LINE SMOOTH",
"408 -85 OFFCURVE",
"337 -133 OFFCURVE",
"242 -133 CURVE SMOOTH",
"196 -133 OFFCURVE",
"141 -123 OFFCURVE",
"99 -102 CURVE",
"99 -162 LINE",
"141 -182 OFFCURVE",
"198 -191 OFFCURVE",
"247 -191 CURVE SMOOTH"
);
},
{
closed = 1;
nodes = (
"377 12 OFFCURVE",
"443 124 OFFCURVE",
"443 251 CURVE",
"443 256 LINE",
"442 376 OFFCURVE",
"397 515 OFFCURVE",
"250 515 CURVE SMOOTH",
"125 515 OFFCURVE",
"45 403 OFFCURVE",
"45 253 CURVE SMOOTH",
"45 98 OFFCURVE",
"145 12 OFFCURVE",
"256 12 CURVE SMOOTH"
);
},
{
closed = 1;
nodes = (
"194 70 OFFCURVE",
"109 123 OFFCURVE",
"109 256 CURVE SMOOTH",
"109 373 OFFCURVE",
"166 457 OFFCURVE",
"262 457 CURVE SMOOTH",
"325 457 OFFCURVE",
"408 404 OFFCURVE",
"408 251 CURVE SMOOTH",
"408 115 OFFCURVE",
"319 70 OFFCURVE",
"257 70 CURVE SMOOTH"
);
}
);
width = 539;
},
{
layerId = "9624E7F4-80FA-4A11-8396-8F8611ED4CD7";
name = Bold;
paths = (
{
closed = 1;
nodes = (
"410 -196 OFFCURVE",
"530 -123 OFFCURVE",
"530 49 CURVE SMOOTH",
"530 507 LINE",
"385 507 LINE",
"385 51 LINE SMOOTH",
"385 -28 OFFCURVE",
"348 -65 OFFCURVE",
"259 -65 CURVE SMOOTH",
"195 -65 OFFCURVE",
"132 -45 OFFCURVE",
"87 -9 CURVE",
"87 -158 LINE",
"146 -186 OFFCURVE",
"212 -196 OFFCURVE",
"274 -196 CURVE SMOOTH"
);
},
{
closed = 1;
nodes = (
"362 17 OFFCURVE",
"423 92 OFFCURVE",
"423 253 CURVE SMOOTH",
"423 259 LINE SMOOTH",
"423 404 OFFCURVE",
"379 512 OFFCURVE",
"252 512 CURVE SMOOTH",
"123 512 OFFCURVE",
"40 405 OFFCURVE",
"40 263 CURVE SMOOTH",
"40 89 OFFCURVE",
"144 17 OFFCURVE",
"245 17 CURVE SMOOTH"
);
},
{
closed = 1;
nodes = (
"226 133 OFFCURVE",
"192 177 OFFCURVE",
"192 262 CURVE SMOOTH",
"192 342 OFFCURVE",
"228 390 OFFCURVE",
"286 390 CURVE SMOOTH",
"345 390 OFFCURVE",
"385 352 OFFCURVE",
"385 254 CURVE SMOOTH",
"385 191 OFFCURVE",
"351 133 OFFCURVE",
"285 133 CURVE SMOOTH"
);
}
);
width = 585;
}
);
unicode = 0067;
},
{
color = 3;
glyphname = gcommaaccent;
lastChange = "2015-08-06 15:39:19 +0000";
layers = (
{
layerId = "7C6C6D54-BD7C-484C-BA4C-283093F5BAFD";
name = Light;
paths = (
{
closed = 1;
nodes = (
"370 -191 OFFCURVE",
"469 -122 OFFCURVE",
"469 39 CURVE SMOOTH",
"469 507 LINE",
"408 507 LINE",
"408 39 LINE SMOOTH",
"408 -85 OFFCURVE",
"337 -133 OFFCURVE",
"242 -133 CURVE SMOOTH",
"196 -133 OFFCURVE",
"141 -123 OFFCURVE",
"99 -102 CURVE",
"99 -162 LINE",
"141 -182 OFFCURVE",
"198 -191 OFFCURVE",
"247 -191 CURVE SMOOTH"
);
},
{
closed = 1;
nodes = (
"377 12 OFFCURVE",
"443 124 OFFCURVE",
"443 251 CURVE",
"443 256 LINE",
"442 376 OFFCURVE",
"397 515 OFFCURVE",
"250 515 CURVE SMOOTH",
"125 515 OFFCURVE",
"45 403 OFFCURVE",
"45 253 CURVE SMOOTH",
"45 98 OFFCURVE",
"145 12 OFFCURVE",
"256 12 CURVE SMOOTH"
);
},
{
closed = 1;
nodes = (
"194 70 OFFCURVE",
"109 123 OFFCURVE",
"109 256 CURVE SMOOTH",
"109 373 OFFCURVE",
"166 457 OFFCURVE",
"262 457 CURVE SMOOTH",
"325 457 OFFCURVE",
"408 404 OFFCURVE",
"408 251 CURVE SMOOTH",
"408 115 OFFCURVE",
"319 70 OFFCURVE",
"257 70 CURVE SMOOTH"
);
},
{
closed = 1;
nodes = (
"341 561 LINE",
"429 748 LINE",
"375 748 LINE",
"265 561 LINE"
);
}
);
width = 539;
},
{
layerId = "9624E7F4-80FA-4A11-8396-8F8611ED4CD7";
name = Bold;
paths = (
{
closed = 1;
nodes = (
"410 -196 OFFCURVE",
"530 -123 OFFCURVE",
"530 49 CURVE SMOOTH",
"530 507 LINE",
"385 507 LINE",
"385 51 LINE SMOOTH",
"385 -28 OFFCURVE",
"348 -65 OFFCURVE",
"259 -65 CURVE SMOOTH",
"195 -65 OFFCURVE",
"132 -45 OFFCURVE",
"87 -9 CURVE",
"87 -158 LINE",
"146 -186 OFFCURVE",
"212 -196 OFFCURVE",
"274 -196 CURVE SMOOTH"
);
},
{
closed = 1;
nodes = (
"362 17 OFFCURVE",
"423 92 OFFCURVE",
"423 253 CURVE SMOOTH",
"423 259 LINE SMOOTH",
"423 404 OFFCURVE",
"379 512 OFFCURVE",
"252 512 CURVE SMOOTH",
"123 512 OFFCURVE",
"40 405 OFFCURVE",
"40 263 CURVE SMOOTH",
"40 89 OFFCURVE",
"144 17 OFFCURVE",
"245 17 CURVE SMOOTH"
);
},
{
closed = 1;
nodes = (
"226 133 OFFCURVE",
"192 177 OFFCURVE",
"192 262 CURVE SMOOTH",
"192 342 OFFCURVE",
"228 390 OFFCURVE",
"286 390 CURVE SMOOTH",
"345 390 OFFCURVE",
"385 352 OFFCURVE",
"385 254 CURVE SMOOTH",
"385 191 OFFCURVE",
"351 133 OFFCURVE",
"285 133 CURVE SMOOTH"
);
},
{
closed = 1;
nodes = (
"400 554 LINE",
"471 765 LINE",
"365 765 LINE",
"249 554 LINE"
);
}
);
width = 585;
}
);
unicode = 0123;
},
{
color = 3;
glyphname = h;
lastChange = "2015-08-06 15:39:19 +0000";
layers = (
{
layerId = "7C6C6D54-BD7C-484C-BA4C-283093F5BAFD";
name = Light;
paths = (
{
closed = 1;
nodes = (
"459 0 LINE",
"459 354 LINE SMOOTH",
"459 448 OFFCURVE",
"397 515 OFFCURVE",
"298 515 CURVE SMOOTH",
"185 515 OFFCURVE",
"110 441 OFFCURVE",
"110 280 CURVE",
"137 280 LINE",
"137 394 OFFCURVE",
"212 456 OFFCURVE",
"289 456 CURVE SMOOTH",
"351 456 OFFCURVE",
"398 416 OFFCURVE",
"398 335 CURVE SMOOTH",
"398 0 LINE"
);
},
{
closed = 1;
nodes = (
"137 0 LINE",
"137 707 LINE",
"76 707 LINE",
"76 0 LINE"
);
}
);
width = 529;
},
{
layerId = "9624E7F4-80FA-4A11-8396-8F8611ED4CD7";
name = Bold;
paths = (
{
closed = 1;
nodes = (
"525 0 LINE",
"525 323 LINE SMOOTH",
"525 456 OFFCURVE",
"451 512 OFFCURVE",
"358 512 CURVE SMOOTH",
"237 512 OFFCURVE",
"189 430 OFFCURVE",
"186 321 CURVE",
"206 268 LINE",
"206 380 OFFCURVE",
"269 394 OFFCURVE",
"300 394 CURVE SMOOTH",
"346 394 OFFCURVE",
"379 360 OFFCURVE",
"379 300 CURVE SMOOTH",
"379 0 LINE"
);
},
{
closed = 1;
nodes = (
"206 0 LINE",
"206 707 LINE",
"60 707 LINE",
"60 0 LINE"
);
}
);
width = 580;
}
);
unicode = 0068;
},
{
color = 3;
glyphname = i;
lastChange = "2015-08-06 15:39:19 +0000";
layers = (
{
layerId = "7C6C6D54-BD7C-484C-BA4C-283093F5BAFD";
name = Light;
paths = (
{
closed = 1;
nodes = (
"141 0 LINE",
"141 507 LINE",
"80 507 LINE",
"80 0 LINE"
);
},
{
closed = 1;
nodes = (
"134 627 OFFCURVE",
"153 645 OFFCURVE",
"153 669 CURVE SMOOTH",
"153 693 OFFCURVE",
"134 712 OFFCURVE",
"110 712 CURVE SMOOTH",
"86 712 OFFCURVE",
"68 693 OFFCURVE",
"68 669 CURVE SMOOTH",
"68 645 OFFCURVE",
"86 627 OFFCURVE",
"110 627 CURVE SMOOTH"
);
}
);
width = 221;
},
{
layerId = "9624E7F4-80FA-4A11-8396-8F8611ED4CD7";
name = Bold;
paths = (
{
closed = 1;
nodes = (
"211 0 LINE",
"211 507 LINE",
"65 507 LINE",
"65 0 LINE"
);
},
{
closed = 1;
nodes = (
"185 569 OFFCURVE",
"223 607 OFFCURVE",
"223 654 CURVE SMOOTH",
"223 701 OFFCURVE",
"185 739 OFFCURVE",
"138 739 CURVE SMOOTH",
"91 739 OFFCURVE",
"53 701 OFFCURVE",
"53 654 CURVE SMOOTH",
"53 607 OFFCURVE",
"91 569 OFFCURVE",
"138 569 CURVE SMOOTH"
);
}
);
width = 276;
}
);
unicode = 0069;
},
{
color = 3;
glyphname = dotlessi;
lastChange = "2015-08-06 15:39:19 +0000";
layers = (
{
layerId = "7C6C6D54-BD7C-484C-BA4C-283093F5BAFD";
name = Light;
paths = (
{
closed = 1;
nodes = (
"141 0 LINE",
"141 507 LINE",
"80 507 LINE",
"80 0 LINE"
);
}
);
width = 221;
},
{
layerId = "9624E7F4-80FA-4A11-8396-8F8611ED4CD7";
name = Bold;
paths = (
{
closed = 1;
nodes = (
"211 0 LINE",
"211 507 LINE",
"65 507 LINE",
"65 0 LINE"
);
}
);
width = 276;
}
);
unicode = 0131;
},
{
color = 3;
glyphname = iacute;
lastChange = "2015-08-06 15:39:19 +0000";
layers = (
{
components = (
{
name = acute;
transform = "{1, 0, 0, 1, -21, -86}";
}
);
layerId = "7C6C6D54-BD7C-484C-BA4C-283093F5BAFD";
name = Light;
paths = (
{
closed = 1;
nodes = (
"141 0 LINE",
"141 507 LINE",
"80 507 LINE",
"80 0 LINE"
);
}
);
width = 221;
},
{
components = (
{
name = acute;
transform = "{1, 0, 0, 1, -49, -67}";
}
);
layerId = "9624E7F4-80FA-4A11-8396-8F8611ED4CD7";
name = Bold;
paths = (
{
closed = 1;
nodes = (
"211 0 LINE",
"211 507 LINE",
"65 507 LINE",
"65 0 LINE"
);
}
);
width = 276;
}
);
unicode = 00ED;
},
{
color = 3;
glyphname = icircumflex;
lastChange = "2015-08-06 15:39:19 +0000";
layers = (
{
components = (
{
name = circumflex;
transform = "{1, 0, 0, 1, -88, -86}";
}
);
layerId = "7C6C6D54-BD7C-484C-BA4C-283093F5BAFD";
name = Light;
paths = (
{
closed = 1;
nodes = (
"141 0 LINE",
"141 507 LINE",
"80 507 LINE",
"80 0 LINE"
);
}
);
width = 221;
},
{
components = (
{
name = circumflex;
transform = "{1, 0, 0, 1, -111, -67}";
}
);
layerId = "9624E7F4-80FA-4A11-8396-8F8611ED4CD7";
name = Bold;
paths = (
{
closed = 1;
nodes = (
"211 0 LINE",
"211 507 LINE",
"65 507 LINE",
"65 0 LINE"
);
}
);
width = 276;
}
);
unicode = 00EE;
},
{
color = 3;
glyphname = idieresis;
lastChange = "2015-08-06 15:39:19 +0000";
layers = (
{
components = (
{
name = dieresis;
transform = "{1, 0, 0, 1, -89, -87}";
}
);
layerId = "7C6C6D54-BD7C-484C-BA4C-283093F5BAFD";
name = Light;
paths = (
{
closed = 1;
nodes = (
"141 0 LINE",
"141 507 LINE",
"80 507 LINE",
"80 0 LINE"
);
}
);
width = 221;
},
{
components = (
{
name = dieresis;
transform = "{1, 0, 0, 1, -111, -67}";
}
);
layerId = "9624E7F4-80FA-4A11-8396-8F8611ED4CD7";
name = Bold;
paths = (
{
closed = 1;
nodes = (
"211 0 LINE",
"211 507 LINE",
"65 507 LINE",
"65 0 LINE"
);
}
);
width = 276;
}
);
unicode = 00EF;
},
{
color = 3;
glyphname = igrave;
lastChange = "2015-08-06 15:39:19 +0000";
layers = (
{
components = (
{
name = grave;
transform = "{1, 0, 0, 1, -159, -87}";
}
);
layerId = "7C6C6D54-BD7C-484C-BA4C-283093F5BAFD";
name = Light;
paths = (
{
closed = 1;
nodes = (
"141 0 LINE",
"141 507 LINE",
"80 507 LINE",
"80 0 LINE"
);
}
);
width = 221;
},
{
components = (
{
name = grave;
transform = "{1, 0, 0, 1, -177, -67}";
}
);
layerId = "9624E7F4-80FA-4A11-8396-8F8611ED4CD7";
name = Bold;
paths = (
{
closed = 1;
nodes = (
"211 0 LINE",
"211 507 LINE",
"65 507 LINE",
"65 0 LINE"
);
}
);
width = 276;
}
);
unicode = 00EC;
},
{
color = 3;
glyphname = imacron;
lastChange = "2015-08-06 15:39:19 +0000";
layers = (
{
components = (
{
name = macron;
transform = "{1, 0, 0, 1, -88, -90}";
}
);
layerId = "7C6C6D54-BD7C-484C-BA4C-283093F5BAFD";
name = Light;
paths = (
{
closed = 1;
nodes = (
"141 0 LINE",
"141 507 LINE",
"80 507 LINE",
"80 0 LINE"
);
}
);
width = 221;
},
{
components = (
{
name = macron;
transform = "{1, 0, 0, 1, -112, -58}";
}
);
layerId = "9624E7F4-80FA-4A11-8396-8F8611ED4CD7";
name = Bold;
paths = (
{
closed = 1;
nodes = (
"211 0 LINE",
"211 507 LINE",
"65 507 LINE",
"65 0 LINE"
);
}
);
width = 276;
}
);
unicode = 012B;
},
{
color = 3;
glyphname = j;
lastChange = "2015-08-06 15:39:19 +0000";
layers = (
{
layerId = "7C6C6D54-BD7C-484C-BA4C-283093F5BAFD";
name = Light;
paths = (
{
closed = 1;
nodes = (
"96 -194 OFFCURVE",
"141 -148 OFFCURVE",
"141 -64 CURVE SMOOTH",
"141 507 LINE",
"80 507 LINE",
"80 -62 LINE SMOOTH",
"80 -116 OFFCURVE",
"58 -136 OFFCURVE",
"23 -136 CURVE SMOOTH",
"1 -136 OFFCURVE",
"-23 -131 OFFCURVE",
"-47 -120 CURVE",
"-47 -180 LINE",
"-24 -189 OFFCURVE",
"-5 -194 OFFCURVE",
"22 -194 CURVE SMOOTH"
);
},
{
closed = 1;
nodes = (
"133 627 OFFCURVE",
"152 645 OFFCURVE",
"152 669 CURVE SMOOTH",
"152 693 OFFCURVE",
"133 712 OFFCURVE",
"109 712 CURVE SMOOTH",
"85 712 OFFCURVE",
"67 693 OFFCURVE",
"67 669 CURVE SMOOTH",
"67 645 OFFCURVE",
"85 627 OFFCURVE",
"109 627 CURVE SMOOTH"
);
}
);
width = 216;
},
{
layerId = "9624E7F4-80FA-4A11-8396-8F8611ED4CD7";
name = Bold;
paths = (
{
closed = 1;
nodes = (
"155 -198 OFFCURVE",
"214 -125 OFFCURVE",
"214 -21 CURVE SMOOTH",
"214 507 LINE",
"69 507 LINE",
"69 -19 LINE",
"69 -68 OFFCURVE",
"47 -86 OFFCURVE",
"17 -86 CURVE SMOOTH",
"0 -86 OFFCURVE",
"-20 -80 OFFCURVE",
"-40 -71 CURVE",
"-40 -182 LINE",
"-7 -194 OFFCURVE",
"16 -198 OFFCURVE",
"39 -198 CURVE SMOOTH"
);
},
{
closed = 1;
nodes = (
"188 569 OFFCURVE",
"226 607 OFFCURVE",
"226 654 CURVE SMOOTH",
"226 701 OFFCURVE",
"188 739 OFFCURVE",
"141 739 CURVE SMOOTH",
"94 739 OFFCURVE",
"56 701 OFFCURVE",
"56 654 CURVE SMOOTH",
"56 607 OFFCURVE",
"94 569 OFFCURVE",
"141 569 CURVE SMOOTH"
);
}
);
width = 274;
}
);
unicode = 006A;
},
{
color = 3;
glyphname = k;
lastChange = "2015-08-06 15:41:04 +0000";
layers = (
{
layerId = "7C6C6D54-BD7C-484C-BA4C-283093F5BAFD";
name = Light;
paths = (
{
closed = 1;
nodes = (
"137 0 LINE",
"137 707 LINE",
"76 707 LINE",
"76 0 LINE"
);
},
{
closed = 1;
nodes = (
"226 266 LINE",
"433 507 LINE",
"358 507 LINE",
"152 266 LINE"
);
},
{
closed = 1;
nodes = (
"440 0 LINE",
"226 266 LINE",
"152 266 LINE",
"364 0 LINE"
);
}
);
width = 462;
},
{
layerId = "9624E7F4-80FA-4A11-8396-8F8611ED4CD7";
name = Bold;
paths = (
{
closed = 1;
nodes = (
"206 0 LINE",
"206 690 LINE",
"60 690 LINE",
"60 0 LINE"
);
},
{
closed = 1;
nodes = (
"358 264 LINE",
"534 507 LINE",
"366 507 LINE",
"195 264 LINE"
);
},
{
closed = 1;
nodes = (
"537 0 LINE",
"358 264 LINE",
"196 264 LINE",
"368 0 LINE"
);
}
);
width = 548;
}
);
unicode = 006B;
},
{
color = 3;
glyphname = kcommaaccent;
lastChange = "2015-08-06 15:42:06 +0000";
layers = (
{
layerId = "7C6C6D54-BD7C-484C-BA4C-283093F5BAFD";
name = Light;
paths = (
{
closed = 1;
nodes = (
"137 0 LINE",
"137 707 LINE",
"76 707 LINE",
"76 0 LINE"
);
},
{
closed = 1;
nodes = (
"226 266 LINE",
"433 507 LINE",
"358 507 LINE",
"152 266 LINE"
);
},
{
closed = 1;
nodes = (
"440 0 LINE",
"226 266 LINE",
"152 266 LINE",
"364 0 LINE"
);
},
{
closed = 1;
nodes = (
"163 -238 LINE",
"273 -51 LINE",
"197 -51 LINE",
"109 -238 LINE"
);
}
);
width = 462;
},
{
layerId = "9624E7F4-80FA-4A11-8396-8F8611ED4CD7";
name = Bold;
paths = (
{
closed = 1;
nodes = (
"206 0 LINE",
"206 690 LINE",
"60 690 LINE",
"60 0 LINE"
);
},
{
closed = 1;
nodes = (
"358 264 LINE",
"534 507 LINE",
"366 507 LINE",
"195 264 LINE"
);
},
{
closed = 1;
nodes = (
"537 0 LINE",
"358 264 LINE",
"196 264 LINE",
"368 0 LINE"
);
},
{
closed = 1;
nodes = (
"254 -262 LINE",
"370 -51 LINE",
"219 -51 LINE",
"148 -262 LINE"
);
}
);
width = 548;
}
);
unicode = 0137;
},
{
color = 3;
glyphname = l;
lastChange = "2015-08-06 15:39:19 +0000";
layers = (
{
layerId = "7C6C6D54-BD7C-484C-BA4C-283093F5BAFD";
name = Light;
paths = (
{
closed = 1;
nodes = (
"141 0 LINE",
"141 707 LINE",
"80 707 LINE",
"80 0 LINE"
);
}
);
width = 221;
},
{
layerId = "9624E7F4-80FA-4A11-8396-8F8611ED4CD7";
name = Bold;
paths = (
{
closed = 1;
nodes = (
"211 0 LINE",
"211 707 LINE",
"65 707 LINE",
"65 0 LINE"
);
}
);
width = 276;
}
);
unicode = 006C;
},
{
color = 3;
glyphname = lcaron;
lastChange = "2015-08-06 15:39:19 +0000";
layers = (
{
layerId = "7C6C6D54-BD7C-484C-BA4C-283093F5BAFD";
name = Light;
paths = (
{
closed = 1;
nodes = (
"141 0 LINE",
"141 707 LINE",
"80 707 LINE",
"80 0 LINE"
);
},
{
closed = 1;
nodes = (
"265 520 LINE",
"375 707 LINE",
"299 707 LINE",
"211 520 LINE"
);
}
);
width = 254;
},
{
layerId = "9624E7F4-80FA-4A11-8396-8F8611ED4CD7";
name = Bold;
paths = (
{
closed = 1;
nodes = (
"211 0 LINE",
"211 707 LINE",
"65 707 LINE",
"65 0 LINE"
);
},
{
closed = 1;
nodes = (
"375 498 LINE",
"491 709 LINE",
"340 709 LINE",
"269 498 LINE"
);
}
);
width = 276;
}
);
unicode = 013E;
},
{
color = 3;
glyphname = lcommaaccent;
lastChange = "2015-08-06 15:39:19 +0000";
layers = (
{
layerId = "7C6C6D54-BD7C-484C-BA4C-283093F5BAFD";
name = Light;
paths = (
{
closed = 1;
nodes = (
"141 0 LINE",
"141 707 LINE",
"80 707 LINE",
"80 0 LINE"
);
},
{
closed = 1;
nodes = (
"40 -238 LINE",
"150 -51 LINE",
"74 -51 LINE",
"-14 -238 LINE"
);
}
);
width = 221;
},
{
layerId = "9624E7F4-80FA-4A11-8396-8F8611ED4CD7";
name = Bold;
paths = (
{
closed = 1;
nodes = (
"211 0 LINE",
"211 707 LINE",
"65 707 LINE",
"65 0 LINE"
);
},
{
closed = 1;
nodes = (
"95 -262 LINE",
"211 -51 LINE",
"60 -51 LINE",
"-11 -262 LINE"
);
}
);
width = 276;
}
);
unicode = 013C;
},
{
color = 3;
glyphname = lslash;
lastChange = "2015-08-06 15:42:17 +0000";
layers = (
{
layerId = "7C6C6D54-BD7C-484C-BA4C-283093F5BAFD";
name = Light;
paths = (
{
closed = 1;
nodes = (
"162 0 LINE",
"162 707 LINE",
"101 707 LINE",
"101 0 LINE"
);
},
{
closed = 1;
nodes = (
"243 417 LINE",
"243 483 LINE",
"35 334 LINE",
"35 268 LINE"
);
}
);
width = 278;
},
{
layerId = "9624E7F4-80FA-4A11-8396-8F8611ED4CD7";
name = Bold;
paths = (
{
closed = 1;
nodes = (
"248 0 LINE",
"248 707 LINE",
"102 707 LINE",
"102 0 LINE"
);
},
{
closed = 1;
nodes = (
"331 419 LINE",
"331 540 LINE",
"25 331 LINE",
"25 210 LINE"
);
}
);
width = 341;
}
);
unicode = 0142;
},
{
color = 3;
glyphname = m;
lastChange = "2015-08-06 15:39:19 +0000";
layers = (
{
layerId = "7C6C6D54-BD7C-484C-BA4C-283093F5BAFD";
name = Light;
paths = (
{
closed = 1;
nodes = (
"737 0 LINE",
"737 354 LINE SMOOTH",
"737 444 OFFCURVE",
"692 515 OFFCURVE",
"579 515 CURVE SMOOTH",
"485 515 OFFCURVE",
"403 440 OFFCURVE",
"403 280 CURVE",
"437 280 LINE",
"437 394 OFFCURVE",
"507 456 OFFCURVE",
"570 456 CURVE SMOOTH",
"643 456 OFFCURVE",
"676 414 OFFCURVE",
"676 335 CURVE SMOOTH",
"676 0 LINE"
);
},
{
closed = 1;
nodes = (
"137 0 LINE",
"137 507 LINE",
"76 507 LINE",
"76 0 LINE"
);
},
{
closed = 1;
nodes = (
"437 0 LINE",
"437 354 LINE SMOOTH",
"437 447 OFFCURVE",
"392 515 OFFCURVE",
"279 515 CURVE SMOOTH",
"180 515 OFFCURVE",
"110 441 OFFCURVE",
"110 280 CURVE",
"137 280 LINE",
"137 394 OFFCURVE",
"207 456 OFFCURVE",
"270 456 CURVE SMOOTH",
"343 456 OFFCURVE",
"376 414 OFFCURVE",
"376 335 CURVE SMOOTH",
"376 0 LINE"
);
}
);
width = 807;
},
{
layerId = "9624E7F4-80FA-4A11-8396-8F8611ED4CD7";
name = Bold;
paths = (
{
closed = 1;
nodes = (
"804 0 LINE",
"804 325 LINE SMOOTH",
"804 450 OFFCURVE",
"740 512 OFFCURVE",
"642 512 CURVE SMOOTH",
"541 512 OFFCURVE",
"472 440 OFFCURVE",
"479 334 CURVE",
"505 268 LINE",
"505 374 OFFCURVE",
"558 394 OFFCURVE",
"592 394 CURVE SMOOTH",
"635 394 OFFCURVE",
"658 358 OFFCURVE",
"658 301 CURVE SMOOTH",
"658 0 LINE"
);
},
{
closed = 1;
nodes = (
"206 0 LINE",
"206 507 LINE",
"60 507 LINE",
"60 0 LINE"
);
},
{
closed = 1;
nodes = (
"505 0 LINE",
"505 325 LINE SMOOTH",
"505 448 OFFCURVE",
"445 512 OFFCURVE",
"349 512 CURVE SMOOTH",
"244 512 OFFCURVE",
"179 431 OFFCURVE",
"186 321 CURVE",
"206 268 LINE",
"206 374 OFFCURVE",
"259 394 OFFCURVE",
"293 394 CURVE SMOOTH",
"336 394 OFFCURVE",
"359 358 OFFCURVE",
"359 301 CURVE SMOOTH",
"359 0 LINE"
);
}
);
width = 859;
}
);
unicode = 006D;
},
{
color = 3;
glyphname = n;
lastChange = "2015-08-06 15:39:19 +0000";
layers = (
{
layerId = "7C6C6D54-BD7C-484C-BA4C-283093F5BAFD";
name = Light;
paths = (
{
closed = 1;
nodes = (
"459 0 LINE",
"459 354 LINE SMOOTH",
"459 448 OFFCURVE",
"397 515 OFFCURVE",
"298 515 CURVE SMOOTH",
"190 515 OFFCURVE",
"116 447 OFFCURVE",
"110 299 CURVE",
"110 280 LINE",
"137 280 LINE",
"137 394 OFFCURVE",
"212 456 OFFCURVE",
"289 456 CURVE SMOOTH",
"351 456 OFFCURVE",
"398 416 OFFCURVE",
"398 335 CURVE SMOOTH",
"398 0 LINE"
);
},
{
closed = 1;
nodes = (
"137 0 LINE",
"137 507 LINE",
"76 507 LINE",
"76 0 LINE"
);
}
);
width = 529;
},
{
layerId = "9624E7F4-80FA-4A11-8396-8F8611ED4CD7";
name = Bold;
paths = (
{
closed = 1;
nodes = (
"525 0 LINE",
"525 329 LINE SMOOTH",
"525 451 OFFCURVE",
"460 512 OFFCURVE",
"359 512 CURVE SMOOTH",
"251 512 OFFCURVE",
"189 437 OFFCURVE",
"189 339 CURVE",
"189 268 LINE",
"206 268 LINE",
"206 356 OFFCURVE",
"249 394 OFFCURVE",
"299 394 CURVE SMOOTH",
"348 394 OFFCURVE",
"379 364 OFFCURVE",
"379 302 CURVE SMOOTH",
"379 0 LINE"
);
},
{
closed = 1;
nodes = (
"206 0 LINE",
"206 507 LINE",
"60 507 LINE",
"60 0 LINE"
);
}
);
width = 580;
}
);
unicode = 006E;
},
{
color = 3;
glyphname = ncommaaccent;
lastChange = "2015-08-06 15:39:19 +0000";
layers = (
{
layerId = "7C6C6D54-BD7C-484C-BA4C-283093F5BAFD";
name = Light;
paths = (
{
closed = 1;
nodes = (
"459 0 LINE",
"459 354 LINE SMOOTH",
"459 448 OFFCURVE",
"397 515 OFFCURVE",
"298 515 CURVE SMOOTH",
"190 515 OFFCURVE",
"116 447 OFFCURVE",
"110 299 CURVE",
"110 280 LINE",
"137 280 LINE",
"137 394 OFFCURVE",
"212 456 OFFCURVE",
"289 456 CURVE SMOOTH",
"351 456 OFFCURVE",
"398 416 OFFCURVE",
"398 335 CURVE SMOOTH",
"398 0 LINE"
);
},
{
closed = 1;
nodes = (
"203 -238 LINE",
"313 -51 LINE",
"237 -51 LINE",
"149 -238 LINE"
);
},
{
closed = 1;
nodes = (
"137 0 LINE",
"137 507 LINE",
"76 507 LINE",
"76 0 LINE"
);
}
);
width = 529;
},
{
layerId = "9624E7F4-80FA-4A11-8396-8F8611ED4CD7";
name = Bold;
paths = (
{
closed = 1;
nodes = (
"525 0 LINE",
"525 329 LINE SMOOTH",
"525 451 OFFCURVE",
"460 512 OFFCURVE",
"359 512 CURVE SMOOTH",
"251 512 OFFCURVE",
"189 437 OFFCURVE",
"189 339 CURVE",
"189 268 LINE",
"206 268 LINE",
"206 356 OFFCURVE",
"249 394 OFFCURVE",
"299 394 CURVE SMOOTH",
"348 394 OFFCURVE",
"379 364 OFFCURVE",
"379 302 CURVE SMOOTH",
"379 0 LINE"
);
},
{
closed = 1;
nodes = (
"255 -262 LINE",
"371 -51 LINE",
"220 -51 LINE",
"149 -262 LINE"
);
},
{
closed = 1;
nodes = (
"206 0 LINE",
"206 507 LINE",
"60 507 LINE",
"60 0 LINE"
);
}
);
width = 580;
}
);
unicode = 0146;
},
{
color = 3;
glyphname = o;
lastChange = "2015-08-06 15:39:19 +0000";
layers = (
{
layerId = "7C6C6D54-BD7C-484C-BA4C-283093F5BAFD";
name = Light;
paths = (
{
closed = 1;
nodes = (
"430 -9 OFFCURVE",
"516 106 OFFCURVE",
"516 251 CURVE SMOOTH",
"516 396 OFFCURVE",
"435 514 OFFCURVE",
"278 514 CURVE SMOOTH",
"138 514 OFFCURVE",
"45 396 OFFCURVE",
"45 251 CURVE SMOOTH",
"45 106 OFFCURVE",
"132 -9 OFFCURVE",
"278 -9 CURVE SMOOTH"
);
},
{
closed = 1;
nodes = (
"174 49 OFFCURVE",
"109 144 OFFCURVE",
"109 251 CURVE SMOOTH",
"109 358 OFFCURVE",
"168 456 OFFCURVE",
"278 456 CURVE SMOOTH",
"403 456 OFFCURVE",
"452 358 OFFCURVE",
"452 251 CURVE SMOOTH",
"452 144 OFFCURVE",
"394 49 OFFCURVE",
"278 49 CURVE SMOOTH"
);
}
);
width = 561;
},
{
layerId = "9624E7F4-80FA-4A11-8396-8F8611ED4CD7";
name = Bold;
paths = (
{
closed = 1;
nodes = (
"445 -8 OFFCURVE",
"532 108 OFFCURVE",
"532 256 CURVE SMOOTH",
"532 400 OFFCURVE",
"448 515 OFFCURVE",
"284 515 CURVE SMOOTH",
"130 515 OFFCURVE",
"35 400 OFFCURVE",
"35 247 CURVE SMOOTH",
"35 105 OFFCURVE",
"119 -8 OFFCURVE",
"284 -8 CURVE SMOOTH"
);
},
{
closed = 1;
nodes = (
"217 105 OFFCURVE",
"187 172 OFFCURVE",
"187 253 CURVE SMOOTH",
"187 334 OFFCURVE",
"216 400 OFFCURVE",
"283 400 CURVE SMOOTH",
"356 400 OFFCURVE",
"380 332 OFFCURVE",
"380 251 CURVE SMOOTH",
"380 170 OFFCURVE",
"353 105 OFFCURVE",
"285 105 CURVE SMOOTH"
);
}
);
width = 567;
}
);
unicode = 006F;
},
{
color = 3;
glyphname = oslash;
lastChange = "2015-08-06 15:39:19 +0000";
layers = (
{
layerId = "7C6C6D54-BD7C-484C-BA4C-283093F5BAFD";
name = Light;
paths = (
{
closed = 1;
nodes = (
"447 -9 OFFCURVE",
"533 106 OFFCURVE",
"533 251 CURVE SMOOTH",
"533 396 OFFCURVE",
"452 514 OFFCURVE",
"295 514 CURVE SMOOTH",
"155 514 OFFCURVE",
"62 396 OFFCURVE",
"62 251 CURVE SMOOTH",
"62 106 OFFCURVE",
"149 -9 OFFCURVE",
"295 -9 CURVE SMOOTH"
);
},
{
closed = 1;
nodes = (
"189 46 OFFCURVE",
"123 142 OFFCURVE",
"123 251 CURVE SMOOTH",
"123 360 OFFCURVE",
"183 459 OFFCURVE",
"295 459 CURVE SMOOTH",
"422 459 OFFCURVE",
"472 360 OFFCURVE",
"472 251 CURVE SMOOTH",
"472 142 OFFCURVE",
"413 46 OFFCURVE",
"295 46 CURVE SMOOTH"
);
},
{
closed = 1;
nodes = (
"133 -9 LINE",
"533 514 LINE",
"461 514 LINE",
"62 -9 LINE"
);
}
);
width = 563;
},
{
layerId = "9624E7F4-80FA-4A11-8396-8F8611ED4CD7";
name = Bold;
paths = (
{
closed = 1;
nodes = (
"445 -8 OFFCURVE",
"532 108 OFFCURVE",
"532 256 CURVE SMOOTH",
"532 400 OFFCURVE",
"448 515 OFFCURVE",
"284 515 CURVE SMOOTH",
"130 515 OFFCURVE",
"35 400 OFFCURVE",
"35 247 CURVE SMOOTH",
"35 105 OFFCURVE",
"119 -8 OFFCURVE",
"284 -8 CURVE SMOOTH"
);
},
{
closed = 1;
nodes = (
"205 89 OFFCURVE",
"169 164 OFFCURVE",
"169 253 CURVE SMOOTH",
"169 343 OFFCURVE",
"204 416 OFFCURVE",
"283 416 CURVE SMOOTH",
"370 416 OFFCURVE",
"398 340 OFFCURVE",
"398 251 CURVE SMOOTH",
"398 161 OFFCURVE",
"365 89 OFFCURVE",
"285 89 CURVE SMOOTH"
);
},
{
closed = 1;
nodes = (
"156 -8 LINE",
"532 515 LINE",
"410 515 LINE",
"35 -8 LINE"
);
}
);
width = 562;
}
);
unicode = 00F8;
},
{
color = 3;
glyphname = oe;
lastChange = "2015-08-06 15:39:19 +0000";
layers = (
{
layerId = "7C6C6D54-BD7C-484C-BA4C-283093F5BAFD";
name = Light;
paths = (
{
closed = 1;
nodes = (
"417 -9 OFFCURVE",
"491 106 OFFCURVE",
"491 251 CURVE SMOOTH",
"491 396 OFFCURVE",
"422 514 OFFCURVE",
"268 514 CURVE SMOOTH",
"128 514 OFFCURVE",
"45 396 OFFCURVE",
"45 251 CURVE SMOOTH",
"45 106 OFFCURVE",
"122 -9 OFFCURVE",
"268 -9 CURVE SMOOTH"
);
},
{
closed = 1;
nodes = (
"164 49 OFFCURVE",
"109 144 OFFCURVE",
"109 251 CURVE SMOOTH",
"109 358 OFFCURVE",
"158 456 OFFCURVE",
"268 456 CURVE SMOOTH",
"393 456 OFFCURVE",
"427 358 OFFCURVE",
"427 251 CURVE SMOOTH",
"427 144 OFFCURVE",
"384 49 OFFCURVE",
"268 49 CURVE SMOOTH"
);
},
{
closed = 1;
nodes = (
"721 -5 OFFCURVE",
"777 6 OFFCURVE",
"815 25 CURVE",
"815 87 LINE",
"779 63 OFFCURVE",
"722 53 OFFCURVE",
"681 53 CURVE SMOOTH",
"574 53 OFFCURVE",
"491 120 OFFCURVE",
"491 251 CURVE SMOOTH",
"491 394 OFFCURVE",
"567 456 OFFCURVE",
"651 456 CURVE SMOOTH",
"728 456 OFFCURVE",
"789 407 OFFCURVE",
"789 305 CURVE SMOOTH",
"789 282 LINE",
"467 282 LINE",
"467 226 LINE",
"848 226 LINE",
"851 241 OFFCURVE",
"852 265 OFFCURVE",
"852 275 CURVE SMOOTH",
"852 426 OFFCURVE",
"784 513 OFFCURVE",
"653 513 CURVE SMOOTH",
"524 513 OFFCURVE",
"427 420 OFFCURVE",
"427 251 CURVE SMOOTH",
"427 91 OFFCURVE",
"536 -5 OFFCURVE",
"678 -5 CURVE SMOOTH"
);
}
);
width = 896;
},
{
layerId = "9624E7F4-80FA-4A11-8396-8F8611ED4CD7";
name = Bold;
paths = (
{
closed = 1;
nodes = (
"432 -8 OFFCURVE",
"525 108 OFFCURVE",
"525 256 CURVE SMOOTH",
"525 400 OFFCURVE",
"435 515 OFFCURVE",
"284 515 CURVE SMOOTH",
"130 515 OFFCURVE",
"35 400 OFFCURVE",
"35 247 CURVE SMOOTH",
"35 105 OFFCURVE",
"119 -8 OFFCURVE",
"284 -8 CURVE SMOOTH"
);
},
{
closed = 1;
nodes = (
"217 105 OFFCURVE",
"187 172 OFFCURVE",
"187 253 CURVE SMOOTH",
"187 334 OFFCURVE",
"216 400 OFFCURVE",
"283 400 CURVE SMOOTH",
"356 400 OFFCURVE",
"387 332 OFFCURVE",
"387 251 CURVE SMOOTH",
"387 170 OFFCURVE",
"353 105 OFFCURVE",
"285 105 CURVE SMOOTH"
);
},
{
closed = 1;
nodes = (
"702 -5 OFFCURVE",
"773 5 OFFCURVE",
"810 29 CURVE",
"810 151 LINE",
"778 127 OFFCURVE",
"736 108 OFFCURVE",
"676 108 CURVE SMOOTH",
"588 108 OFFCURVE",
"525 160 OFFCURVE",
"525 254 CURVE",
"525 356 OFFCURVE",
"576 401 OFFCURVE",
"627 401 CURVE SMOOTH",
"679 401 OFFCURVE",
"699 366 OFFCURVE",
"704 321 CURVE",
"705 300 LINE",
"479 300 LINE",
"479 196 LINE",
"833 196 LINE",
"836 217 OFFCURVE",
"841 253 OFFCURVE",
"841 275 CURVE SMOOTH",
"841 437 OFFCURVE",
"752 512 OFFCURVE",
"621 512 CURVE SMOOTH",
"508 512 OFFCURVE",
"387 422 OFFCURVE",
"387 254 CURVE SMOOTH",
"387 107 OFFCURVE",
"492 -5 OFFCURVE",
"651 -5 CURVE SMOOTH"
);
}
);
width = 879;
}
);
unicode = 0153;
},
{
color = 3;
glyphname = p;
lastChange = "2015-08-06 15:39:19 +0000";
layers = (
{
layerId = "7C6C6D54-BD7C-484C-BA4C-283093F5BAFD";
name = Light;
paths = (
{
closed = 1;
nodes = (
"137 -200 LINE",
"137 507 LINE",
"76 507 LINE",
"76 -200 LINE"
);
},
{
closed = 1;
nodes = (
"420 -8 OFFCURVE",
"510 102 OFFCURVE",
"510 259 CURVE SMOOTH",
"510 394 OFFCURVE",
"436 515 OFFCURVE",
"294 515 CURVE SMOOTH",
"135 515 OFFCURVE",
"91 366 OFFCURVE",
"91 251 CURVE SMOOTH",
"91 110 OFFCURVE",
"161 -8 OFFCURVE",
"292 -8 CURVE SMOOTH"
);
},
{
closed = 1;
nodes = (
"232 50 OFFCURVE",
"137 93 OFFCURVE",
"137 251 CURVE SMOOTH",
"137 413 OFFCURVE",
"223 457 OFFCURVE",
"296 457 CURVE SMOOTH",
"382 457 OFFCURVE",
"446 377 OFFCURVE",
"446 260 CURVE SMOOTH",
"446 119 OFFCURVE",
"376 50 OFFCURVE",
"290 50 CURVE SMOOTH"
);
}
);
width = 555;
},
{
layerId = "9624E7F4-80FA-4A11-8396-8F8611ED4CD7";
name = Bold;
paths = (
{
closed = 1;
nodes = (
"206 -187 LINE",
"206 507 LINE",
"60 507 LINE",
"60 -187 LINE"
);
},
{
closed = 1;
nodes = (
"500 -6 OFFCURVE",
"576 111 OFFCURVE",
"576 255 CURVE SMOOTH",
"576 415 OFFCURVE",
"489 513 OFFCURVE",
"359 513 CURVE SMOOTH",
"252 513 OFFCURVE",
"165 433 OFFCURVE",
"165 258 CURVE",
"165 66 OFFCURVE",
"250 -6 OFFCURVE",
"359 -6 CURVE SMOOTH"
);
},
{
closed = 1;
nodes = (
"254 116 OFFCURVE",
"206 171 OFFCURVE",
"206 259 CURVE",
"206 349 OFFCURVE",
"264 392 OFFCURVE",
"320 392 CURVE SMOOTH",
"379 392 OFFCURVE",
"428 348 OFFCURVE",
"428 252 CURVE SMOOTH",
"428 166 OFFCURVE",
"383 116 OFFCURVE",
"320 116 CURVE SMOOTH"
);
}
);
width = 611;
}
);
unicode = 0070;
},
{
color = 3;
glyphname = thorn;
lastChange = "2015-08-06 15:39:19 +0000";
layers = (
{
layerId = "7C6C6D54-BD7C-484C-BA4C-283093F5BAFD";
name = Light;
paths = (
{
closed = 1;
nodes = (
"137 -200 LINE",
"137 707 LINE",
"76 707 LINE",
"76 -200 LINE"
);
},
{
closed = 1;
nodes = (
"420 -8 OFFCURVE",
"510 102 OFFCURVE",
"510 259 CURVE SMOOTH",
"510 394 OFFCURVE",
"436 515 OFFCURVE",
"294 515 CURVE SMOOTH",
"135 515 OFFCURVE",
"91 366 OFFCURVE",
"91 251 CURVE SMOOTH",
"91 110 OFFCURVE",
"161 -8 OFFCURVE",
"292 -8 CURVE SMOOTH"
);
},
{
closed = 1;
nodes = (
"232 50 OFFCURVE",
"137 93 OFFCURVE",
"137 251 CURVE SMOOTH",
"137 413 OFFCURVE",
"223 457 OFFCURVE",
"296 457 CURVE SMOOTH",
"382 457 OFFCURVE",
"446 377 OFFCURVE",
"446 260 CURVE SMOOTH",
"446 119 OFFCURVE",
"376 50 OFFCURVE",
"290 50 CURVE SMOOTH"
);
}
);
width = 555;
},
{
layerId = "9624E7F4-80FA-4A11-8396-8F8611ED4CD7";
name = Bold;
paths = (
{
closed = 1;
nodes = (
"206 -187 LINE",
"206 707 LINE",
"60 707 LINE",
"60 -187 LINE"
);
},
{
closed = 1;
nodes = (
"500 -6 OFFCURVE",
"576 111 OFFCURVE",
"576 255 CURVE SMOOTH",
"576 415 OFFCURVE",
"489 513 OFFCURVE",
"359 513 CURVE SMOOTH",
"252 513 OFFCURVE",
"165 433 OFFCURVE",
"165 258 CURVE SMOOTH",
"165 66 OFFCURVE",
"250 -6 OFFCURVE",
"359 -6 CURVE SMOOTH"
);
},
{
closed = 1;
nodes = (
"254 116 OFFCURVE",
"206 171 OFFCURVE",
"206 259 CURVE SMOOTH",
"206 349 OFFCURVE",
"264 392 OFFCURVE",
"320 392 CURVE SMOOTH",
"379 392 OFFCURVE",
"428 348 OFFCURVE",
"428 252 CURVE SMOOTH",
"428 166 OFFCURVE",
"383 116 OFFCURVE",
"320 116 CURVE SMOOTH"
);
}
);
width = 611;
}
);
unicode = 00FE;
},
{
color = 3;
glyphname = q;
lastChange = "2015-08-06 15:39:19 +0000";
layers = (
{
layerId = "7C6C6D54-BD7C-484C-BA4C-283093F5BAFD";
name = Light;
paths = (
{
closed = 1;
nodes = (
"394 -8 OFFCURVE",
"464 110 OFFCURVE",
"464 251 CURVE SMOOTH",
"464 366 OFFCURVE",
"420 515 OFFCURVE",
"261 515 CURVE SMOOTH",
"119 515 OFFCURVE",
"45 394 OFFCURVE",
"45 259 CURVE SMOOTH",
"45 102 OFFCURVE",
"135 -8 OFFCURVE",
"263 -8 CURVE SMOOTH"
);
},
{
closed = 1;
nodes = (
"179 50 OFFCURVE",
"109 119 OFFCURVE",
"109 260 CURVE SMOOTH",
"109 377 OFFCURVE",
"173 457 OFFCURVE",
"259 457 CURVE SMOOTH",
"332 457 OFFCURVE",
"418 413 OFFCURVE",
"418 251 CURVE SMOOTH",
"418 93 OFFCURVE",
"323 50 OFFCURVE",
"265 50 CURVE SMOOTH"
);
},
{
closed = 1;
nodes = (
"479 -200 LINE",
"479 507 LINE",
"418 507 LINE",
"418 -200 LINE"
);
}
);
width = 555;
},
{
layerId = "9624E7F4-80FA-4A11-8396-8F8611ED4CD7";
name = Bold;
paths = (
{
closed = 1;
nodes = (
"354 -6 OFFCURVE",
"446 66 OFFCURVE",
"446 258 CURVE SMOOTH",
"446 434 OFFCURVE",
"358 513 OFFCURVE",
"254 513 CURVE SMOOTH",
"124 513 OFFCURVE",
"35 415 OFFCURVE",
"35 255 CURVE SMOOTH",
"35 111 OFFCURVE",
"112 -6 OFFCURVE",
"253 -6 CURVE SMOOTH"
);
},
{
closed = 1;
nodes = (
"233 116 OFFCURVE",
"183 168 OFFCURVE",
"183 252 CURVE SMOOTH",
"183 344 OFFCURVE",
"234 392 OFFCURVE",
"292 392 CURVE SMOOTH",
"348 392 OFFCURVE",
"405 349 OFFCURVE",
"405 259 CURVE SMOOTH",
"405 171 OFFCURVE",
"359 116 OFFCURVE",
"293 116 CURVE SMOOTH"
);
},
{
closed = 1;
nodes = (
"551 -187 LINE",
"551 507 LINE",
"405 507 LINE",
"405 -187 LINE"
);
}
);
width = 611;
}
);
unicode = 0071;
},
{
color = 3;
glyphname = r;
lastChange = "2015-08-06 15:39:19 +0000";
layers = (
{
layerId = "7C6C6D54-BD7C-484C-BA4C-283093F5BAFD";
name = Light;
paths = (
{
closed = 1;
nodes = (
"137 0 LINE",
"137 507 LINE",
"76 507 LINE",
"76 0 LINE"
);
},
{
closed = 1;
nodes = (
"279 455 OFFCURVE",
"291 453 OFFCURVE",
"304 449 CURVE",
"304 511 LINE",
"295 512 OFFCURVE",
"287 513 OFFCURVE",
"279 513 CURVE SMOOTH",
"154 513 OFFCURVE",
"114 406 OFFCURVE",
"110 280 CURVE",
"137 283 LINE",
"137 365 OFFCURVE",
"188 455 OFFCURVE",
"264 455 CURVE SMOOTH"
);
}
);
width = 314;
},
{
layerId = "9624E7F4-80FA-4A11-8396-8F8611ED4CD7";
name = Bold;
paths = (
{
closed = 1;
nodes = (
"205 0 LINE",
"205 507 LINE",
"60 507 LINE",
"59 0 LINE"
);
},
{
closed = 1;
nodes = (
"327 379 OFFCURVE",
"345 377 OFFCURVE",
"365 368 CURVE",
"365 506 LINE",
"351 510 OFFCURVE",
"340 510 OFFCURVE",
"327 510 CURVE SMOOTH",
"246 510 OFFCURVE",
"193 436 OFFCURVE",
"196 346 CURVE",
"205 253 LINE",
"205 330 OFFCURVE",
"247 379 OFFCURVE",
"310 379 CURVE SMOOTH"
);
}
);
width = 370;
}
);
unicode = 0072;
},
{
color = 3;
glyphname = rcommaaccent;
lastChange = "2015-08-06 15:39:19 +0000";
layers = (
{
components = (
{
name = r;
}
);
layerId = "7C6C6D54-BD7C-484C-BA4C-283093F5BAFD";
name = Light;
paths = (
{
closed = 1;
nodes = (
"34 -238 LINE",
"144 -51 LINE",
"68 -51 LINE",
"-20 -238 LINE"
);
}
);
width = 314;
},
{
components = (
{
name = r;
}
);
layerId = "9624E7F4-80FA-4A11-8396-8F8611ED4CD7";
name = Bold;
paths = (
{
closed = 1;
nodes = (
"86 -262 LINE",
"202 -51 LINE",
"51 -51 LINE",
"-20 -262 LINE"
);
}
);
width = 370;
}
);
unicode = 0157;
},
{
color = 3;
glyphname = s;
lastChange = "2015-08-06 15:39:19 +0000";
layers = (
{
layerId = "7C6C6D54-BD7C-484C-BA4C-283093F5BAFD";
name = Light;
paths = (
{
closed = 1;
nodes = (
"310 -6 OFFCURVE",
"371 47 OFFCURVE",
"371 130 CURVE SMOOTH",
"371 214 OFFCURVE",
"302 251 OFFCURVE",
"226 282 CURVE SMOOTH",
"170 305 OFFCURVE",
"119 325 OFFCURVE",
"119 381 CURVE SMOOTH",
"119 424 OFFCURVE",
"155 455 OFFCURVE",
"214 455 CURVE SMOOTH",
"264 455 OFFCURVE",
"313 444 OFFCURVE",
"341 428 CURVE",
"341 489 LINE",
"320 500 OFFCURVE",
"275 512 OFFCURVE",
"215 512 CURVE SMOOTH",
"127 512 OFFCURVE",
"57 462 OFFCURVE",
"57 378 CURVE SMOOTH",
"57 295 OFFCURVE",
"126 259 OFFCURVE",
"190 234 CURVE SMOOTH",
"264 205 OFFCURVE",
"308 182 OFFCURVE",
"308 125 CURVE SMOOTH",
"308 82 OFFCURVE",
"275 49 OFFCURVE",
"204 49 CURVE SMOOTH",
"157 49 OFFCURVE",
"104 62 OFFCURVE",
"60 87 CURVE",
"60 24 LINE",
"90 8 OFFCURVE",
"147 -6 OFFCURVE",
"208 -6 CURVE SMOOTH"
);
}
);
width = 406;
},
{
layerId = "9624E7F4-80FA-4A11-8396-8F8611ED4CD7";
name = Bold;
paths = (
{
closed = 1;
nodes = (
"324 -4 OFFCURVE",
"406 50 OFFCURVE",
"406 153 CURVE SMOOTH",
"406 226 OFFCURVE",
"354 263 OFFCURVE",
"304 289 CURVE SMOOTH",
"253 315 OFFCURVE",
"202 329 OFFCURVE",
"202 361 CURVE SMOOTH",
"202 382 OFFCURVE",
"220 398 OFFCURVE",
"256 398 CURVE SMOOTH",
"303 398 OFFCURVE",
"349 385 OFFCURVE",
"380 367 CURVE",
"380 492 LINE",
"345 506 OFFCURVE",
"297 513 OFFCURVE",
"250 513 CURVE SMOOTH",
"143 513 OFFCURVE",
"53 459 OFFCURVE",
"53 357 CURVE SMOOTH",
"53 277 OFFCURVE",
"103 237 OFFCURVE",
"154 213 CURVE SMOOTH",
"204 190 OFFCURVE",
"256 176 OFFCURVE",
"256 144 CURVE SMOOTH",
"256 121 OFFCURVE",
"235 109 OFFCURVE",
"201 109 CURVE SMOOTH",
"143 109 OFFCURVE",
"88 134 OFFCURVE",
"55 157 CURVE",
"55 27 LINE",
"89 10 OFFCURVE",
"146 -4 OFFCURVE",
"209 -4 CURVE SMOOTH"
);
}
);
width = 436;
}
);
unicode = 0073;
},
{
color = 3;
glyphname = scommaaccent;
lastChange = "2015-08-06 15:39:19 +0000";
layers = (
{
layerId = "7C6C6D54-BD7C-484C-BA4C-283093F5BAFD";
name = Light;
paths = (
{
closed = 1;
nodes = (
"310 -6 OFFCURVE",
"371 47 OFFCURVE",
"371 130 CURVE SMOOTH",
"371 214 OFFCURVE",
"302 251 OFFCURVE",
"226 282 CURVE SMOOTH",
"170 305 OFFCURVE",
"119 325 OFFCURVE",
"119 381 CURVE SMOOTH",
"119 424 OFFCURVE",
"155 455 OFFCURVE",
"214 455 CURVE SMOOTH",
"264 455 OFFCURVE",
"313 444 OFFCURVE",
"341 428 CURVE",
"341 489 LINE",
"320 500 OFFCURVE",
"275 512 OFFCURVE",
"215 512 CURVE SMOOTH",
"127 512 OFFCURVE",
"57 462 OFFCURVE",
"57 378 CURVE SMOOTH",
"57 295 OFFCURVE",
"126 259 OFFCURVE",
"190 234 CURVE SMOOTH",
"264 205 OFFCURVE",
"308 182 OFFCURVE",
"308 125 CURVE SMOOTH",
"308 82 OFFCURVE",
"275 49 OFFCURVE",
"204 49 CURVE SMOOTH",
"157 49 OFFCURVE",
"104 62 OFFCURVE",
"60 87 CURVE",
"60 24 LINE",
"90 8 OFFCURVE",
"147 -6 OFFCURVE",
"208 -6 CURVE SMOOTH"
);
},
{
closed = 1;
nodes = (
"143 -238 LINE",
"253 -51 LINE",
"177 -51 LINE",
"89 -238 LINE"
);
}
);
width = 406;
},
{
layerId = "9624E7F4-80FA-4A11-8396-8F8611ED4CD7";
name = Bold;
paths = (
{
closed = 1;
nodes = (
"324 -4 OFFCURVE",
"406 50 OFFCURVE",
"406 153 CURVE SMOOTH",
"406 226 OFFCURVE",
"354 263 OFFCURVE",
"304 289 CURVE SMOOTH",
"253 315 OFFCURVE",
"202 329 OFFCURVE",
"202 361 CURVE SMOOTH",
"202 382 OFFCURVE",
"220 398 OFFCURVE",
"256 398 CURVE SMOOTH",
"303 398 OFFCURVE",
"349 385 OFFCURVE",
"380 367 CURVE",
"380 492 LINE",
"345 506 OFFCURVE",
"297 513 OFFCURVE",
"250 513 CURVE SMOOTH",
"143 513 OFFCURVE",
"53 459 OFFCURVE",
"53 357 CURVE SMOOTH",
"53 277 OFFCURVE",
"103 237 OFFCURVE",
"154 213 CURVE SMOOTH",
"204 190 OFFCURVE",
"256 176 OFFCURVE",
"256 144 CURVE SMOOTH",
"256 121 OFFCURVE",
"235 109 OFFCURVE",
"201 109 CURVE SMOOTH",
"143 109 OFFCURVE",
"88 134 OFFCURVE",
"55 157 CURVE",
"55 27 LINE",
"89 10 OFFCURVE",
"146 -4 OFFCURVE",
"209 -4 CURVE SMOOTH"
);
},
{
closed = 1;
nodes = (
"185 -262 LINE",
"301 -51 LINE",
"150 -51 LINE",
"79 -262 LINE"
);
}
);
width = 436;
}
);
unicode = 0219;
},
{
color = 3;
glyphname = germandbls;
lastChange = "2015-08-06 15:39:19 +0000";
layers = (
{
layerId = "7C6C6D54-BD7C-484C-BA4C-283093F5BAFD";
name = Light;
paths = (
{
closed = 1;
nodes = (
"438 -7 OFFCURVE",
"494 54 OFFCURVE",
"494 131 CURVE SMOOTH",
"494 258 OFFCURVE",
"347 281 OFFCURVE",
"347 356 CURVE SMOOTH",
"347 410 OFFCURVE",
"430 435 OFFCURVE",
"430 541 CURVE SMOOTH",
"430 622 OFFCURVE",
"367 690 OFFCURVE",
"265 690 CURVE SMOOTH",
"160 690 OFFCURVE",
"80 635 OFFCURVE",
"80 505 CURVE",
"80 0 LINE",
"142 0 LINE",
"142 505 LINE",
"142 592 OFFCURVE",
"185 631 OFFCURVE",
"260 631 CURVE SMOOTH",
"323 631 OFFCURVE",
"368 596 OFFCURVE",
"368 541 CURVE SMOOTH",
"368 457 OFFCURVE",
"281 437 OFFCURVE",
"281 352 CURVE SMOOTH",
"281 244 OFFCURVE",
"432 223 OFFCURVE",
"432 126 CURVE SMOOTH",
"432 82 OFFCURVE",
"394 50 OFFCURVE",
"333 50 CURVE SMOOTH",
"299 50 OFFCURVE",
"278 55 OFFCURVE",
"252 67 CURVE",
"252 3 LINE",
"278 -5 OFFCURVE",
"300 -7 OFFCURVE",
"330 -7 CURVE SMOOTH"
);
}
);
width = 526;
},
{
layerId = "9624E7F4-80FA-4A11-8396-8F8611ED4CD7";
name = Bold;
paths = (
{
closed = 1;
nodes = (
"507 -9 OFFCURVE",
"578 58 OFFCURVE",
"578 159 CURVE SMOOTH",
"578 304 OFFCURVE",
"447 329 OFFCURVE",
"447 366 CURVE SMOOTH",
"447 405 OFFCURVE",
"502 430 OFFCURVE",
"502 519 CURVE SMOOTH",
"502 608 OFFCURVE",
"418 690 OFFCURVE",
"283 690 CURVE SMOOTH",
"139 690 OFFCURVE",
"60 606 OFFCURVE",
"60 461 CURVE SMOOTH",
"60 0 LINE",
"202 0 LINE",
"202 470 LINE SMOOTH",
"202 536 OFFCURVE",
"233 563 OFFCURVE",
"292 563 CURVE SMOOTH",
"335 563 OFFCURVE",
"354 540 OFFCURVE",
"354 506 CURVE SMOOTH",
"354 454 OFFCURVE",
"297 422 OFFCURVE",
"297 351 CURVE SMOOTH",
"297 247 OFFCURVE",
"442 231 OFFCURVE",
"442 157 CURVE SMOOTH",
"442 124 OFFCURVE",
"416 105 OFFCURVE",
"381 105 CURVE SMOOTH",
"346 105 OFFCURVE",
"320 112 OFFCURVE",
"280 138 CURVE",
"280 15 LINE",
"307 -3 OFFCURVE",
"361 -9 OFFCURVE",
"397 -9 CURVE SMOOTH"
);
}
);
width = 598;
}
);
unicode = 00DF;
},
{
color = 3;
glyphname = t;
lastChange = "2015-08-06 15:39:19 +0000";
layers = (
{
layerId = "7C6C6D54-BD7C-484C-BA4C-283093F5BAFD";
name = Light;
paths = (
{
closed = 1;
nodes = (
"271 -5 OFFCURVE",
"302 3 OFFCURVE",
"319 14 CURVE",
"319 76 LINE",
"303 63 OFFCURVE",
"276 53 OFFCURVE",
"251 53 CURVE SMOOTH",
"194 53 OFFCURVE",
"170 84 OFFCURVE",
"170 140 CURVE SMOOTH",
"170 634 LINE",
"108 634 LINE",
"108 143 LINE",
"108 50 OFFCURVE",
"149 -5 OFFCURVE",
"252 -5 CURVE SMOOTH"
);
},
{
closed = 1;
nodes = (
"315 455 LINE",
"315 507 LINE",
"25 507 LINE",
"25 455 LINE"
);
}
);
width = 364;
},
{
layerId = "9624E7F4-80FA-4A11-8396-8F8611ED4CD7";
name = Bold;
paths = (
{
closed = 1;
nodes = (
"284 -5 OFFCURVE",
"328 -1 OFFCURVE",
"356 11 CURVE",
"356 132 LINE",
"334 118 OFFCURVE",
"308 112 OFFCURVE",
"285 112 CURVE SMOOTH",
"254 112 OFFCURVE",
"229 129 OFFCURVE",
"229 167 CURVE SMOOTH",
"229 627 LINE",
"83 627 LINE",
"83 168 LINE",
"83 56 OFFCURVE",
"140 -5 OFFCURVE",
"256 -5 CURVE SMOOTH"
);
},
{
closed = 1;
nodes = (
"347 400 LINE",
"347 507 LINE",
"10 507 LINE",
"10 400 LINE"
);
}
);
width = 386;
}
);
unicode = 0074;
},
{
color = 3;
glyphname = tcaron;
lastChange = "2015-08-06 15:39:19 +0000";
layers = (
{
layerId = "7C6C6D54-BD7C-484C-BA4C-283093F5BAFD";
name = Light;
paths = (
{
closed = 1;
nodes = (
"271 -5 OFFCURVE",
"302 3 OFFCURVE",
"319 14 CURVE",
"319 76 LINE",
"303 63 OFFCURVE",
"276 53 OFFCURVE",
"251 53 CURVE SMOOTH",
"194 53 OFFCURVE",
"170 84 OFFCURVE",
"170 140 CURVE SMOOTH",
"170 634 LINE",
"108 634 LINE",
"108 143 LINE",
"108 50 OFFCURVE",
"149 -5 OFFCURVE",
"252 -5 CURVE SMOOTH"
);
},
{
closed = 1;
nodes = (
"315 455 LINE",
"315 507 LINE",
"25 507 LINE",
"25 455 LINE"
);
},
{
closed = 1;
nodes = (
"285 562 LINE",
"395 749 LINE",
"319 749 LINE",
"231 562 LINE"
);
}
);
width = 364;
},
{
layerId = "9624E7F4-80FA-4A11-8396-8F8611ED4CD7";
name = Bold;
paths = (
{
closed = 1;
nodes = (
"284 -5 OFFCURVE",
"328 -1 OFFCURVE",
"356 11 CURVE",
"356 132 LINE",
"334 118 OFFCURVE",
"308 112 OFFCURVE",
"285 112 CURVE SMOOTH",
"254 112 OFFCURVE",
"229 129 OFFCURVE",
"229 167 CURVE SMOOTH",
"229 627 LINE",
"83 627 LINE",
"83 168 LINE",
"83 56 OFFCURVE",
"140 -5 OFFCURVE",
"256 -5 CURVE SMOOTH"
);
},
{
closed = 1;
nodes = (
"347 400 LINE",
"347 507 LINE",
"10 507 LINE",
"10 400 LINE"
);
},
{
closed = 1;
nodes = (
"386 588 LINE",
"502 799 LINE",
"351 799 LINE",
"280 588 LINE"
);
}
);
width = 386;
}
);
unicode = 0165;
},
{
color = 3;
glyphname = tcedilla;
lastChange = "2015-08-20 17:01:16 +0000";
layers = (
{
background = {
paths = (
{
closed = 1;
nodes = (
"103 -238 LINE",
"213 -51 LINE",
"137 -51 LINE",
"49 -238 LINE"
);
}
);
};
components = (
{
name = cedilla;
transform = "{1, 0, 0, 1, -30, 0}";
}
);
layerId = "7C6C6D54-BD7C-484C-BA4C-283093F5BAFD";
name = Light;
paths = (
{
closed = 1;
nodes = (
"271 -5 OFFCURVE",
"302 3 OFFCURVE",
"319 14 CURVE",
"319 76 LINE",
"303 63 OFFCURVE",
"276 53 OFFCURVE",
"251 53 CURVE SMOOTH",
"194 53 OFFCURVE",
"170 84 OFFCURVE",
"170 140 CURVE SMOOTH",
"170 634 LINE",
"108 634 LINE",
"108 143 LINE",
"108 50 OFFCURVE",
"149 -5 OFFCURVE",
"252 -5 CURVE SMOOTH"
);
},
{
closed = 1;
nodes = (
"315 455 LINE",
"315 507 LINE",
"25 507 LINE",
"25 455 LINE"
);
}
);
width = 364;
},
{
background = {
paths = (
{
closed = 1;
nodes = (
"191 -262 LINE",
"307 -51 LINE",
"156 -51 LINE",
"85 -262 LINE"
);
}
);
};
components = (
{
name = cedilla;
transform = "{1, 0, 0, 1, -50, 0}";
}
);
layerId = "9624E7F4-80FA-4A11-8396-8F8611ED4CD7";
name = Bold;
paths = (
{
closed = 1;
nodes = (
"284 -5 OFFCURVE",
"328 -1 OFFCURVE",
"356 11 CURVE",
"356 132 LINE",
"334 118 OFFCURVE",
"308 112 OFFCURVE",
"285 112 CURVE SMOOTH",
"254 112 OFFCURVE",
"229 129 OFFCURVE",
"229 167 CURVE SMOOTH",
"229 627 LINE",
"83 627 LINE",
"83 168 LINE",
"83 56 OFFCURVE",
"140 -5 OFFCURVE",
"256 -5 CURVE SMOOTH"
);
},
{
closed = 1;
nodes = (
"347 400 LINE",
"347 507 LINE",
"10 507 LINE",
"10 400 LINE"
);
}
);
width = 386;
}
);
unicode = 0163;
},
{
color = 3;
glyphname = tcommaaccent;
lastChange = "2015-08-06 15:39:19 +0000";
layers = (
{
layerId = "7C6C6D54-BD7C-484C-BA4C-283093F5BAFD";
name = Light;
paths = (
{
closed = 1;
nodes = (
"271 -5 OFFCURVE",
"302 3 OFFCURVE",
"319 14 CURVE",
"319 76 LINE",
"303 63 OFFCURVE",
"276 53 OFFCURVE",
"251 53 CURVE SMOOTH",
"194 53 OFFCURVE",
"170 84 OFFCURVE",
"170 140 CURVE SMOOTH",
"170 634 LINE",
"108 634 LINE",
"108 143 LINE",
"108 50 OFFCURVE",
"149 -5 OFFCURVE",
"252 -5 CURVE SMOOTH"
);
},
{
closed = 1;
nodes = (
"167 -238 LINE",
"277 -51 LINE",
"201 -51 LINE",
"113 -238 LINE"
);
},
{
closed = 1;
nodes = (
"315 455 LINE",
"315 507 LINE",
"25 507 LINE",
"25 455 LINE"
);
}
);
width = 364;
},
{
layerId = "9624E7F4-80FA-4A11-8396-8F8611ED4CD7";
name = Bold;
paths = (
{
closed = 1;
nodes = (
"284 -5 OFFCURVE",
"328 -1 OFFCURVE",
"356 11 CURVE",
"356 132 LINE",
"334 118 OFFCURVE",
"308 112 OFFCURVE",
"285 112 CURVE SMOOTH",
"254 112 OFFCURVE",
"229 129 OFFCURVE",
"229 167 CURVE SMOOTH",
"229 627 LINE",
"83 627 LINE",
"83 168 LINE",
"83 56 OFFCURVE",
"140 -5 OFFCURVE",
"256 -5 CURVE SMOOTH"
);
},
{
closed = 1;
nodes = (
"214 -262 LINE",
"330 -51 LINE",
"179 -51 LINE",
"108 -262 LINE"
);
},
{
closed = 1;
nodes = (
"347 400 LINE",
"347 507 LINE",
"10 507 LINE",
"10 400 LINE"
);
}
);
width = 386;
}
);
unicode = 021B;
},
{
color = 3;
glyphname = u;
lastChange = "2015-08-06 15:39:19 +0000";
layers = (
{
layerId = "7C6C6D54-BD7C-484C-BA4C-283093F5BAFD";
name = Light;
paths = (
{
closed = 1;
nodes = (
"339 -7 OFFCURVE",
"411 53 OFFCURVE",
"411 206 CURVE",
"392 225 LINE",
"392 123 OFFCURVE",
"332 52 OFFCURVE",
"242 52 CURVE SMOOTH",
"177 52 OFFCURVE",
"131 92 OFFCURVE",
"131 172 CURVE SMOOTH",
"131 507 LINE",
"70 507 LINE",
"70 155 LINE SMOOTH",
"70 59 OFFCURVE",
"132 -7 OFFCURVE",
"231 -7 CURVE SMOOTH"
);
},
{
closed = 1;
nodes = (
"453 0 LINE",
"453 507 LINE",
"392 507 LINE",
"392 0 LINE"
);
}
);
width = 529;
},
{
layerId = "9624E7F4-80FA-4A11-8396-8F8611ED4CD7";
name = Bold;
paths = (
{
closed = 1;
nodes = (
"335 -4 OFFCURVE",
"396 68 OFFCURVE",
"391 177 CURVE",
"374 239 LINE",
"374 143 OFFCURVE",
"335 112 OFFCURVE",
"279 112 CURVE SMOOTH",
"230 112 OFFCURVE",
"201 142 OFFCURVE",
"201 201 CURVE SMOOTH",
"201 507 LINE",
"55 507 LINE",
"55 168 LINE SMOOTH",
"55 53 OFFCURVE",
"118 -4 OFFCURVE",
"220 -4 CURVE SMOOTH"
);
},
{
closed = 1;
nodes = (
"520 0 LINE",
"520 507 LINE",
"374 507 LINE",
"374 0 LINE"
);
}
);
width = 580;
}
);
unicode = 0075;
},
{
color = 3;
glyphname = v;
lastChange = "2015-08-06 15:39:19 +0000";
layers = (
{
layerId = "7C6C6D54-BD7C-484C-BA4C-283093F5BAFD";
name = Light;
paths = (
{
closed = 1;
nodes = (
"287 0 LINE",
"467 507 LINE",
"403 507 LINE",
"329 294 LINE SMOOTH",
"256 86 OFFCURVE",
"246 49 OFFCURVE",
"246 49 CURVE",
"246 49 OFFCURVE",
"234 86 OFFCURVE",
"165 294 CURVE SMOOTH",
"94 507 LINE",
"30 507 LINE",
"205 0 LINE"
);
}
);
width = 497;
},
{
layerId = "9624E7F4-80FA-4A11-8396-8F8611ED4CD7";
name = Bold;
paths = (
{
closed = 1;
nodes = (
"342 0 LINE",
"531 507 LINE",
"381 507 LINE",
"313 291 LINE SMOOTH",
"277 178 OFFCURVE",
"268 113 OFFCURVE",
"268 113 CURVE",
"268 113 OFFCURVE",
"258 178 OFFCURVE",
"224 291 CURVE SMOOTH",
"158 507 LINE",
"5 507 LINE",
"192 0 LINE"
);
}
);
width = 536;
}
);
unicode = 0076;
},
{
color = 3;
glyphname = w;
lastChange = "2015-08-06 15:39:19 +0000";
layers = (
{
layerId = "7C6C6D54-BD7C-484C-BA4C-283093F5BAFD";
name = Light;
paths = (
{
closed = 1;
nodes = (
"267 0 LINE",
"314 166 LINE SMOOTH",
"372 373 OFFCURVE",
"389 436 OFFCURVE",
"389 436 CURVE",
"389 436 OFFCURVE",
"406 374 OFFCURVE",
"467 166 CURVE SMOOTH",
"516 0 LINE",
"598 0 LINE",
"758 507 LINE",
"694 507 LINE",
"642 340 LINE SMOOTH",
"573 118 OFFCURVE",
"557 59 OFFCURVE",
"557 59 CURVE",
"557 59 OFFCURVE",
"541 118 OFFCURVE",
"475 340 CURVE SMOOTH",
"425 507 LINE",
"353 507 LINE",
"305 340 LINE SMOOTH",
"243 126 OFFCURVE",
"225 61 OFFCURVE",
"225 61 CURVE",
"225 61 OFFCURVE",
"211 127 OFFCURVE",
"147 339 CURVE SMOOTH",
"97 507 LINE",
"30 507 LINE",
"185 0 LINE"
);
}
);
width = 788;
},
{
layerId = "9624E7F4-80FA-4A11-8396-8F8611ED4CD7";
name = Bold;
paths = (
{
closed = 1;
nodes = (
"318 0 LINE",
"362 166 LINE SMOOTH",
"394 287 OFFCURVE",
"404 354 OFFCURVE",
"404 354 CURVE",
"404 354 OFFCURVE",
"413 287 OFFCURVE",
"445 166 CURVE SMOOTH",
"489 0 LINE",
"639 0 LINE",
"801 507 LINE",
"657 507 LINE",
"610 340 LINE SMOOTH",
"570 197 OFFCURVE",
"563 138 OFFCURVE",
"563 138 CURVE",
"563 138 OFFCURVE",
"556 197 OFFCURVE",
"515 340 CURVE SMOOTH",
"467 507 LINE",
"341 507 LINE",
"292 340 LINE SMOOTH",
"250 198 OFFCURVE",
"243 138 OFFCURVE",
"243 138 CURVE",
"243 138 OFFCURVE",
"237 198 OFFCURVE",
"200 340 CURVE SMOOTH",
"156 507 LINE",
"5 507 LINE",
"168 0 LINE"
);
}
);
width = 806;
}
);
unicode = 0077;
},
{
color = 3;
glyphname = x;
lastChange = "2015-08-06 15:39:19 +0000";
layers = (
{
layerId = "7C6C6D54-BD7C-484C-BA4C-283093F5BAFD";
name = Light;
paths = (
{
closed = 1;
nodes = (
"96 0 LINE",
"232 213 LINE",
"365 0 LINE",
"438 0 LINE",
"268 260 LINE",
"427 508 LINE",
"356 508 LINE",
"233 308 LINE",
"109 508 LINE",
"37 508 LINE",
"194 261 LINE",
"27 0 LINE"
);
}
);
width = 465;
},
{
layerId = "9624E7F4-80FA-4A11-8396-8F8611ED4CD7";
name = Bold;
paths = (
{
closed = 1;
nodes = (
"174 0 LINE",
"265 152 LINE",
"350 0 LINE",
"509 0 LINE",
"340 253 LINE",
"522 507 LINE",
"362 507 LINE",
"271 356 LINE",
"189 507 LINE",
"27 507 LINE",
"197 254 LINE",
"16 0 LINE"
);
}
);
width = 526;
}
);
unicode = 0078;
},
{
color = 3;
glyphname = y;
lastChange = "2015-08-06 15:39:19 +0000";
layers = (
{
layerId = "7C6C6D54-BD7C-484C-BA4C-283093F5BAFD";
name = Light;
paths = (
{
closed = 1;
nodes = (
"148 -168 OFFCURVE",
"224 -135 OFFCURVE",
"279 13 CURVE SMOOTH",
"463 507 LINE",
"395 507 LINE",
"333 337 LINE SMOOTH",
"253 116 OFFCURVE",
"246 93 OFFCURVE",
"246 93 CURVE",
"246 93 OFFCURVE",
"237 116 OFFCURVE",
"148 337 CURVE SMOOTH",
"79 507 LINE",
"9 507 LINE",
"216 14 LINE",
"188 -67 OFFCURVE",
"135 -108 OFFCURVE",
"67 -108 CURVE SMOOTH",
"57 -108 OFFCURVE",
"44 -106 OFFCURVE",
"33 -103 CURVE",
"33 -163 LINE",
"44 -166 OFFCURVE",
"60 -168 OFFCURVE",
"71 -168 CURVE SMOOTH"
);
}
);
width = 482;
},
{
layerId = "9624E7F4-80FA-4A11-8396-8F8611ED4CD7";
name = Bold;
paths = (
{
closed = 1;
nodes = (
"209 -198 OFFCURVE",
"290 -130 OFFCURVE",
"344 15 CURVE SMOOTH",
"527 507 LINE",
"377 507 LINE",
"327 349 LINE SMOOTH",
"284 212 OFFCURVE",
"273 172 OFFCURVE",
"273 172 CURVE SMOOTH",
"273 172 OFFCURVE",
"267 212 OFFCURVE",
"219 349 CURVE SMOOTH",
"164 507 LINE",
"5 507 LINE",
"201 8 LINE",
"176 -52 OFFCURVE",
"141 -81 OFFCURVE",
"81 -81 CURVE SMOOTH",
"70 -81 OFFCURVE",
"59 -80 OFFCURVE",
"47 -77 CURVE",
"47 -193 LINE",
"67 -197 OFFCURVE",
"78 -198 OFFCURVE",
"103 -198 CURVE SMOOTH"
);
}
);
width = 532;
}
);
unicode = 0079;
},
{
color = 3;
glyphname = z;
lastChange = "2015-08-06 15:39:19 +0000";
layers = (
{
layerId = "7C6C6D54-BD7C-484C-BA4C-283093F5BAFD";
name = Light;
paths = (
{
closed = 1;
nodes = (
"401 0 LINE",
"401 60 LINE",
"117 60 LINE",
"387 461 LINE",
"387 507 LINE",
"55 507 LINE",
"55 448 LINE",
"311 448 LINE",
"45 51 LINE",
"45 0 LINE"
);
}
);
width = 446;
},
{
layerId = "9624E7F4-80FA-4A11-8396-8F8611ED4CD7";
name = Bold;
paths = (
{
closed = 1;
nodes = (
"439 0 LINE",
"439 113 LINE",
"205 113 LINE",
"427 406 LINE",
"427 507 LINE",
"49 507 LINE",
"49 395 LINE",
"262 395 LINE",
"40 105 LINE",
"40 0 LINE"
);
}
);
width = 479;
}
);
unicode = 007A;
},
{
color = 1;
glyphname = f_f;
lastChange = "2015-08-06 15:43:07 +0000";
layers = (
{
layerId = "7C6C6D54-BD7C-484C-BA4C-283093F5BAFD";
name = Light;
paths = (
{
closed = 1;
nodes = (
"184 0 LINE",
"184 560 LINE SMOOTH",
"184 627 OFFCURVE",
"219 654 OFFCURVE",
"267 654 CURVE SMOOTH",
"326 654 OFFCURVE",
"366 635 OFFCURVE",
"403 611 CURVE",
"413 671 LINE",
"377 693 OFFCURVE",
"321 712 OFFCURVE",
"270 712 CURVE SMOOTH",
"171 712 OFFCURVE",
"123 651 OFFCURVE",
"123 561 CURVE SMOOTH",
"123 0 LINE"
);
},
{
closed = 1;
nodes = (
"300 455 LINE",
"300 507 LINE",
"30 507 LINE",
"30 455 LINE"
);
},
{
closed = 1;
nodes = (
"422 0 LINE",
"422 560 LINE SMOOTH",
"422 627 OFFCURVE",
"459 654 OFFCURVE",
"495 654 CURVE SMOOTH",
"511 654 OFFCURVE",
"526 651 OFFCURVE",
"539 646 CURVE",
"539 706 LINE",
"528 709 OFFCURVE",
"507 712 OFFCURVE",
"498 712 CURVE SMOOTH",
"409 712 OFFCURVE",
"361 651 OFFCURVE",
"361 561 CURVE SMOOTH",
"361 0 LINE"
);
},
{
closed = 1;
nodes = (
"538 455 LINE",
"538 507 LINE",
"268 507 LINE",
"268 455 LINE"
);
}
);
width = 563;
},
{
layerId = "9624E7F4-80FA-4A11-8396-8F8611ED4CD7";
name = Bold;
paths = (
{
closed = 1;
nodes = (
"241 0 LINE",
"241 526 LINE SMOOTH",
"241 587 OFFCURVE",
"268 603 OFFCURVE",
"314 603 CURVE SMOOTH",
"357 603 OFFCURVE",
"424 579 OFFCURVE",
"455 564 CURVE",
"465 681 LINE",
"432 698 OFFCURVE",
"355 720 OFFCURVE",
"290 720 CURVE SMOOTH",
"169 720 OFFCURVE",
"96 650 OFFCURVE",
"96 526 CURVE SMOOTH",
"96 0 LINE"
);
},
{
closed = 1;
nodes = (
"336 400 LINE",
"336 507 LINE",
"30 507 LINE",
"30 400 LINE"
);
},
{
closed = 1;
nodes = (
"531 0 LINE",
"531 526 LINE SMOOTH",
"531 587 OFFCURVE",
"558 603 OFFCURVE",
"604 603 CURVE SMOOTH",
"620 603 OFFCURVE",
"636 600 OFFCURVE",
"656 592 CURVE",
"656 710 LINE",
"630 719 OFFCURVE",
"606 720 OFFCURVE",
"580 720 CURVE SMOOTH",
"459 720 OFFCURVE",
"386 650 OFFCURVE",
"386 526 CURVE SMOOTH",
"386 0 LINE"
);
},
{
closed = 1;
nodes = (
"626 400 LINE",
"626 507 LINE",
"320 507 LINE",
"320 400 LINE"
);
}
);
width = 636;
}
);
unicode = FB00;
},
{
color = 1;
glyphname = f_f_i;
lastChange = "2015-08-06 15:22:25 +0000";
layers = (
{
layerId = "7C6C6D54-BD7C-484C-BA4C-283093F5BAFD";
name = Light;
paths = (
{
closed = 1;
nodes = (
"184 0 LINE",
"184 560 LINE SMOOTH",
"184 627 OFFCURVE",
"219 654 OFFCURVE",
"267 654 CURVE SMOOTH",
"326 654 OFFCURVE",
"366 635 OFFCURVE",
"403 611 CURVE",
"413 671 LINE",
"377 693 OFFCURVE",
"321 712 OFFCURVE",
"270 712 CURVE SMOOTH",
"171 712 OFFCURVE",
"123 651 OFFCURVE",
"123 561 CURVE SMOOTH",
"123 0 LINE"
);
},
{
closed = 1;
nodes = (
"300 455 LINE",
"300 507 LINE",
"30 507 LINE",
"30 455 LINE"
);
},
{
closed = 1;
nodes = (
"422 0 LINE",
"422 560 LINE SMOOTH",
"422 627 OFFCURVE",
"454 654 OFFCURVE",
"500 654 CURVE SMOOTH",
"552 654 OFFCURVE",
"588 641 OFFCURVE",
"628 620 CURVE",
"628 680 LINE",
"591 700 OFFCURVE",
"551 712 OFFCURVE",
"503 712 CURVE SMOOTH",
"409 712 OFFCURVE",
"361 651 OFFCURVE",
"361 561 CURVE SMOOTH",
"361 0 LINE"
);
},
{
closed = 1;
nodes = (
"660 0 LINE",
"660 507 LINE",
"599 507 LINE",
"599 0 LINE"
);
},
{
closed = 1;
nodes = (
"630 455 LINE",
"630 507 LINE",
"268 507 LINE",
"268 455 LINE"
);
}
);
width = 736;
},
{
layerId = "9624E7F4-80FA-4A11-8396-8F8611ED4CD7";
name = Bold;
paths = (
{
closed = 1;
nodes = (
"531 0 LINE",
"531 526 LINE SMOOTH",
"531 587 OFFCURVE",
"558 603 OFFCURVE",
"604 603 CURVE SMOOTH",
"661 603 OFFCURVE",
"718 583 OFFCURVE",
"769 560 CURVE",
"769 678 LINE",
"717 702 OFFCURVE",
"653 720 OFFCURVE",
"580 720 CURVE SMOOTH",
"459 720 OFFCURVE",
"386 650 OFFCURVE",
"386 526 CURVE SMOOTH",
"386 0 LINE"
);
},
{
closed = 1;
nodes = (
"336 400 LINE",
"336 507 LINE",
"30 507 LINE",
"30 400 LINE"
);
},
{
closed = 1;
nodes = (
"241 0 LINE",
"241 526 LINE SMOOTH",
"241 587 OFFCURVE",
"268 603 OFFCURVE",
"314 603 CURVE SMOOTH",
"357 603 OFFCURVE",
"424 579 OFFCURVE",
"455 564 CURVE",
"465 681 LINE",
"432 698 OFFCURVE",
"355 720 OFFCURVE",
"290 720 CURVE SMOOTH",
"169 720 OFFCURVE",
"96 650 OFFCURVE",
"96 526 CURVE SMOOTH",
"96 0 LINE"
);
},
{
closed = 1;
nodes = (
"749 400 LINE",
"749 507 LINE",
"320 507 LINE",
"320 400 LINE"
);
},
{
closed = 1;
nodes = (
"822 0 LINE",
"822 507 LINE",
"676 507 LINE",
"676 0 LINE"
);
}
);
width = 970;
}
);
unicode = FB03;
},
{
color = 1;
glyphname = f_f_l;
lastChange = "2015-08-06 15:22:25 +0000";
layers = (
{
layerId = "7C6C6D54-BD7C-484C-BA4C-283093F5BAFD";
name = Light;
paths = (
{
closed = 1;
nodes = (
"184 0 LINE",
"184 560 LINE SMOOTH",
"184 627 OFFCURVE",
"219 654 OFFCURVE",
"267 654 CURVE SMOOTH",
"326 654 OFFCURVE",
"366 635 OFFCURVE",
"403 611 CURVE",
"413 671 LINE",
"377 693 OFFCURVE",
"321 712 OFFCURVE",
"270 712 CURVE SMOOTH",
"171 712 OFFCURVE",
"123 651 OFFCURVE",
"123 561 CURVE SMOOTH",
"123 0 LINE"
);
},
{
closed = 1;
nodes = (
"300 455 LINE",
"300 507 LINE",
"30 507 LINE",
"30 455 LINE"
);
},
{
closed = 1;
nodes = (
"423 0 LINE",
"423 560 LINE SMOOTH",
"423 634 OFFCURVE",
"462 654 OFFCURVE",
"506 654 CURVE SMOOTH",
"559 654 OFFCURVE",
"610 629 OFFCURVE",
"651 601 CURVE",
"651 667 LINE",
"615 690 OFFCURVE",
"557 712 OFFCURVE",
"503 712 CURVE SMOOTH",
"411 712 OFFCURVE",
"362 653 OFFCURVE",
"362 561 CURVE SMOOTH",
"362 0 LINE"
);
},
{
closed = 1;
nodes = (
"539 455 LINE",
"539 507 LINE",
"269 507 LINE",
"269 455 LINE"
);
},
{
closed = 1;
nodes = (
"651 0 LINE",
"651 648 LINE",
"590 648 LINE",
"590 0 LINE"
);
}
);
width = 727;
},
{
layerId = "9624E7F4-80FA-4A11-8396-8F8611ED4CD7";
name = Bold;
paths = (
{
closed = 1;
nodes = (
"531 0 LINE",
"531 526 LINE SMOOTH",
"531 589 OFFCURVE",
"560 603 OFFCURVE",
"609 603 CURVE SMOOTH",
"676 603 OFFCURVE",
"770 566 OFFCURVE",
"823 529 CURVE",
"823 657 LINE",
"745 694 OFFCURVE",
"675 720 OFFCURVE",
"580 720 CURVE SMOOTH",
"459 720 OFFCURVE",
"386 650 OFFCURVE",
"386 526 CURVE SMOOTH",
"386 0 LINE"
);
},
{
closed = 1;
nodes = (
"336 400 LINE",
"336 507 LINE",
"30 507 LINE",
"30 400 LINE"
);
},
{
closed = 1;
nodes = (
"241 0 LINE",
"241 526 LINE SMOOTH",
"241 587 OFFCURVE",
"268 603 OFFCURVE",
"314 603 CURVE SMOOTH",
"357 603 OFFCURVE",
"424 579 OFFCURVE",
"455 564 CURVE",
"465 681 LINE",
"432 698 OFFCURVE",
"355 720 OFFCURVE",
"290 720 CURVE SMOOTH",
"169 720 OFFCURVE",
"96 650 OFFCURVE",
"96 526 CURVE SMOOTH",
"96 0 LINE"
);
},
{
closed = 1;
nodes = (
"626 400 LINE",
"626 507 LINE",
"320 507 LINE",
"320 400 LINE"
);
},
{
closed = 1;
nodes = (
"823 0 LINE",
"823 651 LINE",
"677 707 LINE",
"677 0 LINE"
);
}
);
width = 883;
}
);
unicode = FB04;
},
{
color = 3;
glyphname = fi;
lastChange = "2015-08-06 15:40:23 +0000";
layers = (
{
layerId = "7C6C6D54-BD7C-484C-BA4C-283093F5BAFD";
name = Light;
paths = (
{
closed = 1;
nodes = (
"184 0 LINE",
"184 560 LINE SMOOTH",
"184 627 OFFCURVE",
"216 654 OFFCURVE",
"262 654 CURVE SMOOTH",
"314 654 OFFCURVE",
"350 641 OFFCURVE",
"390 620 CURVE",
"390 680 LINE",
"353 700 OFFCURVE",
"313 712 OFFCURVE",
"265 712 CURVE SMOOTH",
"171 712 OFFCURVE",
"123 651 OFFCURVE",
"123 561 CURVE SMOOTH",
"123 0 LINE"
);
},
{
closed = 1;
nodes = (
"392 455 LINE",
"392 507 LINE",
"30 507 LINE",
"30 455 LINE"
);
},
{
closed = 1;
nodes = (
"422 0 LINE",
"422 507 LINE",
"361 507 LINE",
"361 0 LINE"
);
}
);
width = 498;
},
{
layerId = "9624E7F4-80FA-4A11-8396-8F8611ED4CD7";
name = Bold;
paths = (
{
closed = 1;
nodes = (
"241 0 LINE",
"241 526 LINE SMOOTH",
"241 587 OFFCURVE",
"268 603 OFFCURVE",
"314 603 CURVE SMOOTH",
"371 603 OFFCURVE",
"428 583 OFFCURVE",
"479 560 CURVE",
"479 678 LINE",
"427 702 OFFCURVE",
"363 720 OFFCURVE",
"290 720 CURVE SMOOTH",
"169 720 OFFCURVE",
"96 650 OFFCURVE",
"96 526 CURVE SMOOTH",
"96 0 LINE"
);
},
{
closed = 1;
nodes = (
"459 400 LINE",
"459 507 LINE",
"30 507 LINE",
"30 400 LINE"
);
},
{
closed = 1;
nodes = (
"532 0 LINE",
"532 507 LINE",
"386 507 LINE",
"386 0 LINE"
);
}
);
width = 575;
}
);
unicode = FB01;
},
{
color = 3;
glyphname = fl;
lastChange = "2015-08-06 15:39:19 +0000";
layers = (
{
layerId = "7C6C6D54-BD7C-484C-BA4C-283093F5BAFD";
name = Light;
paths = (
{
closed = 1;
nodes = (
"184 0 LINE",
"184 560 LINE SMOOTH",
"184 634 OFFCURVE",
"223 654 OFFCURVE",
"267 654 CURVE SMOOTH",
"320 654 OFFCURVE",
"371 629 OFFCURVE",
"412 601 CURVE",
"412 667 LINE",
"376 690 OFFCURVE",
"318 712 OFFCURVE",
"264 712 CURVE SMOOTH",
"172 712 OFFCURVE",
"123 653 OFFCURVE",
"123 561 CURVE SMOOTH",
"123 0 LINE"
);
},
{
closed = 1;
nodes = (
"300 455 LINE",
"300 507 LINE",
"30 507 LINE",
"30 455 LINE"
);
},
{
closed = 1;
nodes = (
"412 0 LINE",
"412 648 LINE",
"351 648 LINE",
"351 0 LINE"
);
}
);
width = 488;
},
{
layerId = "9624E7F4-80FA-4A11-8396-8F8611ED4CD7";
name = Bold;
paths = (
{
closed = 1;
nodes = (
"241 0 LINE",
"241 526 LINE SMOOTH",
"241 589 OFFCURVE",
"270 603 OFFCURVE",
"319 603 CURVE SMOOTH",
"386 603 OFFCURVE",
"480 566 OFFCURVE",
"533 529 CURVE",
"533 657 LINE",
"455 694 OFFCURVE",
"385 720 OFFCURVE",
"290 720 CURVE SMOOTH",
"169 720 OFFCURVE",
"96 650 OFFCURVE",
"96 526 CURVE SMOOTH",
"96 0 LINE"
);
},
{
closed = 1;
nodes = (
"336 400 LINE",
"336 507 LINE",
"30 507 LINE",
"30 400 LINE"
);
},
{
closed = 1;
nodes = (
"533 0 LINE",
"533 651 LINE",
"387 707 LINE",
"387 0 LINE"
);
}
);
width = 593;
}
);
unicode = FB02;
},
{
color = 3;
glyphname = ordfeminine;
lastChange = "2015-08-06 15:39:19 +0000";
layers = (
{
layerId = "7C6C6D54-BD7C-484C-BA4C-283093F5BAFD";
name = Light;
paths = (
{
closed = 1;
nodes = (
"184 388 OFFCURVE",
"228 412 OFFCURVE",
"256 446 CURVE",
"256 392 LINE",
"307 392 LINE",
"307 661 LINE SMOOTH",
"307 764 OFFCURVE",
"264 825 OFFCURVE",
"151 825 CURVE SMOOTH",
"109 825 OFFCURVE",
"60 812 OFFCURVE",
"31 794 CURVE",
"31 741 LINE",
"63 763 OFFCURVE",
"111 777 OFFCURVE",
"150 777 CURVE SMOOTH",
"231 777 OFFCURVE",
"256 733 OFFCURVE",
"256 661 CURVE SMOOTH",
"256 527 LINE",
"256 481 OFFCURVE",
"210 437 OFFCURVE",
"145 437 CURVE SMOOTH",
"84 437 OFFCURVE",
"53 469 OFFCURVE",
"53 513 CURVE SMOOTH",
"53 567 OFFCURVE",
"100 593 OFFCURVE",
"187 593 CURVE SMOOTH",
"267 593 LINE",
"267 643 LINE",
"175 643 LINE SMOOTH",
"71 643 OFFCURVE",
"0 596 OFFCURVE",
"0 512 CURVE SMOOTH",
"0 434 OFFCURVE",
"56 388 OFFCURVE",
"134 388 CURVE SMOOTH"
);
}
);
width = 337;
},
{
layerId = "9624E7F4-80FA-4A11-8396-8F8611ED4CD7";
name = Bold;
paths = (
{
closed = 1;
nodes = (
"205 389 OFFCURVE",
"237 416 OFFCURVE",
"250 444 CURVE",
"250 392 LINE",
"370 392 LINE",
"370 668 LINE SMOOTH",
"370 778 OFFCURVE",
"311 828 OFFCURVE",
"189 828 CURVE SMOOTH",
"123 828 OFFCURVE",
"68 814 OFFCURVE",
"42 800 CURVE",
"42 689 LINE",
"75 710 OFFCURVE",
"122 727 OFFCURVE",
"171 727 CURVE SMOOTH",
"226 727 OFFCURVE",
"244 706 OFFCURVE",
"244 673 CURVE SMOOTH",
"244 536 LINE",
"244 500 OFFCURVE",
"223 476 OFFCURVE",
"189 476 CURVE SMOOTH",
"154 476 OFFCURVE",
"138 492 OFFCURVE",
"138 519 CURVE SMOOTH",
"138 547 OFFCURVE",
"161 568 OFFCURVE",
"203 568 CURVE SMOOTH",
"272 568 LINE",
"272 645 LINE",
"189 645 LINE SMOOTH",
"67 645 OFFCURVE",
"10 592 OFFCURVE",
"10 514 CURVE SMOOTH",
"10 444 OFFCURVE",
"56 389 OFFCURVE",
"142 389 CURVE SMOOTH"
);
}
);
width = 400;
}
);
unicode = 00AA;
},
{
color = 3;
glyphname = ordmasculine;
lastChange = "2015-08-06 15:39:19 +0000";
layers = (
{
layerId = "7C6C6D54-BD7C-484C-BA4C-283093F5BAFD";
name = Light;
paths = (
{
closed = 1;
nodes = (
"301 386 OFFCURVE",
"368 483 OFFCURVE",
"368 606 CURVE SMOOTH",
"368 727 OFFCURVE",
"305 827 OFFCURVE",
"177 827 CURVE SMOOTH",
"63 827 OFFCURVE",
"-10 727 OFFCURVE",
"-10 606 CURVE SMOOTH",
"-10 483 OFFCURVE",
"58 386 OFFCURVE",
"177 386 CURVE SMOOTH"
);
},
{
closed = 1;
nodes = (
"94 434 OFFCURVE",
"43 514 OFFCURVE",
"43 606 CURVE SMOOTH",
"43 695 OFFCURVE",
"89 779 OFFCURVE",
"177 779 CURVE SMOOTH",
"279 779 OFFCURVE",
"314 695 OFFCURVE",
"314 606 CURVE SMOOTH",
"314 514 OFFCURVE",
"270 434 OFFCURVE",
"177 434 CURVE SMOOTH"
);
}
);
width = 358;
},
{
layerId = "9624E7F4-80FA-4A11-8396-8F8611ED4CD7";
name = Bold;
paths = (
{
closed = 1;
nodes = (
"358 386 OFFCURVE",
"432 484 OFFCURVE",
"432 610 CURVE SMOOTH",
"432 733 OFFCURVE",
"361 830 OFFCURVE",
"222 830 CURVE SMOOTH",
"90 830 OFFCURVE",
"10 733 OFFCURVE",
"10 602 CURVE SMOOTH",
"10 482 OFFCURVE",
"81 386 OFFCURVE",
"222 386 CURVE SMOOTH"
);
},
{
closed = 1;
nodes = (
"164 482 OFFCURVE",
"139 538 OFFCURVE",
"139 607 CURVE SMOOTH",
"139 677 OFFCURVE",
"163 733 OFFCURVE",
"220 733 CURVE SMOOTH",
"283 733 OFFCURVE",
"303 675 OFFCURVE",
"303 605 CURVE SMOOTH",
"303 537 OFFCURVE",
"280 482 OFFCURVE",
"223 482 CURVE SMOOTH"
);
}
);
width = 442;
}
);
unicode = 00BA;
},
{
color = 3;
glyphname = Delta.math;
lastChange = "2015-08-06 15:39:19 +0000";
layers = (
{
layerId = "7C6C6D54-BD7C-484C-BA4C-283093F5BAFD";
name = Light;
paths = (
{
closed = 1;
nodes = (
"77 0 LINE",
"170 260 LINE SMOOTH",
"277 558 OFFCURVE",
"303 625 OFFCURVE",
"303 625 CURVE",
"303 625 OFFCURVE",
"329 559 OFFCURVE",
"433 261 CURVE SMOOTH",
"524 0 LINE",
"571 0 LINE",
"571 57 LINE",
"348 674 LINE",
"258 674 LINE",
"30 57 LINE",
"30 0 LINE"
);
},
{
closed = 1;
nodes = (
"550 0 LINE",
"550 55 LINE",
"52 55 LINE",
"52 0 LINE"
);
}
);
width = 601;
},
{
layerId = "9624E7F4-80FA-4A11-8396-8F8611ED4CD7";
name = Bold;
paths = (
{
closed = 1;
nodes = (
"158 0 LINE",
"245 268 LINE",
"316 488 OFFCURVE",
"340 562 OFFCURVE",
"340 562 CURVE",
"340 562 OFFCURVE",
"364 488 OFFCURVE",
"435 268 CURVE",
"522 0 LINE",
"646 0 LINE",
"646 101 LINE",
"439 674 LINE",
"245 674 LINE",
"35 101 LINE",
"35 0 LINE"
);
},
{
closed = 1;
nodes = (
"561 0 LINE",
"561 124 LINE",
"146 124 LINE",
"146 0 LINE"
);
}
);
width = 681;
}
);
unicode = 2206;
},
{
color = 3;
glyphname = Omega.math;
lastChange = "2015-08-06 15:39:19 +0000";
layers = (
{
layerId = "7C6C6D54-BD7C-484C-BA4C-283093F5BAFD";
name = Light;
paths = (
{
closed = 1;
nodes = (
"344 57 LINE",
"224 77 OFFCURVE",
"153 196 OFFCURVE",
"153 345 CURVE SMOOTH",
"153 514 OFFCURVE",
"239 628 OFFCURVE",
"384 628 CURVE SMOOTH",
"534 628 OFFCURVE",
"616 514 OFFCURVE",
"616 345 CURVE SMOOTH",
"616 197 OFFCURVE",
"561 78 OFFCURVE",
"434 57 CURVE",
"434 17 LINE",
"605 33 OFFCURVE",
"680 164 OFFCURVE",
"680 345 CURVE SMOOTH",
"680 547 OFFCURVE",
"572 688 OFFCURVE",
"384 688 CURVE SMOOTH",
"203 688 OFFCURVE",
"89 547 OFFCURVE",
"89 345 CURVE SMOOTH",
"89 163 OFFCURVE",
"176 32 OFFCURVE",
"344 17 CURVE"
);
},
{
closed = 1;
nodes = (
"344 0 LINE",
"344 57 LINE",
"55 57 LINE",
"55 0 LINE"
);
},
{
closed = 1;
nodes = (
"723 0 LINE",
"723 57 LINE",
"434 57 LINE",
"434 0 LINE"
);
}
);
width = 778;
},
{
layerId = "9624E7F4-80FA-4A11-8396-8F8611ED4CD7";
name = Bold;
paths = (
{
closed = 1;
nodes = (
"350 124 LINE",
"275 147 OFFCURVE",
"244 237 OFFCURVE",
"244 344 CURVE SMOOTH",
"244 470 OFFCURVE",
"297 545 OFFCURVE",
"397 545 CURVE SMOOTH",
"497 545 OFFCURVE",
"550 470 OFFCURVE",
"550 344 CURVE SMOOTH",
"550 235 OFFCURVE",
"517 145 OFFCURVE",
"440 124 CURVE",
"440 54 LINE",
"598 71 OFFCURVE",
"715 172 OFFCURVE",
"715 344 CURVE SMOOTH",
"715 551 OFFCURVE",
"598 685 OFFCURVE",
"397 685 CURVE SMOOTH",
"197 685 OFFCURVE",
"79 550 OFFCURVE",
"79 344 CURVE SMOOTH",
"79 171 OFFCURVE",
"193 71 OFFCURVE",
"350 54 CURVE"
);
},
{
closed = 1;
nodes = (
"350 0 LINE",
"350 124 LINE",
"45 124 LINE",
"45 0 LINE"
);
},
{
closed = 1;
nodes = (
"745 0 LINE",
"745 124 LINE",
"440 124 LINE",
"440 0 LINE"
);
}
);
width = 790;
}
);
unicode = 2126;
},
{
color = 3;
glyphname = pi;
lastChange = "2015-08-06 15:39:19 +0000";
layers = (
{
layerId = "7C6C6D54-BD7C-484C-BA4C-283093F5BAFD";
name = Light;
paths = (
{
closed = 1;
nodes = (
"123 0 OFFCURVE",
"186 32 OFFCURVE",
"186 152 CURVE SMOOTH",
"186 467 LINE",
"125 467 LINE",
"125 151 LINE",
"125 74 OFFCURVE",
"102 56 OFFCURVE",
"41 56 CURVE",
"41 0 LINE"
);
},
{
closed = 1;
nodes = (
"456 0 LINE",
"456 467 LINE",
"395 467 LINE",
"395 0 LINE"
);
},
{
closed = 1;
nodes = (
"556 455 LINE",
"556 507 LINE",
"25 507 LINE",
"25 455 LINE"
);
}
);
width = 576;
},
{
layerId = "9624E7F4-80FA-4A11-8396-8F8611ED4CD7";
name = Bold;
paths = (
{
closed = 1;
nodes = (
"182 0 OFFCURVE",
"246 51 OFFCURVE",
"246 216 CURVE SMOOTH",
"246 466 LINE",
"100 466 LINE",
"100 201 LINE",
"100 133 OFFCURVE",
"82 119 OFFCURVE",
"39 119 CURVE",
"39 0 LINE"
);
},
{
closed = 1;
nodes = (
"516 0 LINE",
"516 466 LINE",
"370 466 LINE",
"370 0 LINE"
);
},
{
closed = 1;
nodes = (
"596 400 LINE",
"596 507 LINE",
"20 507 LINE",
"20 400 LINE"
);
}
);
width = 606;
}
);
unicode = 03C0;
},
{
color = 3;
glyphname = mu.math;
lastChange = "2015-08-06 15:39:19 +0000";
layers = (
{
layerId = "7C6C6D54-BD7C-484C-BA4C-283093F5BAFD";
name = Light;
paths = (
{
closed = 1;
nodes = (
"359 -7 OFFCURVE",
"420 57 OFFCURVE",
"417 206 CURVE",
"398 225 LINE",
"398 123 OFFCURVE",
"348 52 OFFCURVE",
"268 52 CURVE SMOOTH",
"203 52 OFFCURVE",
"137 92 OFFCURVE",
"137 172 CURVE SMOOTH",
"137 467 LINE",
"96 467 LINE",
"96 155 LINE SMOOTH",
"96 59 OFFCURVE",
"158 -7 OFFCURVE",
"257 -7 CURVE SMOOTH"
);
},
{
closed = 1;
nodes = (
"137 -179 LINE",
"137 507 LINE",
"76 507 LINE",
"76 -179 LINE"
);
},
{
closed = 1;
nodes = (
"459 0 LINE",
"459 507 LINE",
"398 507 LINE",
"398 0 LINE"
);
}
);
width = 535;
},
{
layerId = "9624E7F4-80FA-4A11-8396-8F8611ED4CD7";
name = Bold;
paths = (
{
closed = 1;
nodes = (
"365 -4 OFFCURVE",
"408 82 OFFCURVE",
"396 177 CURVE",
"379 239 LINE",
"379 143 OFFCURVE",
"350 112 OFFCURVE",
"294 112 CURVE SMOOTH",
"245 112 OFFCURVE",
"206 142 OFFCURVE",
"206 201 CURVE SMOOTH",
"206 431 LINE",
"110 431 LINE",
"110 168 LINE SMOOTH",
"110 60 OFFCURVE",
"186 -4 OFFCURVE",
"275 -4 CURVE SMOOTH"
);
},
{
closed = 1;
nodes = (
"206 -180 LINE",
"206 507 LINE",
"60 507 LINE",
"60 -180 LINE"
);
},
{
closed = 1;
nodes = (
"525 0 LINE",
"525 507 LINE",
"379 507 LINE",
"379 0 LINE"
);
}
);
width = 585;
}
);
unicode = 00B5;
},
{
color = 3;
glyphname = zero;
lastChange = "2015-08-06 15:39:19 +0000";
layers = (
{
layerId = "7C6C6D54-BD7C-484C-BA4C-283093F5BAFD";
name = Light;
paths = (
{
closed = 1;
nodes = (
"417 -8 OFFCURVE",
"498 131 OFFCURVE",
"498 329 CURVE SMOOTH",
"498 537 OFFCURVE",
"403 660 OFFCURVE",
"269 660 CURVE SMOOTH",
"142 660 OFFCURVE",
"45 537 OFFCURVE",
"45 329 CURVE SMOOTH",
"45 125 OFFCURVE",
"137 -8 OFFCURVE",
"269 -8 CURVE SMOOTH"
);
},
{
closed = 1;
nodes = (
"185 52 OFFCURVE",
"108 148 OFFCURVE",
"108 329 CURVE SMOOTH",
"108 513 OFFCURVE",
"192 600 OFFCURVE",
"269 600 CURVE SMOOTH",
"357 600 OFFCURVE",
"435 513 OFFCURVE",
"435 329 CURVE SMOOTH",
"435 148 OFFCURVE",
"367 52 OFFCURVE",
"269 52 CURVE SMOOTH"
);
}
);
width = 543;
},
{
layerId = "9624E7F4-80FA-4A11-8396-8F8611ED4CD7";
name = Bold;
paths = (
{
closed = 1;
nodes = (
"435 -8 OFFCURVE",
"512 132 OFFCURVE",
"512 330 CURVE SMOOTH",
"512 531 OFFCURVE",
"435 668 OFFCURVE",
"273 668 CURVE SMOOTH",
"111 668 OFFCURVE",
"35 531 OFFCURVE",
"35 330 CURVE SMOOTH",
"35 132 OFFCURVE",
"111 -8 OFFCURVE",
"273 -8 CURVE SMOOTH"
);
},
{
closed = 1;
nodes = (
"212 122 OFFCURVE",
"184 195 OFFCURVE",
"184 330 CURVE SMOOTH",
"184 467 OFFCURVE",
"212 538 OFFCURVE",
"273 538 CURVE SMOOTH",
"333 538 OFFCURVE",
"363 467 OFFCURVE",
"363 330 CURVE SMOOTH",
"363 195 OFFCURVE",
"333 122 OFFCURVE",
"273 122 CURVE SMOOTH"
);
}
);
width = 547;
}
);
unicode = 0030;
},
{
color = 3;
glyphname = one;
lastChange = "2015-08-06 15:39:19 +0000";
layers = (
{
layerId = "7C6C6D54-BD7C-484C-BA4C-283093F5BAFD";
name = Light;
paths = (
{
closed = 1;
nodes = (
"228 0 LINE",
"228 654 LINE",
"167 654 LINE",
"20 564 LINE",
"20 495 LINE",
"167 587 LINE",
"167 0 LINE"
);
}
);
width = 308;
},
{
layerId = "9624E7F4-80FA-4A11-8396-8F8611ED4CD7";
name = Bold;
paths = (
{
closed = 1;
nodes = (
"320 0 LINE",
"320 654 LINE",
"194 654 LINE",
"10 547 LINE",
"10 398 LINE",
"175 497 LINE",
"175 0 LINE"
);
}
);
width = 380;
}
);
unicode = 0031;
},
{
color = 3;
glyphname = two;
lastChange = "2015-08-06 15:39:19 +0000";
layers = (
{
layerId = "7C6C6D54-BD7C-484C-BA4C-283093F5BAFD";
name = Light;
paths = (
{
closed = 1;
nodes = (
"274 164 OFFCURVE",
"424 324 OFFCURVE",
"424 466 CURVE SMOOTH",
"424 598 OFFCURVE",
"323 660 OFFCURVE",
"220 660 CURVE SMOOTH",
"167 660 OFFCURVE",
"108 641 OFFCURVE",
"64 606 CURVE",
"64 544 LINE",
"113 580 OFFCURVE",
"172 602 OFFCURVE",
"218 602 CURVE SMOOTH",
"301 602 OFFCURVE",
"360 556 OFFCURVE",
"360 463 CURVE SMOOTH",
"360 329 OFFCURVE",
"197 175 OFFCURVE",
"40 55 CURVE",
"77 16 LINE"
);
},
{
closed = 1;
nodes = (
"447 0 LINE",
"447 55 LINE",
"88 55 LINE",
"40 55 LINE",
"40 0 LINE"
);
}
);
width = 492;
},
{
layerId = "9624E7F4-80FA-4A11-8396-8F8611ED4CD7";
name = Bold;
paths = (
{
closed = 1;
nodes = (
"318 157 OFFCURVE",
"454 306 OFFCURVE",
"454 460 CURVE SMOOTH",
"454 591 OFFCURVE",
"364 663 OFFCURVE",
"231 663 CURVE SMOOTH",
"160 663 OFFCURVE",
"83 636 OFFCURVE",
"41 605 CURVE",
"41 464 LINE",
"82 498 OFFCURVE",
"145 527 OFFCURVE",
"202 527 CURVE SMOOTH",
"272 527 OFFCURVE",
"303 490 OFFCURVE",
"303 436 CURVE SMOOTH",
"303 335 OFFCURVE",
"153 197 OFFCURVE",
"30 113 CURVE",
"80 26 LINE"
);
},
{
closed = 1;
nodes = (
"466 0 LINE",
"466 124 LINE",
"224 124 LINE",
"30 113 LINE",
"30 0 LINE"
);
}
);
width = 501;
}
);
unicode = 0032;
},
{
color = 3;
glyphname = three;
lastChange = "2015-08-06 15:39:19 +0000";
layers = (
{
layerId = "7C6C6D54-BD7C-484C-BA4C-283093F5BAFD";
name = Light;
paths = (
{
closed = 1;
nodes = (
"337 -6 OFFCURVE",
"406 80 OFFCURVE",
"406 180 CURVE SMOOTH",
"406 275 OFFCURVE",
"333 335 OFFCURVE",
"238 338 CURVE",
"237 318 LINE",
"340 340 OFFCURVE",
"386 411 OFFCURVE",
"386 491 CURVE SMOOTH",
"386 578 OFFCURVE",
"323 660 OFFCURVE",
"188 660 CURVE SMOOTH",
"137 660 OFFCURVE",
"85 642 OFFCURVE",
"58 624 CURVE",
"58 562 LINE",
"93 585 OFFCURVE",
"144 602 OFFCURVE",
"189 602 CURVE SMOOTH",
"269 602 OFFCURVE",
"322 565 OFFCURVE",
"322 485 CURVE SMOOTH",
"322 405 OFFCURVE",
"258 358 OFFCURVE",
"186 358 CURVE",
"186 303 LINE",
"282 303 OFFCURVE",
"343 262 OFFCURVE",
"343 182 CURVE SMOOTH",
"343 107 OFFCURVE",
"292 52 OFFCURVE",
"200 52 CURVE SMOOTH",
"144 52 OFFCURVE",
"90 63 OFFCURVE",
"40 89 CURVE",
"40 27 LINE",
"84 6 OFFCURVE",
"150 -6 OFFCURVE",
"199 -6 CURVE SMOOTH"
);
},
{
closed = 1;
nodes = (
"225 303 LINE",
"225 358 LINE",
"142 358 LINE",
"142 303 LINE"
);
}
);
width = 461;
},
{
layerId = "9624E7F4-80FA-4A11-8396-8F8611ED4CD7";
name = Bold;
paths = (
{
closed = 1;
nodes = (
"362 -5 OFFCURVE",
"448 71 OFFCURVE",
"448 180 CURVE SMOOTH",
"448 287 OFFCURVE",
"372 342 OFFCURVE",
"251 335 CURVE",
"251 311 LINE",
"369 318 OFFCURVE",
"435 383 OFFCURVE",
"435 481 CURVE SMOOTH",
"435 587 OFFCURVE",
"348 663 OFFCURVE",
"205 663 CURVE SMOOTH",
"149 663 OFFCURVE",
"92 644 OFFCURVE",
"56 626 CURVE",
"56 490 LINE",
"90 511 OFFCURVE",
"146 533 OFFCURVE",
"195 533 CURVE SMOOTH",
"248 533 OFFCURVE",
"285 513 OFFCURVE",
"285 464 CURVE SMOOTH",
"285 413 OFFCURVE",
"229 392 OFFCURVE",
"164 392 CURVE",
"164 272 LINE",
"269 272 OFFCURVE",
"299 238 OFFCURVE",
"299 199 CURVE SMOOTH",
"299 158 OFFCURVE",
"263 125 OFFCURVE",
"195 125 CURVE SMOOTH",
"129 125 OFFCURVE",
"77 143 OFFCURVE",
"30 169 CURVE",
"30 29 LINE",
"75 7 OFFCURVE",
"145 -5 OFFCURVE",
"207 -5 CURVE SMOOTH"
);
},
{
closed = 1;
nodes = (
"288 272 LINE",
"288 392 LINE",
"129 392 LINE",
"129 272 LINE"
);
}
);
width = 483;
}
);
unicode = 0033;
},
{
color = 3;
glyphname = four;
lastChange = "2015-08-06 15:39:19 +0000";
layers = (
{
layerId = "7C6C6D54-BD7C-484C-BA4C-283093F5BAFD";
name = Light;
paths = (
{
closed = 1;
nodes = (
"108 219 LINE",
"369 654 LINE",
"307 654 LINE",
"45 219 LINE"
);
},
{
closed = 1;
nodes = (
"509 164 LINE",
"509 219 LINE",
"45 219 LINE",
"45 164 LINE"
);
},
{
closed = 1;
nodes = (
"408 0 LINE",
"408 654 LINE",
"348 654 LINE",
"348 0 LINE"
);
}
);
width = 534;
},
{
layerId = "9624E7F4-80FA-4A11-8396-8F8611ED4CD7";
name = Bold;
paths = (
{
closed = 1;
nodes = (
"173 263 LINE",
"364 656 LINE",
"230 656 LINE",
"30 263 LINE"
);
},
{
closed = 1;
nodes = (
"542 139 LINE",
"542 263 LINE",
"30 263 LINE",
"30 139 LINE"
);
},
{
closed = 1;
nodes = (
"462 0 LINE",
"462 656 LINE",
"317 656 LINE",
"317 0 LINE"
);
}
);
width = 562;
}
);
unicode = 0034;
},
{
color = 3;
glyphname = five;
lastChange = "2015-08-06 15:39:19 +0000";
layers = (
{
layerId = "7C6C6D54-BD7C-484C-BA4C-283093F5BAFD";
name = Light;
paths = (
{
closed = 1;
nodes = (
"374 -8 OFFCURVE",
"462 73 OFFCURVE",
"462 200 CURVE SMOOTH",
"462 318 OFFCURVE",
"376 392 OFFCURVE",
"247 392 CURVE SMOOTH",
"202 392 OFFCURVE",
"150 381 OFFCURVE",
"98 361 CURVE",
"98 299 LINE",
"141 318 OFFCURVE",
"194 334 OFFCURVE",
"250 334 CURVE SMOOTH",
"331 334 OFFCURVE",
"398 291 OFFCURVE",
"398 203 CURVE SMOOTH",
"398 98 OFFCURVE",
"335 50 OFFCURVE",
"221 50 CURVE SMOOTH",
"169 50 OFFCURVE",
"105 64 OFFCURVE",
"65 87 CURVE",
"65 25 LINE",
"114 2 OFFCURVE",
"179 -8 OFFCURVE",
"231 -8 CURVE SMOOTH"
);
},
{
closed = 1;
nodes = (
"160 351 LINE",
"160 609 LINE",
"98 609 LINE",
"98 351 LINE"
);
},
{
closed = 1;
nodes = (
"416 599 LINE",
"416 654 LINE",
"98 654 LINE",
"98 599 LINE"
);
}
);
width = 512;
},
{
layerId = "9624E7F4-80FA-4A11-8396-8F8611ED4CD7";
name = Bold;
paths = (
{
closed = 1;
nodes = (
"381 -6 OFFCURVE",
"470 87 OFFCURVE",
"470 219 CURVE SMOOTH",
"470 343 OFFCURVE",
"394 424 OFFCURVE",
"249 424 CURVE SMOOTH",
"185 424 OFFCURVE",
"114 400 OFFCURVE",
"63 370 CURVE",
"63 266 LINE",
"91 279 OFFCURVE",
"154 299 OFFCURVE",
"211 299 CURVE SMOOTH",
"286 299 OFFCURVE",
"321 268 OFFCURVE",
"321 221 CURVE SMOOTH",
"321 163 OFFCURVE",
"280 125 OFFCURVE",
"187 125 CURVE SMOOTH",
"130 125 OFFCURVE",
"72 144 OFFCURVE",
"35 167 CURVE",
"35 29 LINE",
"85 3 OFFCURVE",
"148 -6 OFFCURVE",
"211 -6 CURVE SMOOTH"
);
},
{
closed = 1;
nodes = (
"205 338 LINE",
"205 617 LINE",
"63 617 LINE",
"63 338 LINE"
);
},
{
closed = 1;
nodes = (
"430 532 LINE",
"430 656 LINE",
"63 656 LINE",
"63 532 LINE"
);
}
);
width = 500;
}
);
unicode = 0035;
},
{
color = 3;
glyphname = six;
lastChange = "2015-08-06 15:39:19 +0000";
layers = (
{
layerId = "7C6C6D54-BD7C-484C-BA4C-283093F5BAFD";
name = Light;
paths = (
{
closed = 1;
nodes = (
"403 -8 OFFCURVE",
"484 79 OFFCURVE",
"484 213 CURVE SMOOTH",
"484 336 OFFCURVE",
"413 421 OFFCURVE",
"290 421 CURVE SMOOTH",
"219 421 OFFCURVE",
"138 383 OFFCURVE",
"99 322 CURVE",
"99 259 LINE",
"132 313 OFFCURVE",
"206 363 OFFCURVE",
"289 363 CURVE SMOOTH",
"365 363 OFFCURVE",
"420 308 OFFCURVE",
"420 215 CURVE SMOOTH",
"420 118 OFFCURVE",
"369 49 OFFCURVE",
"285 49 CURVE SMOOTH",
"189 49 OFFCURVE",
"117 130 OFFCURVE",
"117 295 CURVE SMOOTH",
"117 455 OFFCURVE",
"190 617 OFFCURVE",
"349 617 CURVE SMOOTH",
"383 617 OFFCURVE",
"413 610 OFFCURVE",
"439 598 CURVE",
"439 660 LINE",
"411 670 OFFCURVE",
"386 675 OFFCURVE",
"350 675 CURVE SMOOTH",
"155 675 OFFCURVE",
"57 499 OFFCURVE",
"57 295 CURVE SMOOTH",
"57 122 OFFCURVE",
"135 -8 OFFCURVE",
"285 -8 CURVE SMOOTH"
);
}
);
width = 523;
},
{
layerId = "9624E7F4-80FA-4A11-8396-8F8611ED4CD7";
name = Bold;
paths = (
{
closed = 1;
nodes = (
"428 -20 OFFCURVE",
"512 85 OFFCURVE",
"512 212 CURVE SMOOTH",
"512 341 OFFCURVE",
"435 422 OFFCURVE",
"321 422 CURVE SMOOTH",
"228 422 OFFCURVE",
"160 364 OFFCURVE",
"135 295 CURVE",
"141 196 LINE",
"175 252 OFFCURVE",
"216 299 OFFCURVE",
"281 299 CURVE SMOOTH",
"334 299 OFFCURVE",
"363 262 OFFCURVE",
"363 209 CURVE SMOOTH",
"363 149 OFFCURVE",
"332 110 OFFCURVE",
"280 110 CURVE SMOOTH",
"229 110 OFFCURVE",
"184 157 OFFCURVE",
"184 299 CURVE SMOOTH",
"184 427 OFFCURVE",
"245 536 OFFCURVE",
"370 536 CURVE SMOOTH",
"404 536 OFFCURVE",
"433 530 OFFCURVE",
"461 515 CURVE",
"461 650 LINE",
"436 658 OFFCURVE",
"396 666 OFFCURVE",
"358 666 CURVE SMOOTH",
"175 666 OFFCURVE",
"35 527 OFFCURVE",
"35 299 CURVE SMOOTH",
"35 112 OFFCURVE",
"112 -20 OFFCURVE",
"279 -20 CURVE SMOOTH"
);
}
);
width = 537;
}
);
unicode = 0036;
},
{
color = 3;
glyphname = seven;
lastChange = "2015-08-06 15:39:19 +0000";
layers = (
{
layerId = "7C6C6D54-BD7C-484C-BA4C-283093F5BAFD";
name = Light;
paths = (
{
closed = 1;
nodes = (
"158 0 LINE",
"433 599 LINE",
"368 599 LINE",
"92 0 LINE"
);
},
{
closed = 1;
nodes = (
"433 599 LINE",
"433 654 LINE",
"10 654 LINE",
"10 599 LINE"
);
}
);
width = 443;
},
{
layerId = "9624E7F4-80FA-4A11-8396-8F8611ED4CD7";
name = Bold;
paths = (
{
closed = 1;
nodes = (
"206 0 LINE",
"460 531 LINE",
"307 531 LINE",
"52 0 LINE"
);
},
{
closed = 1;
nodes = (
"460 531 LINE",
"460 655 LINE",
"20 655 LINE",
"20 531 LINE"
);
}
);
width = 480;
}
);
unicode = 0037;
},
{
color = 3;
glyphname = eight;
lastChange = "2015-08-06 15:39:19 +0000";
layers = (
{
layerId = "7C6C6D54-BD7C-484C-BA4C-283093F5BAFD";
name = Light;
paths = (
{
closed = 1;
nodes = (
"380 -8 OFFCURVE",
"478 58 OFFCURVE",
"478 167 CURVE SMOOTH",
"478 284 OFFCURVE",
"385 336 OFFCURVE",
"263 336 CURVE SMOOTH",
"143 336 OFFCURVE",
"55 272 OFFCURVE",
"55 162 CURVE SMOOTH",
"55 56 OFFCURVE",
"151 -8 OFFCURVE",
"263 -8 CURVE SMOOTH"
);
},
{
closed = 1;
nodes = (
"167 50 OFFCURVE",
"118 104 OFFCURVE",
"118 166 CURVE SMOOTH",
"118 233 OFFCURVE",
"160 296 OFFCURVE",
"264 297 CURVE",
"373 298 OFFCURVE",
"415 237 OFFCURVE",
"415 176 CURVE SMOOTH",
"415 110 OFFCURVE",
"366 50 OFFCURVE",
"264 50 CURVE SMOOTH"
);
},
{
closed = 1;
nodes = (
"191 355 OFFCURVE",
"129 392 OFFCURVE",
"129 479 CURVE SMOOTH",
"129 545 OFFCURVE",
"179 602 OFFCURVE",
"263 602 CURVE SMOOTH",
"352 602 OFFCURVE",
"398 547 OFFCURVE",
"398 481 CURVE SMOOTH",
"398 399 OFFCURVE",
"341 355 OFFCURVE",
"267 355 CURVE SMOOTH"
);
},
{
closed = 1;
nodes = (
"383 314 OFFCURVE",
"461 381 OFFCURVE",
"461 477 CURVE SMOOTH",
"461 602 OFFCURVE",
"360 660 OFFCURVE",
"263 660 CURVE SMOOTH",
"167 660 OFFCURVE",
"66 599 OFFCURVE",
"66 479 CURVE SMOOTH",
"66 378 OFFCURVE",
"144 314 OFFCURVE",
"263 314 CURVE SMOOTH"
);
}
);
width = 533;
},
{
layerId = "9624E7F4-80FA-4A11-8396-8F8611ED4CD7";
name = Bold;
paths = (
{
closed = 1;
nodes = (
"412 -10 OFFCURVE",
"510 67 OFFCURVE",
"510 182 CURVE SMOOTH",
"510 319 OFFCURVE",
"398 359 OFFCURVE",
"270 359 CURVE SMOOTH",
"144 359 OFFCURVE",
"35 305 OFFCURVE",
"35 177 CURVE SMOOTH",
"35 62 OFFCURVE",
"126 -10 OFFCURVE",
"270 -10 CURVE SMOOTH"
);
},
{
closed = 1;
nodes = (
"204 106 OFFCURVE",
"181 144 OFFCURVE",
"181 181 CURVE SMOOTH",
"181 222 OFFCURVE",
"207 265 OFFCURVE",
"271 265 CURVE SMOOTH",
"332 265 OFFCURVE",
"364 229 OFFCURVE",
"364 183 CURVE SMOOTH",
"364 145 OFFCURVE",
"337 106 OFFCURVE",
"271 106 CURVE SMOOTH"
);
},
{
closed = 1;
nodes = (
"229 393 OFFCURVE",
"192 420 OFFCURVE",
"192 473 CURVE SMOOTH",
"192 511 OFFCURVE",
"212 550 OFFCURVE",
"270 550 CURVE SMOOTH",
"340 550 OFFCURVE",
"353 511 OFFCURVE",
"353 473 CURVE SMOOTH",
"353 419 OFFCURVE",
"315 393 OFFCURVE",
"273 393 CURVE SMOOTH"
);
},
{
closed = 1;
nodes = (
"398 297 OFFCURVE",
"499 361 OFFCURVE",
"499 471 CURVE SMOOTH",
"499 607 OFFCURVE",
"398 666 OFFCURVE",
"270 666 CURVE SMOOTH",
"144 666 OFFCURVE",
"45 597 OFFCURVE",
"45 471 CURVE SMOOTH",
"45 361 OFFCURVE",
"144 297 OFFCURVE",
"270 297 CURVE SMOOTH"
);
}
);
width = 545;
}
);
unicode = 0038;
},
{
color = 3;
glyphname = nine;
lastChange = "2015-08-06 15:39:19 +0000";
layers = (
{
layerId = "7C6C6D54-BD7C-484C-BA4C-283093F5BAFD";
name = Light;
paths = (
{
closed = 1;
nodes = (
"374 -8 OFFCURVE",
"452 156 OFFCURVE",
"452 380 CURVE SMOOTH",
"452 524 OFFCURVE",
"394 662 OFFCURVE",
"239 662 CURVE SMOOTH",
"113 662 OFFCURVE",
"40 568 OFFCURVE",
"40 450 CURVE SMOOTH",
"40 315 OFFCURVE",
"138 236 OFFCURVE",
"236 236 CURVE SMOOTH",
"323 236 OFFCURVE",
"371 264 OFFCURVE",
"414 335 CURVE",
"414 398 LINE",
"392 346 OFFCURVE",
"334 293 OFFCURVE",
"251 293 CURVE SMOOTH",
"163 293 OFFCURVE",
"104 346 OFFCURVE",
"104 450 CURVE SMOOTH",
"104 545 OFFCURVE",
"158 604 OFFCURVE",
"240 604 CURVE SMOOTH",
"361 604 OFFCURVE",
"392 486 OFFCURVE",
"392 380 CURVE SMOOTH",
"392 179 OFFCURVE",
"331 50 OFFCURVE",
"175 50 CURVE SMOOTH",
"134 50 OFFCURVE",
"100 57 OFFCURVE",
"63 73 CURVE",
"63 11 LINE",
"100 -2 OFFCURVE",
"134 -8 OFFCURVE",
"175 -8 CURVE SMOOTH"
);
}
);
width = 496;
},
{
layerId = "9624E7F4-80FA-4A11-8396-8F8611ED4CD7";
name = Bold;
paths = (
{
closed = 1;
nodes = (
"365 -8 OFFCURVE",
"498 98 OFFCURVE",
"498 348 CURVE SMOOTH",
"498 542 OFFCURVE",
"405 663 OFFCURVE",
"248 663 CURVE SMOOTH",
"103 663 OFFCURVE",
"20 561 OFFCURVE",
"20 435 CURVE SMOOTH",
"20 308 OFFCURVE",
"101 228 OFFCURVE",
"217 228 CURVE SMOOTH",
"313 228 OFFCURVE",
"360 265 OFFCURVE",
"385 333 CURVE",
"379 431 LINE",
"345 376 OFFCURVE",
"318 346 OFFCURVE",
"254 346 CURVE SMOOTH",
"201 346 OFFCURVE",
"169 386 OFFCURVE",
"169 438 CURVE SMOOTH",
"169 498 OFFCURVE",
"203 533 OFFCURVE",
"255 533 CURVE SMOOTH",
"305 533 OFFCURVE",
"353 489 OFFCURVE",
"353 348 CURVE SMOOTH",
"353 192 OFFCURVE",
"297 124 OFFCURVE",
"170 124 CURVE SMOOTH",
"135 124 OFFCURVE",
"92 137 OFFCURVE",
"67 149 CURVE",
"67 11 LINE",
"94 1 OFFCURVE",
"140 -8 OFFCURVE",
"186 -8 CURVE SMOOTH"
);
}
);
width = 533;
}
);
unicode = 0039;
},
{
color = 3;
glyphname = fraction;
lastChange = "2015-08-06 15:39:19 +0000";
layers = (
{
layerId = "7C6C6D54-BD7C-484C-BA4C-283093F5BAFD";
name = Light;
paths = (
{
closed = 1;
nodes = (
"-9 0 LINE",
"448 712 LINE",
"386 712 LINE",
"-70 0 LINE"
);
}
);
width = 324;
},
{
layerId = "9624E7F4-80FA-4A11-8396-8F8611ED4CD7";
name = Bold;
paths = (
{
closed = 1;
nodes = (
"-68 0 LINE",
"360 711 LINE",
"252 711 LINE",
"-177 0 LINE"
);
}
);
width = 264;
}
);
unicode = 2044;
},
{
color = 3;
glyphname = onehalf;
lastChange = "2015-08-06 15:39:19 +0000";
layers = (
{
layerId = "7C6C6D54-BD7C-484C-BA4C-283093F5BAFD";
name = Light;
paths = (
{
closed = 1;
nodes = (
"211 0 LINE",
"668 712 LINE",
"606 712 LINE",
"150 0 LINE"
);
},
{
closed = 1;
nodes = (
"236 282 LINE",
"236 711 LINE",
"193 711 LINE",
"80 647 LINE",
"80 590 LINE",
"184 648 LINE",
"184 282 LINE"
);
},
{
closed = 1;
nodes = (
"787 0 LINE",
"787 46 LINE",
"590 46 LINE",
"692 125 OFFCURVE",
"772 223 OFFCURVE",
"772 304 CURVE SMOOTH",
"772 391 OFFCURVE",
"703 433 OFFCURVE",
"634 433 CURVE SMOOTH",
"592 433 OFFCURVE",
"555 417 OFFCURVE",
"527 400 CURVE",
"527 341 LINE",
"558 366 OFFCURVE",
"597 385 OFFCURVE",
"636 385 CURVE SMOOTH",
"680 385 OFFCURVE",
"717 361 OFFCURVE",
"717 302 CURVE SMOOTH",
"717 218 OFFCURVE",
"613 118 OFFCURVE",
"512 41 CURVE",
"512 0 LINE"
);
}
);
width = 833;
},
{
layerId = "9624E7F4-80FA-4A11-8396-8F8611ED4CD7";
name = Bold;
paths = (
{
closed = 1;
nodes = (
"232 0 LINE",
"660 711 LINE",
"552 711 LINE",
"123 0 LINE"
);
},
{
closed = 1;
nodes = (
"229 278 LINE",
"229 711 LINE",
"144 711 LINE",
"10 635 LINE",
"10 537 LINE",
"126 599 LINE",
"126 278 LINE"
);
},
{
closed = 1;
nodes = (
"817 0 LINE",
"817 90 LINE",
"655 90 LINE",
"739 144 OFFCURVE",
"803 213 OFFCURVE",
"803 300 CURVE SMOOTH",
"803 387 OFFCURVE",
"739 437 OFFCURVE",
"649 437 CURVE SMOOTH",
"605 437 OFFCURVE",
"562 423 OFFCURVE",
"532 404 CURVE",
"532 299 LINE",
"563 321 OFFCURVE",
"602 336 OFFCURVE",
"631 336 CURVE SMOOTH",
"672 336 OFFCURVE",
"692 316 OFFCURVE",
"692 285 CURVE SMOOTH",
"692 221 OFFCURVE",
"606 138 OFFCURVE",
"522 77 CURVE",
"522 0 LINE"
);
}
);
width = 833;
}
);
unicode = 00BD;
},
{
color = 3;
glyphname = onequarter;
lastChange = "2015-08-06 15:39:19 +0000";
layers = (
{
layerId = "7C6C6D54-BD7C-484C-BA4C-283093F5BAFD";
name = Light;
paths = (
{
closed = 1;
nodes = (
"211 0 LINE",
"668 712 LINE",
"606 712 LINE",
"150 0 LINE"
);
},
{
closed = 1;
nodes = (
"236 282 LINE",
"236 711 LINE",
"193 711 LINE",
"80 647 LINE",
"80 590 LINE",
"184 648 LINE",
"184 282 LINE"
);
},
{
closed = 1;
nodes = (
"778 102 LINE",
"778 144 LINE",
"465 144 LINE",
"465 102 LINE"
);
},
{
closed = 1;
nodes = (
"518 144 LINE",
"689 429 LINE",
"638 429 LINE",
"465 144 LINE"
);
},
{
closed = 1;
nodes = (
"713 0 LINE",
"713 429 LINE",
"663 429 LINE",
"663 0 LINE"
);
}
);
width = 833;
},
{
layerId = "9624E7F4-80FA-4A11-8396-8F8611ED4CD7";
name = Bold;
paths = (
{
closed = 1;
nodes = (
"232 0 LINE",
"660 711 LINE",
"552 711 LINE",
"123 0 LINE"
);
},
{
closed = 1;
nodes = (
"229 278 LINE",
"229 711 LINE",
"144 711 LINE",
"10 635 LINE",
"10 537 LINE",
"126 599 LINE",
"126 278 LINE"
);
},
{
closed = 1;
nodes = (
"821 86 LINE",
"821 171 LINE",
"473 171 LINE",
"473 86 LINE"
);
},
{
closed = 1;
nodes = (
"578 171 LINE",
"705 430 LINE",
"606 430 LINE",
"473 171 LINE"
);
},
{
closed = 1;
nodes = (
"769 0 LINE",
"769 430 LINE",
"667 430 LINE",
"667 0 LINE"
);
}
);
width = 829;
}
);
unicode = 00BC;
},
{
color = 3;
glyphname = threequarters;
lastChange = "2015-08-06 15:39:19 +0000";
layers = (
{
layerId = "7C6C6D54-BD7C-484C-BA4C-283093F5BAFD";
name = Light;
paths = (
{
closed = 1;
nodes = (
"268 0 LINE",
"725 712 LINE",
"663 712 LINE",
"207 0 LINE"
);
},
{
closed = 1;
nodes = (
"286 278 OFFCURVE",
"333 329 OFFCURVE",
"333 397 CURVE SMOOTH",
"333 454 OFFCURVE",
"289 497 OFFCURVE",
"241 501 CURVE",
"288 513 OFFCURVE",
"319 547 OFFCURVE",
"319 601 CURVE SMOOTH",
"319 661 OFFCURVE",
"278 715 OFFCURVE",
"186 715 CURVE SMOOTH",
"152 715 OFFCURVE",
"115 701 OFFCURVE",
"96 689 CURVE",
"96 636 LINE",
"124 654 OFFCURVE",
"159 667 OFFCURVE",
"187 667 CURVE SMOOTH",
"234 667 OFFCURVE",
"265 646 OFFCURVE",
"265 598 CURVE SMOOTH",
"265 549 OFFCURVE",
"224 522 OFFCURVE",
"178 522 CURVE SMOOTH",
"151 522 LINE",
"151 476 LINE",
"178 476 LINE SMOOTH",
"240 476 OFFCURVE",
"279 447 OFFCURVE",
"279 398 CURVE SMOOTH",
"279 353 OFFCURVE",
"247 326 OFFCURVE",
"195 326 CURVE SMOOTH",
"159 326 OFFCURVE",
"122 333 OFFCURVE",
"85 353 CURVE",
"85 302 LINE",
"116 287 OFFCURVE",
"161 278 OFFCURVE",
"195 278 CURVE SMOOTH"
);
},
{
closed = 1;
nodes = (
"835 102 LINE",
"835 144 LINE",
"522 144 LINE",
"522 102 LINE"
);
},
{
closed = 1;
nodes = (
"575 144 LINE",
"746 429 LINE",
"695 429 LINE",
"522 144 LINE"
);
},
{
closed = 1;
nodes = (
"770 0 LINE",
"770 429 LINE",
"720 429 LINE",
"720 0 LINE"
);
}
);
width = 858;
},
{
layerId = "9624E7F4-80FA-4A11-8396-8F8611ED4CD7";
name = Bold;
paths = (
{
closed = 1;
nodes = (
"285 0 LINE",
"713 711 LINE",
"605 711 LINE",
"176 0 LINE"
);
},
{
closed = 1;
nodes = (
"248 273 OFFCURVE",
"306 323 OFFCURVE",
"306 395 CURVE SMOOTH",
"306 457 OFFCURVE",
"265 490 OFFCURVE",
"218 495 CURVE",
"268 505 OFFCURVE",
"299 540 OFFCURVE",
"299 593 CURVE SMOOTH",
"299 663 OFFCURVE",
"242 714 OFFCURVE",
"146 714 CURVE SMOOTH",
"108 714 OFFCURVE",
"70 705 OFFCURVE",
"39 687 CURVE",
"39 586 LINE",
"68 608 OFFCURVE",
"106 621 OFFCURVE",
"136 621 CURVE SMOOTH",
"167 621 OFFCURVE",
"188 608 OFFCURVE",
"188 580 CURVE SMOOTH",
"188 551 OFFCURVE",
"156 539 OFFCURVE",
"111 539 CURVE SMOOTH",
"97 539 LINE",
"97 450 LINE",
"112 450 LINE SMOOTH",
"181 450 OFFCURVE",
"197 431 OFFCURVE",
"197 409 CURVE SMOOTH",
"197 384 OFFCURVE",
"175 364 OFFCURVE",
"136 364 CURVE SMOOTH",
"94 364 OFFCURVE",
"57 376 OFFCURVE",
"23 394 CURVE",
"23 300 LINE",
"56 282 OFFCURVE",
"113 273 OFFCURVE",
"153 273 CURVE SMOOTH"
);
},
{
closed = 1;
nodes = (
"874 86 LINE",
"874 171 LINE",
"526 171 LINE",
"526 86 LINE"
);
},
{
closed = 1;
nodes = (
"631 171 LINE",
"758 430 LINE",
"659 430 LINE",
"526 171 LINE"
);
},
{
closed = 1;
nodes = (
"822 0 LINE",
"822 430 LINE",
"720 430 LINE",
"720 0 LINE"
);
}
);
width = 898;
}
);
unicode = 00BE;
},
{
color = 3;
glyphname = onesuperior;
lastChange = "2015-08-06 15:39:19 +0000";
layers = (
{
layerId = "7C6C6D54-BD7C-484C-BA4C-283093F5BAFD";
name = Light;
paths = (
{
closed = 1;
nodes = (
"166 392 LINE",
"166 821 LINE",
"123 821 LINE",
"10 757 LINE",
"10 700 LINE",
"114 758 LINE",
"114 392 LINE"
);
}
);
width = 242;
},
{
layerId = "9624E7F4-80FA-4A11-8396-8F8611ED4CD7";
name = Bold;
paths = (
{
closed = 1;
nodes = (
"229 392 LINE",
"229 825 LINE",
"144 825 LINE",
"10 749 LINE",
"10 651 LINE",
"126 713 LINE",
"126 392 LINE"
);
}
);
width = 279;
}
);
unicode = 00B9;
},
{
color = 3;
glyphname = twosuperior;
lastChange = "2015-08-06 15:39:19 +0000";
layers = (
{
layerId = "7C6C6D54-BD7C-484C-BA4C-283093F5BAFD";
name = Light;
paths = (
{
closed = 1;
nodes = (
"325 392 LINE",
"325 438 LINE",
"128 438 LINE",
"230 517 OFFCURVE",
"310 615 OFFCURVE",
"310 696 CURVE SMOOTH",
"310 783 OFFCURVE",
"241 825 OFFCURVE",
"172 825 CURVE SMOOTH",
"130 825 OFFCURVE",
"93 809 OFFCURVE",
"65 792 CURVE",
"65 733 LINE",
"96 758 OFFCURVE",
"135 777 OFFCURVE",
"174 777 CURVE SMOOTH",
"218 777 OFFCURVE",
"255 753 OFFCURVE",
"255 694 CURVE SMOOTH",
"255 610 OFFCURVE",
"151 510 OFFCURVE",
"50 433 CURVE",
"50 392 LINE"
);
}
);
width = 365;
},
{
layerId = "9624E7F4-80FA-4A11-8396-8F8611ED4CD7";
name = Bold;
paths = (
{
closed = 1;
nodes = (
"330 392 LINE",
"330 482 LINE",
"168 482 LINE",
"252 536 OFFCURVE",
"316 605 OFFCURVE",
"316 692 CURVE SMOOTH",
"316 779 OFFCURVE",
"252 829 OFFCURVE",
"162 829 CURVE SMOOTH",
"118 829 OFFCURVE",
"75 815 OFFCURVE",
"45 796 CURVE",
"45 691 LINE",
"76 713 OFFCURVE",
"115 728 OFFCURVE",
"144 728 CURVE SMOOTH",
"185 728 OFFCURVE",
"205 708 OFFCURVE",
"205 677 CURVE SMOOTH",
"205 613 OFFCURVE",
"119 530 OFFCURVE",
"35 469 CURVE",
"35 392 LINE"
);
}
);
width = 365;
}
);
unicode = 00B2;
},
{
color = 3;
glyphname = threesuperior;
lastChange = "2015-08-06 15:39:19 +0000";
layers = (
{
layerId = "7C6C6D54-BD7C-484C-BA4C-283093F5BAFD";
name = Light;
paths = (
{
closed = 1;
nodes = (
"236 388 OFFCURVE",
"283 439 OFFCURVE",
"283 507 CURVE SMOOTH",
"283 564 OFFCURVE",
"239 607 OFFCURVE",
"191 611 CURVE",
"238 623 OFFCURVE",
"269 657 OFFCURVE",
"269 711 CURVE SMOOTH",
"269 771 OFFCURVE",
"228 825 OFFCURVE",
"136 825 CURVE SMOOTH",
"102 825 OFFCURVE",
"65 811 OFFCURVE",
"46 799 CURVE",
"46 746 LINE",
"74 764 OFFCURVE",
"109 777 OFFCURVE",
"137 777 CURVE SMOOTH",
"184 777 OFFCURVE",
"215 756 OFFCURVE",
"215 708 CURVE SMOOTH",
"215 659 OFFCURVE",
"174 632 OFFCURVE",
"128 632 CURVE",
"101 632 LINE",
"101 586 LINE",
"128 586 LINE SMOOTH",
"190 586 OFFCURVE",
"229 557 OFFCURVE",
"229 508 CURVE SMOOTH",
"229 463 OFFCURVE",
"197 436 OFFCURVE",
"145 436 CURVE SMOOTH",
"109 436 OFFCURVE",
"72 443 OFFCURVE",
"35 463 CURVE",
"35 412 LINE",
"66 397 OFFCURVE",
"111 388 OFFCURVE",
"145 388 CURVE SMOOTH"
);
}
);
width = 318;
},
{
layerId = "9624E7F4-80FA-4A11-8396-8F8611ED4CD7";
name = Bold;
paths = (
{
closed = 1;
nodes = (
"260 388 OFFCURVE",
"318 438 OFFCURVE",
"318 510 CURVE SMOOTH",
"318 572 OFFCURVE",
"277 605 OFFCURVE",
"230 610 CURVE",
"280 620 OFFCURVE",
"311 655 OFFCURVE",
"311 708 CURVE SMOOTH",
"311 778 OFFCURVE",
"254 829 OFFCURVE",
"158 829 CURVE SMOOTH",
"120 829 OFFCURVE",
"82 820 OFFCURVE",
"51 802 CURVE",
"51 701 LINE",
"80 723 OFFCURVE",
"118 736 OFFCURVE",
"148 736 CURVE SMOOTH",
"179 736 OFFCURVE",
"200 723 OFFCURVE",
"200 695 CURVE SMOOTH",
"200 666 OFFCURVE",
"168 654 OFFCURVE",
"123 654 CURVE",
"109 654 LINE",
"109 565 LINE",
"124 565 LINE SMOOTH",
"193 565 OFFCURVE",
"209 546 OFFCURVE",
"209 524 CURVE SMOOTH",
"209 499 OFFCURVE",
"187 479 OFFCURVE",
"148 479 CURVE SMOOTH",
"106 479 OFFCURVE",
"69 491 OFFCURVE",
"35 509 CURVE",
"35 415 LINE",
"68 397 OFFCURVE",
"125 388 OFFCURVE",
"165 388 CURVE SMOOTH"
);
}
);
width = 353;
}
);
unicode = 00B3;
},
{
color = 3;
glyphname = asterisk;
lastChange = "2015-08-06 15:39:19 +0000";
layers = (
{
layerId = "7C6C6D54-BD7C-484C-BA4C-283093F5BAFD";
name = Light;
paths = (
{
closed = 1;
nodes = (
"173 445 LINE",
"187 464 OFFCURVE",
"191 481 OFFCURVE",
"191 496 CURVE SMOOTH",
"191 502 OFFCURVE",
"191 507 OFFCURVE",
"190 513 CURVE",
"171 509 OFFCURVE",
"152 502 OFFCURVE",
"132 475 CURVE SMOOTH",
"75 397 LINE",
"116 368 LINE"
);
},
{
closed = 1;
nodes = (
"166 503 OFFCURVE",
"178 507 OFFCURVE",
"190 513 CURVE",
"181 530 OFFCURVE",
"168 545 OFFCURVE",
"136 556 CURVE SMOOTH",
"44 586 LINE",
"29 538 LINE",
"120 508 LINE",
"132 504 OFFCURVE",
"142 503 OFFCURVE",
"151 503 CURVE SMOOTH"
);
},
{
closed = 1;
nodes = (
"204 527 OFFCURVE",
"214 544 OFFCURVE",
"214 578 CURVE SMOOTH",
"214 674 LINE",
"164 674 LINE",
"164 578 LINE",
"164 544 OFFCURVE",
"176 527 OFFCURVE",
"190 513 CURVE"
);
},
{
closed = 1;
nodes = (
"235 504 OFFCURVE",
"247 505 OFFCURVE",
"259 509 CURVE SMOOTH",
"351 540 LINE",
"335 587 LINE",
"243 558 LINE",
"212 548 OFFCURVE",
"199 531 OFFCURVE",
"190 513 CURVE",
"201 507 OFFCURVE",
"212 504 OFFCURVE",
"226 504 CURVE SMOOTH"
);
},
{
closed = 1;
nodes = (
"305 398 LINE",
"249 476 LINE",
"230 503 OFFCURVE",
"210 510 OFFCURVE",
"190 513 CURVE",
"189 508 OFFCURVE",
"189 504 OFFCURVE",
"189 499 CURVE SMOOTH",
"189 484 OFFCURVE",
"193 467 OFFCURVE",
"208 446 CURVE SMOOTH",
"265 368 LINE"
);
}
);
width = 381;
},
{
layerId = "9624E7F4-80FA-4A11-8396-8F8611ED4CD7";
name = Bold;
paths = (
{
closed = 1;
nodes = (
"232 323 LINE",
"256 355 OFFCURVE",
"263 382 OFFCURVE",
"263 411 CURVE SMOOTH",
"263 453 OFFCURVE",
"255 455 OFFCURVE",
"255 455 CURVE SMOOTH",
"208 455 OFFCURVE",
"163 429 OFFCURVE",
"136 392 CURVE SMOOTH",
"78 313 LINE",
"173 243 LINE"
);
},
{
closed = 1;
nodes = (
"224 427 OFFCURVE",
"255 455 OFFCURVE",
"255 455 CURVE",
"254 454 OFFCURVE",
"238 523 OFFCURVE",
"158 549 CURVE SMOOTH",
"65 579 LINE",
"28 467 LINE",
"122 436 LINE",
"140 430 OFFCURVE",
"157 427 OFFCURVE",
"173 427 CURVE SMOOTH"
);
},
{
closed = 1;
nodes = (
"255 455 OFFCURVE",
"314 490 OFFCURVE",
"314 576 CURVE SMOOTH",
"314 674 LINE",
"196 674 LINE",
"196 576 LINE",
"196 489 OFFCURVE",
"255 455 OFFCURVE",
"255 455 CURVE"
);
},
{
closed = 1;
nodes = (
"354 428 OFFCURVE",
"370 430 OFFCURVE",
"389 436 CURVE SMOOTH",
"481 466 LINE",
"445 578 LINE",
"351 548 LINE",
"270 522 OFFCURVE",
"255 455 OFFCURVE",
"255 455 CURVE",
"255 455 OFFCURVE",
"286 428 OFFCURVE",
"339 428 CURVE SMOOTH"
);
},
{
closed = 1;
nodes = (
"431 312 LINE",
"373 392 LINE",
"329 452 OFFCURVE",
"271 455 OFFCURVE",
"255 455 CURVE SMOOTH",
"255 455 OFFCURVE",
"248 452 OFFCURVE",
"248 412 CURVE SMOOTH",
"248 388 OFFCURVE",
"254 355 OFFCURVE",
"278 322 CURVE SMOOTH",
"335 243 LINE"
);
}
);
width = 508;
}
);
unicode = 002A;
},
{
color = 3;
glyphname = backslash;
lastChange = "2015-08-06 15:39:19 +0000";
layers = (
{
layerId = "7C6C6D54-BD7C-484C-BA4C-283093F5BAFD";
name = Light;
paths = (
{
closed = 1;
nodes = (
"398 -103 LINE",
"32 707 LINE",
"-30 707 LINE",
"336 -103 LINE"
);
}
);
width = 386;
},
{
layerId = "9624E7F4-80FA-4A11-8396-8F8611ED4CD7";
name = Bold;
paths = (
{
closed = 1;
nodes = (
"466 -103 LINE",
"107 707 LINE",
"-45 707 LINE",
"315 -103 LINE"
);
}
);
width = 464;
}
);
unicode = 005C;
},
{
color = 3;
glyphname = bullet;
lastChange = "2015-08-06 15:39:19 +0000";
layers = (
{
layerId = "7C6C6D54-BD7C-484C-BA4C-283093F5BAFD";
name = Light;
paths = (
{
closed = 1;
nodes = (
"302 223 OFFCURVE",
"360 281 OFFCURVE",
"360 356 CURVE",
"360 431 OFFCURVE",
"302 489 OFFCURVE",
"227 489 CURVE",
"151 489 OFFCURVE",
"95 431 OFFCURVE",
"95 356 CURVE",
"95 281 OFFCURVE",
"151 223 OFFCURVE",
"228 223 CURVE"
);
}
);
width = 455;
},
{
layerId = "9624E7F4-80FA-4A11-8396-8F8611ED4CD7";
name = Bold;
paths = (
{
closed = 1;
nodes = (
"287 223 OFFCURVE",
"345 281 OFFCURVE",
"345 356 CURVE",
"345 431 OFFCURVE",
"287 489 OFFCURVE",
"212 489 CURVE",
"136 489 OFFCURVE",
"80 431 OFFCURVE",
"80 356 CURVE",
"80 281 OFFCURVE",
"136 223 OFFCURVE",
"213 223 CURVE"
);
}
);
width = 425;
}
);
unicode = 2022;
},
{
color = 3;
glyphname = colon;
lastChange = "2015-08-06 15:39:19 +0000";
layers = (
{
layerId = "7C6C6D54-BD7C-484C-BA4C-283093F5BAFD";
name = Light;
paths = (
{
closed = 1;
nodes = (
"139 319 OFFCURVE",
"162 340 OFFCURVE",
"162 369 CURVE SMOOTH",
"162 397 OFFCURVE",
"139 420 OFFCURVE",
"110 420 CURVE SMOOTH",
"81 420 OFFCURVE",
"60 397 OFFCURVE",
"60 369 CURVE SMOOTH",
"60 340 OFFCURVE",
"81 319 OFFCURVE",
"110 319 CURVE SMOOTH"
);
},
{
closed = 1;
nodes = (
"139 -1 OFFCURVE",
"162 20 OFFCURVE",
"162 49 CURVE SMOOTH",
"162 77 OFFCURVE",
"139 100 OFFCURVE",
"110 100 CURVE SMOOTH",
"81 100 OFFCURVE",
"60 77 OFFCURVE",
"60 49 CURVE SMOOTH",
"60 20 OFFCURVE",
"81 -1 OFFCURVE",
"110 -1 CURVE SMOOTH"
);
}
);
width = 222;
},
{
layerId = "9624E7F4-80FA-4A11-8396-8F8611ED4CD7";
name = Bold;
paths = (
{
closed = 1;
nodes = (
"192 331 OFFCURVE",
"231 370 OFFCURVE",
"231 419 CURVE SMOOTH",
"231 468 OFFCURVE",
"192 507 OFFCURVE",
"143 507 CURVE SMOOTH",
"94 507 OFFCURVE",
"55 468 OFFCURVE",
"55 419 CURVE SMOOTH",
"55 370 OFFCURVE",
"94 331 OFFCURVE",
"143 331 CURVE SMOOTH"
);
},
{
closed = 1;
nodes = (
"192 0 OFFCURVE",
"231 39 OFFCURVE",
"231 88 CURVE SMOOTH",
"231 137 OFFCURVE",
"192 176 OFFCURVE",
"143 176 CURVE SMOOTH",
"94 176 OFFCURVE",
"55 137 OFFCURVE",
"55 88 CURVE SMOOTH",
"55 39 OFFCURVE",
"94 0 OFFCURVE",
"143 0 CURVE SMOOTH"
);
}
);
width = 286;
}
);
unicode = 003A;
},
{
color = 3;
glyphname = comma;
lastChange = "2015-08-06 15:39:19 +0000";
layers = (
{
layerId = "7C6C6D54-BD7C-484C-BA4C-283093F5BAFD";
name = Light;
paths = (
{
closed = 1;
nodes = (
"46 -122 LINE",
"173 92 LINE",
"83 92 LINE",
"-8 -122 LINE"
);
}
);
width = 207;
},
{
layerId = "9624E7F4-80FA-4A11-8396-8F8611ED4CD7";
name = Bold;
paths = (
{
closed = 1;
nodes = (
"119 -127 LINE",
"255 134 LINE",
"94 134 LINE",
"-7 -127 LINE"
);
}
);
width = 294;
}
);
unicode = 002C;
},
{
color = 1;
glyphname = danda;
lastChange = "2015-08-06 15:22:24 +0000";
layers = (
{
layerId = "7C6C6D54-BD7C-484C-BA4C-283093F5BAFD";
name = Light;
paths = (
{
closed = 1;
nodes = (
"207 0 LINE",
"207 634 LINE",
"145 634 LINE",
"145 0 LINE"
);
}
);
width = 307;
},
{
layerId = "9624E7F4-80FA-4A11-8396-8F8611ED4CD7";
name = Bold;
paths = (
{
closed = 1;
nodes = (
"357 0 LINE",
"357 671 LINE",
"215 671 LINE",
"215 0 LINE"
);
}
);
width = 477;
}
);
unicode = 0964;
},
{
color = 1;
glyphname = doubledanda;
lastChange = "2015-08-06 15:22:25 +0000";
layers = (
{
layerId = "7C6C6D54-BD7C-484C-BA4C-283093F5BAFD";
name = Light;
paths = (
{
closed = 1;
nodes = (
"415 0 LINE",
"415 634 LINE",
"353 634 LINE",
"353 0 LINE"
);
},
{
closed = 1;
nodes = (
"207 0 LINE",
"207 634 LINE",
"145 634 LINE",
"145 0 LINE"
);
}
);
width = 515;
},
{
layerId = "9624E7F4-80FA-4A11-8396-8F8611ED4CD7";
name = Bold;
paths = (
{
closed = 1;
nodes = (
"607 0 LINE",
"607 671 LINE",
"465 671 LINE",
"465 0 LINE"
);
},
{
closed = 1;
nodes = (
"357 0 LINE",
"357 671 LINE",
"215 671 LINE",
"215 0 LINE"
);
}
);
width = 727;
}
);
},
{
color = 3;
glyphname = exclam;
lastChange = "2015-08-06 15:39:19 +0000";
layers = (
{
layerId = "7C6C6D54-BD7C-484C-BA4C-283093F5BAFD";
name = Light;
paths = (
{
closed = 1;
nodes = (
"151 196 LINE",
"151 674 LINE",
"90 674 LINE",
"90 196 LINE"
);
},
{
closed = 1;
nodes = (
"148 -8 OFFCURVE",
"171 13 OFFCURVE",
"171 42 CURVE SMOOTH",
"171 70 OFFCURVE",
"148 93 OFFCURVE",
"119 93 CURVE SMOOTH",
"90 93 OFFCURVE",
"69 70 OFFCURVE",
"69 42 CURVE SMOOTH",
"69 13 OFFCURVE",
"90 -8 OFFCURVE",
"119 -8 CURVE SMOOTH"
);
}
);
width = 241;
},
{
layerId = "9624E7F4-80FA-4A11-8396-8F8611ED4CD7";
name = Bold;
paths = (
{
closed = 1;
nodes = (
"214 236 LINE",
"214 674 LINE",
"75 674 LINE",
"75 236 LINE"
);
},
{
closed = 1;
nodes = (
"194 -8 OFFCURVE",
"234 32 OFFCURVE",
"234 83 CURVE SMOOTH",
"234 134 OFFCURVE",
"194 174 OFFCURVE",
"143 174 CURVE SMOOTH",
"92 174 OFFCURVE",
"52 134 OFFCURVE",
"52 83 CURVE SMOOTH",
"52 32 OFFCURVE",
"92 -8 OFFCURVE",
"143 -8 CURVE SMOOTH"
);
}
);
width = 289;
}
);
unicode = 0021;
},
{
color = 3;
glyphname = exclamdown;
lastChange = "2015-08-06 15:39:19 +0000";
layers = (
{
layerId = "7C6C6D54-BD7C-484C-BA4C-283093F5BAFD";
name = Light;
paths = (
{
closed = 1;
nodes = (
"151 -165 LINE",
"151 313 LINE",
"90 313 LINE",
"90 -165 LINE"
);
},
{
closed = 1;
nodes = (
"148 416 OFFCURVE",
"171 439 OFFCURVE",
"171 467 CURVE SMOOTH",
"171 496 OFFCURVE",
"148 517 OFFCURVE",
"119 517 CURVE SMOOTH",
"90 517 OFFCURVE",
"69 496 OFFCURVE",
"69 467 CURVE SMOOTH",
"69 439 OFFCURVE",
"90 416 OFFCURVE",
"119 416 CURVE SMOOTH"
);
}
);
width = 241;
},
{
layerId = "9624E7F4-80FA-4A11-8396-8F8611ED4CD7";
name = Bold;
paths = (
{
closed = 1;
nodes = (
"214 -165 LINE",
"214 273 LINE",
"75 273 LINE",
"75 -165 LINE"
);
},
{
closed = 1;
nodes = (
"194 335 OFFCURVE",
"234 375 OFFCURVE",
"234 426 CURVE SMOOTH",
"234 477 OFFCURVE",
"194 517 OFFCURVE",
"143 517 CURVE SMOOTH",
"92 517 OFFCURVE",
"52 477 OFFCURVE",
"52 426 CURVE SMOOTH",
"52 375 OFFCURVE",
"92 335 OFFCURVE",
"143 335 CURVE SMOOTH"
);
}
);
width = 289;
}
);
unicode = 00A1;
},
{
color = 3;
glyphname = numbersign;
lastChange = "2015-08-06 15:39:19 +0000";
layers = (
{
layerId = "7C6C6D54-BD7C-484C-BA4C-283093F5BAFD";
name = Light;
paths = (
{
closed = 1;
nodes = (
"436 0 LINE",
"577 674 LINE",
"520 674 LINE",
"377 0 LINE"
);
},
{
closed = 1;
nodes = (
"585 174 LINE",
"585 225 LINE",
"55 225 LINE",
"55 174 LINE"
);
},
{
closed = 1;
nodes = (
"187 0 LINE",
"330 674 LINE",
"271 674 LINE",
"130 0 LINE"
);
},
{
closed = 1;
nodes = (
"642 449 LINE",
"642 500 LINE",
"114 500 LINE",
"114 449 LINE"
);
}
);
width = 697;
},
{
layerId = "9624E7F4-80FA-4A11-8396-8F8611ED4CD7";
name = Bold;
paths = (
{
closed = 1;
nodes = (
"496 0 LINE",
"639 673 LINE",
"515 673 LINE",
"373 0 LINE"
);
},
{
closed = 1;
nodes = (
"678 154 LINE",
"678 265 LINE",
"45 265 LINE",
"45 154 LINE"
);
},
{
closed = 1;
nodes = (
"236 0 LINE",
"379 673 LINE",
"255 673 LINE",
"113 0 LINE"
);
},
{
closed = 1;
nodes = (
"712 400 LINE",
"712 516 LINE",
"79 516 LINE",
"79 400 LINE"
);
}
);
width = 757;
}
);
unicode = 0023;
},
{
color = 3;
glyphname = period;
lastChange = "2015-08-06 15:39:19 +0000";
layers = (
{
layerId = "7C6C6D54-BD7C-484C-BA4C-283093F5BAFD";
name = Light;
paths = (
{
closed = 1;
nodes = (
"100 -8 OFFCURVE",
"122 14 OFFCURVE",
"122 43 CURVE SMOOTH",
"122 72 OFFCURVE",
"100 94 OFFCURVE",
"71 94 CURVE SMOOTH",
"42 94 OFFCURVE",
"20 72 OFFCURVE",
"20 43 CURVE SMOOTH",
"20 14 OFFCURVE",
"42 -8 OFFCURVE",
"71 -8 CURVE SMOOTH"
);
}
);
width = 142;
},
{
layerId = "9624E7F4-80FA-4A11-8396-8F8611ED4CD7";
name = Bold;
paths = (
{
closed = 1;
nodes = (
"178 -8 OFFCURVE",
"218 32 OFFCURVE",
"218 81 CURVE SMOOTH",
"218 130 OFFCURVE",
"178 170 OFFCURVE",
"129 170 CURVE SMOOTH",
"80 170 OFFCURVE",
"40 130 OFFCURVE",
"40 81 CURVE SMOOTH",
"40 32 OFFCURVE",
"80 -8 OFFCURVE",
"129 -8 CURVE SMOOTH"
);
}
);
width = 258;
}
);
unicode = 002E;
},
{
color = 3;
glyphname = question;
lastChange = "2015-08-06 15:39:19 +0000";
layers = (
{
layerId = "7C6C6D54-BD7C-484C-BA4C-283093F5BAFD";
name = Light;
paths = (
{
closed = 1;
nodes = (
"205 196 LINE",
"205 312 LINE",
"308 322 OFFCURVE",
"410 377 OFFCURVE",
"410 499 CURVE SMOOTH",
"410 617 OFFCURVE",
"327 682 OFFCURVE",
"201 682 CURVE SMOOTH",
"137 682 OFFCURVE",
"73 660 OFFCURVE",
"40 638 CURVE",
"40 573 LINE",
"98 610 OFFCURVE",
"150 624 OFFCURVE",
"202 624 CURVE SMOOTH",
"302 624 OFFCURVE",
"346 569 OFFCURVE",
"346 500 CURVE SMOOTH",
"346 407 OFFCURVE",
"264 366 OFFCURVE",
"144 366 CURVE",
"144 196 LINE"
);
},
{
closed = 1;
nodes = (
"202 -8 OFFCURVE",
"225 13 OFFCURVE",
"225 42 CURVE SMOOTH",
"225 70 OFFCURVE",
"202 93 OFFCURVE",
"173 93 CURVE SMOOTH",
"144 93 OFFCURVE",
"123 70 OFFCURVE",
"123 42 CURVE SMOOTH",
"123 13 OFFCURVE",
"144 -8 OFFCURVE",
"173 -8 CURVE SMOOTH"
);
}
);
width = 450;
},
{
layerId = "9624E7F4-80FA-4A11-8396-8F8611ED4CD7";
name = Bold;
paths = (
{
closed = 1;
nodes = (
"262 236 LINE",
"265 318 LINE",
"315 319 OFFCURVE",
"428 371 OFFCURVE",
"428 499 CURVE SMOOTH",
"428 613 OFFCURVE",
"341 682 OFFCURVE",
"218 682 CURVE SMOOTH",
"156 682 OFFCURVE",
"106 673 OFFCURVE",
"65 654 CURVE",
"65 517 LINE",
"106 544 OFFCURVE",
"150 560 OFFCURVE",
"195 560 CURVE SMOOTH",
"253 560 OFFCURVE",
"280 527 OFFCURVE",
"280 481 CURVE SMOOTH",
"280 421 OFFCURVE",
"238 387 OFFCURVE",
"126 387 CURVE",
"129 236 LINE"
);
},
{
closed = 1;
nodes = (
"245 -8 OFFCURVE",
"285 32 OFFCURVE",
"285 83 CURVE SMOOTH",
"285 134 OFFCURVE",
"245 174 OFFCURVE",
"194 174 CURVE SMOOTH",
"143 174 OFFCURVE",
"103 134 OFFCURVE",
"103 83 CURVE SMOOTH",
"103 32 OFFCURVE",
"143 -8 OFFCURVE",
"194 -8 CURVE SMOOTH"
);
}
);
width = 458;
}
);
unicode = 003F;
},
{
color = 3;
glyphname = questiondown;
lastChange = "2015-08-06 15:39:19 +0000";
layers = (
{
layerId = "7C6C6D54-BD7C-484C-BA4C-283093F5BAFD";
name = Light;
paths = (
{
closed = 1;
nodes = (
"313 -173 OFFCURVE",
"377 -151 OFFCURVE",
"410 -129 CURVE",
"410 -64 LINE",
"352 -101 OFFCURVE",
"300 -115 OFFCURVE",
"248 -115 CURVE SMOOTH",
"148 -115 OFFCURVE",
"104 -60 OFFCURVE",
"104 9 CURVE SMOOTH",
"104 102 OFFCURVE",
"186 143 OFFCURVE",
"306 143 CURVE",
"306 313 LINE",
"245 313 LINE",
"245 197 LINE",
"142 187 OFFCURVE",
"40 132 OFFCURVE",
"40 10 CURVE SMOOTH",
"40 -108 OFFCURVE",
"123 -173 OFFCURVE",
"249 -173 CURVE SMOOTH"
);
},
{
closed = 1;
nodes = (
"306 416 OFFCURVE",
"327 439 OFFCURVE",
"327 467 CURVE SMOOTH",
"327 496 OFFCURVE",
"306 517 OFFCURVE",
"277 517 CURVE SMOOTH",
"248 517 OFFCURVE",
"225 496 OFFCURVE",
"225 467 CURVE SMOOTH",
"225 439 OFFCURVE",
"248 416 OFFCURVE",
"277 416 CURVE SMOOTH"
);
}
);
width = 450;
},
{
layerId = "9624E7F4-80FA-4A11-8396-8F8611ED4CD7";
name = Bold;
paths = (
{
closed = 1;
nodes = (
"337 -172 OFFCURVE",
"387 -163 OFFCURVE",
"428 -144 CURVE",
"428 -7 LINE",
"387 -34 OFFCURVE",
"343 -50 OFFCURVE",
"298 -50 CURVE SMOOTH",
"240 -50 OFFCURVE",
"213 -17 OFFCURVE",
"213 29 CURVE SMOOTH",
"213 89 OFFCURVE",
"255 123 OFFCURVE",
"367 123 CURVE",
"364 274 LINE",
"231 274 LINE",
"228 192 LINE",
"178 191 OFFCURVE",
"65 139 OFFCURVE",
"65 11 CURVE SMOOTH",
"65 -103 OFFCURVE",
"152 -172 OFFCURVE",
"275 -172 CURVE SMOOTH"
);
},
{
closed = 1;
nodes = (
"350 336 OFFCURVE",
"390 376 OFFCURVE",
"390 427 CURVE SMOOTH",
"390 478 OFFCURVE",
"350 518 OFFCURVE",
"299 518 CURVE SMOOTH",
"248 518 OFFCURVE",
"208 478 OFFCURVE",
"208 427 CURVE SMOOTH",
"208 376 OFFCURVE",
"248 336 OFFCURVE",
"299 336 CURVE SMOOTH"
);
}
);
width = 458;
}
);
unicode = 00BF;
},
{
color = 3;
glyphname = quotedbl;
lastChange = "2015-08-06 15:39:19 +0000";
layers = (
{
layerId = "7C6C6D54-BD7C-484C-BA4C-283093F5BAFD";
name = Light;
paths = (
{
closed = 1;
nodes = (
"226 451 LINE",
"226 681 LINE",
"169 681 LINE",
"169 451 LINE"
);
},
{
closed = 1;
nodes = (
"102 451 LINE",
"102 681 LINE",
"45 681 LINE",
"45 451 LINE"
);
}
);
width = 271;
},
{
layerId = "9624E7F4-80FA-4A11-8396-8F8611ED4CD7";
name = Bold;
paths = (
{
closed = 1;
nodes = (
"347 420 LINE",
"347 681 LINE",
"225 681 LINE",
"225 420 LINE"
);
},
{
closed = 1;
nodes = (
"162 420 LINE",
"162 681 LINE",
"40 681 LINE",
"40 420 LINE"
);
}
);
width = 387;
}
);
unicode = 0022;
},
{
color = 3;
glyphname = quotesingle;
lastChange = "2015-08-06 15:39:19 +0000";
layers = (
{
layerId = "7C6C6D54-BD7C-484C-BA4C-283093F5BAFD";
name = Light;
paths = (
{
closed = 1;
nodes = (
"102 451 LINE",
"102 681 LINE",
"45 681 LINE",
"45 451 LINE"
);
}
);
width = 147;
},
{
layerId = "9624E7F4-80FA-4A11-8396-8F8611ED4CD7";
name = Bold;
paths = (
{
closed = 1;
nodes = (
"162 420 LINE",
"162 681 LINE",
"40 681 LINE",
"40 420 LINE"
);
}
);
width = 202;
}
);
unicode = 0027;
},
{
color = 3;
glyphname = semicolon;
lastChange = "2015-08-06 15:39:19 +0000";
layers = (
{
layerId = "7C6C6D54-BD7C-484C-BA4C-283093F5BAFD";
name = Light;
paths = (
{
closed = 1;
nodes = (
"46 -122 LINE",
"173 92 LINE",
"83 92 LINE",
"-8 -122 LINE"
);
},
{
closed = 1;
nodes = (
"148 318 OFFCURVE",
"171 339 OFFCURVE",
"171 368 CURVE SMOOTH",
"171 396 OFFCURVE",
"148 419 OFFCURVE",
"119 419 CURVE SMOOTH",
"90 419 OFFCURVE",
"69 396 OFFCURVE",
"69 368 CURVE SMOOTH",
"69 339 OFFCURVE",
"90 318 OFFCURVE",
"119 318 CURVE SMOOTH"
);
}
);
width = 207;
},
{
layerId = "9624E7F4-80FA-4A11-8396-8F8611ED4CD7";
name = Bold;
paths = (
{
closed = 1;
nodes = (
"119 -127 LINE",
"255 134 LINE",
"94 134 LINE",
"-7 -127 LINE"
);
},
{
closed = 1;
nodes = (
"210 331 OFFCURVE",
"249 370 OFFCURVE",
"249 419 CURVE SMOOTH",
"249 468 OFFCURVE",
"210 507 OFFCURVE",
"161 507 CURVE SMOOTH",
"112 507 OFFCURVE",
"73 468 OFFCURVE",
"73 419 CURVE SMOOTH",
"73 370 OFFCURVE",
"112 331 OFFCURVE",
"161 331 CURVE SMOOTH"
);
}
);
width = 294;
}
);
unicode = 003B;
},
{
color = 3;
glyphname = slash;
lastChange = "2015-08-06 15:39:19 +0000";
layers = (
{
layerId = "7C6C6D54-BD7C-484C-BA4C-283093F5BAFD";
name = Light;
paths = (
{
closed = 1;
nodes = (
"50 -102 LINE",
"417 707 LINE",
"355 707 LINE",
"-11 -102 LINE"
);
}
);
width = 387;
},
{
layerId = "9624E7F4-80FA-4A11-8396-8F8611ED4CD7";
name = Bold;
paths = (
{
closed = 1;
nodes = (
"149 -103 LINE",
"509 707 LINE",
"357 707 LINE",
"-2 -103 LINE"
);
}
);
width = 464;
}
);
unicode = 002F;
},
{
color = 3;
glyphname = underscore;
lastChange = "2015-08-06 15:39:19 +0000";
layers = (
{
layerId = "7C6C6D54-BD7C-484C-BA4C-283093F5BAFD";
name = Light;
paths = (
{
closed = 1;
nodes = (
"535 -82 LINE",
"535 -27 LINE",
"30 -27 LINE",
"30 -82 LINE"
);
}
);
width = 565;
},
{
layerId = "9624E7F4-80FA-4A11-8396-8F8611ED4CD7";
name = Bold;
paths = (
{
closed = 1;
nodes = (
"526 -166 LINE",
"526 -45 LINE",
"20 -45 LINE",
"20 -166 LINE"
);
}
);
width = 546;
}
);
unicode = 005F;
},
{
color = 3;
glyphname = braceleft;
lastChange = "2015-08-06 15:39:19 +0000";
layers = (
{
layerId = "7C6C6D54-BD7C-484C-BA4C-283093F5BAFD";
name = Light;
paths = (
{
closed = 1;
nodes = (
"284 -185 OFFCURVE",
"298 -183 OFFCURVE",
"312 -178 CURVE",
"312 -116 LINE",
"301 -122 OFFCURVE",
"288 -125 OFFCURVE",
"278 -125 CURVE SMOOTH",
"231 -125 OFFCURVE",
"212 -88 OFFCURVE",
"212 -46 CURVE SMOOTH",
"212 15 OFFCURVE",
"235 61 OFFCURVE",
"235 123 CURVE SMOOTH",
"235 191 OFFCURVE",
"198 250 OFFCURVE",
"112 264 CURVE",
"198 278 OFFCURVE",
"235 336 OFFCURVE",
"235 404 CURVE SMOOTH",
"235 466 OFFCURVE",
"212 512 OFFCURVE",
"212 573 CURVE SMOOTH",
"212 615 OFFCURVE",
"231 652 OFFCURVE",
"278 652 CURVE SMOOTH",
"288 652 OFFCURVE",
"301 649 OFFCURVE",
"312 643 CURVE",
"312 705 LINE",
"298 710 OFFCURVE",
"284 712 OFFCURVE",
"270 712 CURVE SMOOTH",
"206 712 OFFCURVE",
"148 661 OFFCURVE",
"148 571 CURVE SMOOTH",
"148 516 OFFCURVE",
"171 469 OFFCURVE",
"171 420 CURVE SMOOTH",
"171 359 OFFCURVE",
"143 308 OFFCURVE",
"82 297 CURVE SMOOTH",
"71 295 OFFCURVE",
"59 295 OFFCURVE",
"50 295 CURVE",
"50 234 LINE",
"59 234 OFFCURVE",
"74 234 OFFCURVE",
"82 232 CURVE SMOOTH",
"147 216 OFFCURVE",
"171 168 OFFCURVE",
"171 107 CURVE SMOOTH",
"171 58 OFFCURVE",
"148 11 OFFCURVE",
"148 -44 CURVE SMOOTH",
"148 -134 OFFCURVE",
"206 -185 OFFCURVE",
"270 -185 CURVE SMOOTH"
);
}
);
width = 322;
},
{
layerId = "9624E7F4-80FA-4A11-8396-8F8611ED4CD7";
name = Bold;
paths = (
{
closed = 1;
nodes = (
"310 -206 OFFCURVE",
"332 -202 OFFCURVE",
"355 -194 CURVE",
"355 -59 LINE",
"345 -65 OFFCURVE",
"334 -68 OFFCURVE",
"324 -68 CURVE SMOOTH",
"297 -68 OFFCURVE",
"273 -46 OFFCURVE",
"273 -13 CURVE SMOOTH",
"273 15 OFFCURVE",
"285 58 OFFCURVE",
"285 102 CURVE SMOOTH",
"285 187 OFFCURVE",
"229 247 OFFCURVE",
"169 255 CURVE",
"229 263 OFFCURVE",
"285 322 OFFCURVE",
"285 407 CURVE SMOOTH",
"285 451 OFFCURVE",
"273 494 OFFCURVE",
"273 522 CURVE SMOOTH",
"273 555 OFFCURVE",
"297 577 OFFCURVE",
"324 577 CURVE SMOOTH",
"334 577 OFFCURVE",
"345 574 OFFCURVE",
"355 568 CURVE",
"355 703 LINE",
"332 711 OFFCURVE",
"310 715 OFFCURVE",
"289 715 CURVE SMOOTH",
"196 715 OFFCURVE",
"130 639 OFFCURVE",
"130 535 CURVE SMOOTH",
"130 493 OFFCURVE",
"142 455 OFFCURVE",
"142 421 CURVE SMOOTH",
"142 374 OFFCURVE",
"112 325 OFFCURVE",
"57 325 CURVE SMOOTH",
"47 325 OFFCURVE",
"40 325 OFFCURVE",
"40 325 CURVE",
"40 184 LINE",
"40 184 OFFCURVE",
"47 185 OFFCURVE",
"57 185 CURVE SMOOTH",
"112 185 OFFCURVE",
"142 135 OFFCURVE",
"142 88 CURVE SMOOTH",
"142 54 OFFCURVE",
"130 16 OFFCURVE",
"130 -26 CURVE SMOOTH",
"130 -130 OFFCURVE",
"196 -206 OFFCURVE",
"289 -206 CURVE SMOOTH"
);
}
);
width = 380;
}
);
unicode = 007B;
},
{
color = 3;
glyphname = braceright;
lastChange = "2015-08-06 15:39:19 +0000";
layers = (
{
layerId = "7C6C6D54-BD7C-484C-BA4C-283093F5BAFD";
name = Light;
paths = (
{
closed = 1;
nodes = (
"116 -185 OFFCURVE",
"174 -134 OFFCURVE",
"174 -44 CURVE SMOOTH",
"174 11 OFFCURVE",
"151 58 OFFCURVE",
"151 107 CURVE SMOOTH",
"151 168 OFFCURVE",
"175 216 OFFCURVE",
"240 232 CURVE SMOOTH",
"248 234 OFFCURVE",
"263 234 OFFCURVE",
"272 234 CURVE",
"272 295 LINE",
"263 295 OFFCURVE",
"251 295 OFFCURVE",
"240 297 CURVE SMOOTH",
"179 308 OFFCURVE",
"151 359 OFFCURVE",
"151 420 CURVE SMOOTH",
"151 469 OFFCURVE",
"174 516 OFFCURVE",
"174 571 CURVE SMOOTH",
"174 661 OFFCURVE",
"116 712 OFFCURVE",
"52 712 CURVE SMOOTH",
"38 712 OFFCURVE",
"24 710 OFFCURVE",
"10 705 CURVE",
"10 643 LINE",
"21 649 OFFCURVE",
"34 652 OFFCURVE",
"44 652 CURVE SMOOTH",
"91 652 OFFCURVE",
"110 615 OFFCURVE",
"110 573 CURVE SMOOTH",
"110 512 OFFCURVE",
"87 466 OFFCURVE",
"87 404 CURVE SMOOTH",
"87 336 OFFCURVE",
"124 278 OFFCURVE",
"210 264 CURVE",
"124 250 OFFCURVE",
"87 191 OFFCURVE",
"87 123 CURVE SMOOTH",
"87 61 OFFCURVE",
"110 15 OFFCURVE",
"110 -46 CURVE SMOOTH",
"110 -88 OFFCURVE",
"91 -125 OFFCURVE",
"44 -125 CURVE SMOOTH",
"34 -125 OFFCURVE",
"21 -122 OFFCURVE",
"10 -116 CURVE",
"10 -178 LINE",
"24 -183 OFFCURVE",
"38 -185 OFFCURVE",
"52 -185 CURVE SMOOTH"
);
}
);
width = 322;
},
{
layerId = "9624E7F4-80FA-4A11-8396-8F8611ED4CD7";
name = Bold;
paths = (
{
closed = 1;
nodes = (
"184 -206 OFFCURVE",
"250 -130 OFFCURVE",
"250 -26 CURVE SMOOTH",
"250 16 OFFCURVE",
"238 54 OFFCURVE",
"238 88 CURVE SMOOTH",
"238 135 OFFCURVE",
"268 185 OFFCURVE",
"323 185 CURVE SMOOTH",
"333 185 OFFCURVE",
"340 184 OFFCURVE",
"340 184 CURVE",
"340 325 LINE",
"340 325 OFFCURVE",
"333 325 OFFCURVE",
"323 325 CURVE SMOOTH",
"268 325 OFFCURVE",
"238 374 OFFCURVE",
"238 421 CURVE SMOOTH",
"238 455 OFFCURVE",
"250 493 OFFCURVE",
"250 535 CURVE SMOOTH",
"250 639 OFFCURVE",
"184 715 OFFCURVE",
"91 715 CURVE SMOOTH",
"70 715 OFFCURVE",
"48 711 OFFCURVE",
"25 703 CURVE",
"25 568 LINE",
"35 574 OFFCURVE",
"46 577 OFFCURVE",
"56 577 CURVE SMOOTH",
"83 577 OFFCURVE",
"107 555 OFFCURVE",
"107 522 CURVE SMOOTH",
"107 494 OFFCURVE",
"95 451 OFFCURVE",
"95 407 CURVE SMOOTH",
"95 322 OFFCURVE",
"151 263 OFFCURVE",
"211 255 CURVE",
"151 247 OFFCURVE",
"95 187 OFFCURVE",
"95 102 CURVE SMOOTH",
"95 58 OFFCURVE",
"107 15 OFFCURVE",
"107 -13 CURVE SMOOTH",
"107 -46 OFFCURVE",
"83 -68 OFFCURVE",
"56 -68 CURVE SMOOTH",
"46 -68 OFFCURVE",
"35 -65 OFFCURVE",
"25 -59 CURVE",
"25 -194 LINE",
"48 -202 OFFCURVE",
"70 -206 OFFCURVE",
"91 -206 CURVE SMOOTH"
);
}
);
width = 380;
}
);
unicode = 007D;
},
{
color = 3;
glyphname = bracketleft;
lastChange = "2015-08-06 15:39:19 +0000";
layers = (
{
layerId = "7C6C6D54-BD7C-484C-BA4C-283093F5BAFD";
name = Light;
paths = (
{
closed = 1;
nodes = (
"142 -179 LINE",
"142 707 LINE",
"80 707 LINE",
"80 -179 LINE"
);
},
{
closed = 1;
nodes = (
"296 -179 LINE",
"296 -123 LINE",
"80 -123 LINE",
"80 -179 LINE"
);
},
{
closed = 1;
nodes = (
"296 652 LINE",
"296 707 LINE",
"80 707 LINE",
"80 652 LINE"
);
}
);
width = 296;
},
{
layerId = "9624E7F4-80FA-4A11-8396-8F8611ED4CD7";
name = Bold;
paths = (
{
closed = 1;
nodes = (
"203 -196 LINE",
"203 707 LINE",
"65 707 LINE",
"65 -196 LINE"
);
},
{
closed = 1;
nodes = (
"348 -196 LINE",
"348 -68 LINE",
"65 -68 LINE",
"65 -196 LINE"
);
},
{
closed = 1;
nodes = (
"348 580 LINE",
"348 707 LINE",
"65 707 LINE",
"65 580 LINE"
);
}
);
width = 363;
}
);
unicode = 005B;
},
{
color = 3;
glyphname = bracketright;
lastChange = "2015-08-06 15:39:19 +0000";
layers = (
{
layerId = "7C6C6D54-BD7C-484C-BA4C-283093F5BAFD";
name = Light;
paths = (
{
closed = 1;
nodes = (
"216 -179 LINE",
"216 707 LINE",
"154 707 LINE",
"154 -179 LINE"
);
},
{
closed = 1;
nodes = (
"216 -179 LINE",
"216 -123 LINE",
"0 -123 LINE",
"0 -179 LINE"
);
},
{
closed = 1;
nodes = (
"216 652 LINE",
"216 707 LINE",
"0 707 LINE",
"0 652 LINE"
);
}
);
width = 296;
},
{
layerId = "9624E7F4-80FA-4A11-8396-8F8611ED4CD7";
name = Bold;
paths = (
{
closed = 1;
nodes = (
"298 -196 LINE",
"298 707 LINE",
"160 707 LINE",
"160 -196 LINE"
);
},
{
closed = 1;
nodes = (
"298 -196 LINE",
"298 -68 LINE",
"15 -68 LINE",
"15 -196 LINE"
);
},
{
closed = 1;
nodes = (
"298 580 LINE",
"298 707 LINE",
"15 707 LINE",
"15 580 LINE"
);
}
);
width = 363;
}
);
unicode = 005D;
},
{
color = 3;
glyphname = parenleft;
lastChange = "2015-08-06 15:39:19 +0000";
layers = (
{
layerId = "7C6C6D54-BD7C-484C-BA4C-283093F5BAFD";
name = Light;
paths = (
{
closed = 1;
nodes = (
"310 -196 LINE",
"202 -54 OFFCURVE",
"145 101 OFFCURVE",
"145 257 CURVE SMOOTH",
"145 419 OFFCURVE",
"196 560 OFFCURVE",
"303 707 CURVE",
"232 707 LINE",
"141 587 OFFCURVE",
"80 424 OFFCURVE",
"80 262 CURVE SMOOTH",
"80 103 OFFCURVE",
"134 -61 OFFCURVE",
"240 -196 CURVE"
);
}
);
width = 303;
},
{
layerId = "9624E7F4-80FA-4A11-8396-8F8611ED4CD7";
name = Bold;
paths = (
{
closed = 1;
nodes = (
"358 -196 LINE",
"245 -58 OFFCURVE",
"194 125 OFFCURVE",
"194 255 CURVE SMOOTH",
"194 390 OFFCURVE",
"246 582 OFFCURVE",
"348 707 CURVE",
"197 707 LINE",
"97 587 OFFCURVE",
"40 439 OFFCURVE",
"40 259 CURVE SMOOTH",
"40 83 OFFCURVE",
"96 -63 OFFCURVE",
"203 -196 CURVE"
);
}
);
width = 338;
}
);
unicode = 0028;
},
{
color = 3;
glyphname = parenright;
lastChange = "2015-08-06 15:39:19 +0000";
layers = (
{
layerId = "7C6C6D54-BD7C-484C-BA4C-283093F5BAFD";
name = Light;
paths = (
{
closed = 1;
nodes = (
"63 -196 LINE",
"169 -61 OFFCURVE",
"223 103 OFFCURVE",
"223 262 CURVE SMOOTH",
"223 424 OFFCURVE",
"162 587 OFFCURVE",
"71 707 CURVE",
"0 707 LINE",
"107 560 OFFCURVE",
"158 419 OFFCURVE",
"158 257 CURVE SMOOTH",
"158 101 OFFCURVE",
"101 -54 OFFCURVE",
"-7 -196 CURVE"
);
}
);
width = 303;
},
{
layerId = "9624E7F4-80FA-4A11-8396-8F8611ED4CD7";
name = Bold;
paths = (
{
closed = 1;
nodes = (
"135 -196 LINE",
"242 -63 OFFCURVE",
"298 83 OFFCURVE",
"298 259 CURVE SMOOTH",
"298 439 OFFCURVE",
"241 587 OFFCURVE",
"141 707 CURVE",
"-10 707 LINE",
"92 582 OFFCURVE",
"144 390 OFFCURVE",
"144 255 CURVE SMOOTH",
"144 125 OFFCURVE",
"93 -58 OFFCURVE",
"-20 -196 CURVE"
);
}
);
width = 338;
}
);
unicode = 0029;
},
{
color = 3;
glyphname = emdash;
lastChange = "2015-08-06 15:39:19 +0000";
layers = (
{
layerId = "7C6C6D54-BD7C-484C-BA4C-283093F5BAFD";
name = Light;
paths = (
{
closed = 1;
nodes = (
"759 245 LINE",
"759 300 LINE",
"60 300 LINE",
"60 245 LINE"
);
}
);
width = 819;
},
{
layerId = "9624E7F4-80FA-4A11-8396-8F8611ED4CD7";
name = Bold;
paths = (
{
closed = 1;
nodes = (
"791 218 LINE",
"791 325 LINE",
"45 325 LINE",
"45 218 LINE"
);
}
);
width = 836;
}
);
unicode = 2014;
},
{
color = 3;
glyphname = endash;
lastChange = "2015-08-06 15:39:19 +0000";
layers = (
{
layerId = "7C6C6D54-BD7C-484C-BA4C-283093F5BAFD";
name = Light;
paths = (
{
closed = 1;
nodes = (
"476 243 LINE",
"476 298 LINE",
"60 298 LINE",
"60 243 LINE"
);
}
);
width = 536;
},
{
layerId = "9624E7F4-80FA-4A11-8396-8F8611ED4CD7";
name = Bold;
paths = (
{
closed = 1;
nodes = (
"510 215 LINE",
"510 322 LINE",
"45 322 LINE",
"45 215 LINE"
);
}
);
width = 555;
}
);
unicode = 2013;
},
{
color = 3;
glyphname = hyphen;
lastChange = "2015-08-06 15:39:19 +0000";
layers = (
{
layerId = "7C6C6D54-BD7C-484C-BA4C-283093F5BAFD";
name = Light;
paths = (
{
closed = 1;
nodes = (
"285 243 LINE",
"285 298 LINE",
"60 298 LINE",
"60 243 LINE"
);
}
);
width = 345;
},
{
layerId = "9624E7F4-80FA-4A11-8396-8F8611ED4CD7";
name = Bold;
paths = (
{
closed = 1;
nodes = (
"312 202 LINE",
"312 322 LINE",
"45 322 LINE",
"45 202 LINE"
);
}
);
width = 357;
}
);
unicode = 002D;
},
{
color = 3;
glyphname = softhyphen;
lastChange = "2015-08-06 15:39:19 +0000";
layers = (
{
layerId = "7C6C6D54-BD7C-484C-BA4C-283093F5BAFD";
name = Light;
paths = (
{
closed = 1;
nodes = (
"285 243 LINE",
"285 298 LINE",
"60 298 LINE",
"60 243 LINE"
);
}
);
width = 345;
},
{
layerId = "9624E7F4-80FA-4A11-8396-8F8611ED4CD7";
name = Bold;
paths = (
{
closed = 1;
nodes = (
"312 202 LINE",
"312 322 LINE",
"45 322 LINE",
"45 202 LINE"
);
}
);
width = 357;
}
);
unicode = 00AD;
},
{
color = 3;
glyphname = guillemotleft;
lastChange = "2015-08-06 15:39:19 +0000";
layers = (
{
layerId = "7C6C6D54-BD7C-484C-BA4C-283093F5BAFD";
name = Light;
paths = (
{
closed = 1;
nodes = (
"277 253 LINE",
"424 415 LINE",
"354 415 LINE",
"204 253 LINE"
);
},
{
closed = 1;
nodes = (
"247 91 LINE",
"100 253 LINE",
"27 253 LINE",
"177 91 LINE"
);
},
{
closed = 1;
nodes = (
"100 253 LINE",
"247 415 LINE",
"177 415 LINE",
"27 253 LINE"
);
},
{
closed = 1;
nodes = (
"424 91 LINE",
"277 253 LINE",
"204 253 LINE",
"354 91 LINE"
);
}
);
width = 450;
},
{
layerId = "9624E7F4-80FA-4A11-8396-8F8611ED4CD7";
name = Bold;
paths = (
{
closed = 1;
nodes = (
"404 253 LINE",
"550 415 LINE",
"398 415 LINE",
"246 253 LINE"
);
},
{
closed = 1;
nodes = (
"330 91 LINE",
"184 253 LINE",
"26 253 LINE",
"178 91 LINE"
);
},
{
closed = 1;
nodes = (
"184 253 LINE",
"330 415 LINE",
"178 415 LINE",
"26 253 LINE"
);
},
{
closed = 1;
nodes = (
"550 91 LINE",
"404 253 LINE",
"246 253 LINE",
"398 91 LINE"
);
}
);
width = 592;
}
);
unicode = 00AB;
},
{
color = 3;
glyphname = guillemotright;
lastChange = "2015-08-06 15:39:19 +0000";
layers = (
{
layerId = "7C6C6D54-BD7C-484C-BA4C-283093F5BAFD";
name = Light;
paths = (
{
closed = 1;
nodes = (
"423 253 LINE",
"273 415 LINE",
"203 415 LINE",
"350 253 LINE"
);
},
{
closed = 1;
nodes = (
"96 91 LINE",
"246 253 LINE",
"173 253 LINE",
"26 91 LINE"
);
},
{
closed = 1;
nodes = (
"246 253 LINE",
"96 415 LINE",
"26 415 LINE",
"173 253 LINE"
);
},
{
closed = 1;
nodes = (
"273 91 LINE",
"423 253 LINE",
"350 253 LINE",
"203 91 LINE"
);
}
);
width = 453;
},
{
layerId = "9624E7F4-80FA-4A11-8396-8F8611ED4CD7";
name = Bold;
paths = (
{
closed = 1;
nodes = (
"565 253 LINE",
"413 415 LINE",
"261 415 LINE",
"407 253 LINE"
);
},
{
closed = 1;
nodes = (
"193 91 LINE",
"345 253 LINE",
"187 253 LINE",
"41 91 LINE"
);
},
{
closed = 1;
nodes = (
"345 253 LINE",
"193 415 LINE",
"41 415 LINE",
"187 253 LINE"
);
},
{
closed = 1;
nodes = (
"413 91 LINE",
"565 253 LINE",
"407 253 LINE",
"261 91 LINE"
);
}
);
width = 591;
}
);
unicode = 00BB;
},
{
color = 3;
glyphname = guilsinglleft;
lastChange = "2015-08-06 15:39:19 +0000";
layers = (
{
layerId = "7C6C6D54-BD7C-484C-BA4C-283093F5BAFD";
name = Light;
paths = (
{
closed = 1;
nodes = (
"103 253 LINE",
"250 415 LINE",
"180 415 LINE",
"30 253 LINE"
);
},
{
closed = 1;
nodes = (
"250 91 LINE",
"103 253 LINE",
"30 253 LINE",
"180 91 LINE"
);
}
);
width = 280;
},
{
layerId = "9624E7F4-80FA-4A11-8396-8F8611ED4CD7";
name = Bold;
paths = (
{
closed = 1;
nodes = (
"184 253 LINE",
"330 415 LINE",
"178 415 LINE",
"26 253 LINE"
);
},
{
closed = 1;
nodes = (
"330 91 LINE",
"184 253 LINE",
"26 253 LINE",
"178 91 LINE"
);
}
);
width = 371;
}
);
unicode = 2039;
},
{
color = 3;
glyphname = guilsinglright;
lastChange = "2015-08-06 15:39:19 +0000";
layers = (
{
layerId = "7C6C6D54-BD7C-484C-BA4C-283093F5BAFD";
name = Light;
paths = (
{
closed = 1;
nodes = (
"250 253 LINE",
"100 415 LINE",
"30 415 LINE",
"177 253 LINE"
);
},
{
closed = 1;
nodes = (
"100 91 LINE",
"250 253 LINE",
"177 253 LINE",
"30 91 LINE"
);
}
);
width = 277;
},
{
layerId = "9624E7F4-80FA-4A11-8396-8F8611ED4CD7";
name = Bold;
paths = (
{
closed = 1;
nodes = (
"345 253 LINE",
"193 415 LINE",
"41 415 LINE",
"187 253 LINE"
);
},
{
closed = 1;
nodes = (
"193 91 LINE",
"345 253 LINE",
"187 253 LINE",
"41 91 LINE"
);
}
);
width = 371;
}
);
unicode = 203A;
},
{
color = 3;
glyphname = quotedblbase;
lastChange = "2015-08-06 16:40:42 +0000";
layers = (
{
layerId = "7C6C6D54-BD7C-484C-BA4C-283093F5BAFD";
name = Light;
paths = (
{
closed = 1;
nodes = (
"49 -122 LINE",
"164 92 LINE",
"83 92 LINE",
"4 -122 LINE"
);
},
{
closed = 1;
nodes = (
"181 -122 LINE",
"296 92 LINE",
"215 92 LINE",
"136 -122 LINE"
);
}
);
width = 289;
},
{
layerId = "9624E7F4-80FA-4A11-8396-8F8611ED4CD7";
name = Bold;
paths = (
{
closed = 1;
nodes = (
"119 -127 LINE",
"240 134 LINE",
"94 134 LINE",
"-2 -127 LINE"
);
},
{
closed = 1;
nodes = (
"304 -127 LINE",
"445 134 LINE",
"287 134 LINE",
"183 -127 LINE"
);
}
);
width = 452;
}
);
unicode = 201E;
},
{
color = 3;
glyphname = quotedblleft;
lastChange = "2015-08-06 16:40:32 +0000";
layers = (
{
layerId = "7C6C6D54-BD7C-484C-BA4C-283093F5BAFD";
name = Light;
paths = (
{
closed = 1;
nodes = (
"89 481 LINE",
"168 695 LINE",
"123 695 LINE",
"8 481 LINE"
);
},
{
closed = 1;
nodes = (
"221 481 LINE",
"300 695 LINE",
"255 695 LINE",
"140 481 LINE"
);
}
);
width = 290;
},
{
layerId = "9624E7F4-80FA-4A11-8396-8F8611ED4CD7";
name = Bold;
paths = (
{
closed = 1;
nodes = (
"185 433 LINE",
"289 694 LINE",
"168 694 LINE",
"27 433 LINE"
);
},
{
closed = 1;
nodes = (
"378 433 LINE",
"474 694 LINE",
"353 694 LINE",
"232 433 LINE"
);
}
);
width = 452;
}
);
unicode = 201C;
},
{
color = 3;
glyphname = quotedblright;
lastChange = "2015-08-06 16:40:37 +0000";
layers = (
{
layerId = "7C6C6D54-BD7C-484C-BA4C-283093F5BAFD";
name = Light;
paths = (
{
closed = 1;
nodes = (
"53 481 LINE",
"168 695 LINE",
"87 695 LINE",
"8 481 LINE"
);
},
{
closed = 1;
nodes = (
"185 481 LINE",
"300 695 LINE",
"219 695 LINE",
"140 481 LINE"
);
}
);
width = 289;
},
{
layerId = "9624E7F4-80FA-4A11-8396-8F8611ED4CD7";
name = Bold;
paths = (
{
closed = 1;
nodes = (
"149 433 LINE",
"270 694 LINE",
"124 694 LINE",
"28 433 LINE"
);
},
{
closed = 1;
nodes = (
"334 433 LINE",
"475 694 LINE",
"317 694 LINE",
"213 433 LINE"
);
}
);
width = 452;
}
);
unicode = 201D;
},
{
color = 3;
glyphname = quoteleft;
lastChange = "2015-08-06 15:39:19 +0000";
layers = (
{
layerId = "7C6C6D54-BD7C-484C-BA4C-283093F5BAFD";
name = Light;
paths = (
{
closed = 1;
nodes = (
"88 481 LINE",
"167 695 LINE",
"122 695 LINE",
"7 481 LINE"
);
}
);
width = 157;
},
{
layerId = "9624E7F4-80FA-4A11-8396-8F8611ED4CD7";
name = Bold;
paths = (
{
closed = 1;
nodes = (
"188 433 LINE",
"289 694 LINE",
"163 694 LINE",
"27 433 LINE"
);
}
);
width = 267;
}
);
unicode = 2018;
},
{
color = 3;
glyphname = quoteright;
lastChange = "2015-08-06 15:39:19 +0000";
layers = (
{
layerId = "7C6C6D54-BD7C-484C-BA4C-283093F5BAFD";
name = Light;
paths = (
{
closed = 1;
nodes = (
"53 481 LINE",
"168 695 LINE",
"87 695 LINE",
"8 481 LINE"
);
}
);
width = 158;
},
{
layerId = "9624E7F4-80FA-4A11-8396-8F8611ED4CD7";
name = Bold;
paths = (
{
closed = 1;
nodes = (
"154 433 LINE",
"290 694 LINE",
"129 694 LINE",
"28 433 LINE"
);
}
);
width = 267;
}
);
unicode = 2019;
},
